<svg width="596" height="391" viewBox="0 0 596 391" fill="none" xmlns="http://www.w3.org/2000/svg">
<path d="M554.911 122.704C554.911 122.704 589.84 93.2983 589.84 46.4894C589.84 33.887 584.512 21.8847 575.04 13.4831C563.2 2.68105 546.031 -0.919635 530.639 4.48139C492.158 18.8841 408.683 43.4888 302.713 43.4888C196.742 43.4888 113.267 18.8841 74.1944 4.48139C58.802 -0.919635 42.2256 2.68105 29.7933 13.4831C20.913 21.8847 14.9929 33.887 14.9929 46.4894C14.9929 93.2983 47.0501 118.297 47.0501 118.297" stroke="white" stroke-width="3" stroke-miterlimit="10"/>
<path d="M556.282 203.439C556.282 203.439 601.73 226.369 592.85 303.784C592.85 328.989 576.273 351.193 552.001 358.394C505.823 371.597 421.165 389 298.026 389C174.886 389 90.2281 371.597 44.0509 358.394C19.7782 351.793 3.20176 329.589 3.20176 303.784C-5.67848 226.969 37.5685 204.4 37.5685 204.4" stroke="white" stroke-width="3" stroke-miterlimit="10"/>
<path d="M47.6036 181.36C39.9074 193.362 28.6591 231.769 47.0116 238.971C55.8919 242.572 64.1801 229.969 68.9162 223.368" stroke="white" stroke-width="3" stroke-miterlimit="10"/>
<path d="M216.921 216.766C232.313 229.369 284.411 226.968 298.027 220.367C298.027 220.367 300.987 170.558 284.411 137.551C274.347 117.148 247.706 115.347 234.681 133.951C225.209 148.353 215.145 174.158 216.921 216.766Z" fill="white" stroke="white" stroke-width="3" stroke-miterlimit="10"/>
<path d="M298.028 223.368C298.028 223.368 299.804 259.975 289.74 280.979C283.228 293.581 266.059 295.382 258.363 283.379C251.851 273.778 245.339 250.373 246.523 223.368" stroke="white" stroke-width="3" stroke-miterlimit="10"/>
<path d="M240.484 224.945C240.484 224.945 240.01 261.176 228.17 279.179C221.066 289.981 203.897 289.981 196.793 278.579C190.873 269.578 191.23 238.434 194.19 214.429" stroke="white" stroke-width="3" stroke-miterlimit="10"/>
<path d="M219.289 174.158C219.289 174.158 212.777 134.551 181.992 131.55C181.992 131.55 157.72 150.754 166.008 205.364C166.008 205.364 169.56 217.366 216.921 216.166" stroke="white" stroke-width="3" stroke-miterlimit="10"/>
<path d="M164.824 172.959C164.824 172.959 157.128 123.749 126.343 121.349C126.343 121.349 106.214 143.553 113.911 198.164L123.975 201.164C136.999 205.365 151.208 204.765 164.824 199.364" fill="white"/>
<path d="M164.824 172.959C164.824 172.959 157.128 123.749 126.343 121.349C126.343 121.349 106.214 143.553 113.911 198.164L123.975 201.164C136.999 205.365 151.208 204.765 164.824 199.364" stroke="white" stroke-width="3" stroke-miterlimit="10"/>
<path d="M113.318 162.157C113.318 162.157 95.5578 123.15 82.5335 126.15C74.2453 127.95 74.8373 160.957 78.9814 178.96C80.7574 187.962 89.0457 194.563 98.5179 193.963H106.806" stroke="white" stroke-width="3" stroke-miterlimit="10"/>
<path d="M76.6135 160.356C76.6135 160.356 57.0769 115.347 44.6446 117.748C36.9484 119.548 37.5404 151.354 41.6845 169.357C43.4606 178.359 51.7488 184.36 60.629 184.36H76.6135" fill="white"/>
<path d="M76.6135 160.356C76.6135 160.356 57.0769 115.347 44.6446 117.748C36.9484 119.548 37.5404 151.354 41.6845 169.357C43.4606 178.359 51.7488 184.36 60.629 184.36H76.6135" stroke="white" stroke-width="3" stroke-miterlimit="10"/>
<path d="M160.087 207.763C150.615 223.366 137.59 270.175 163.047 277.376C174.887 280.977 186.136 265.374 192.056 256.973" stroke="white" stroke-width="3" stroke-miterlimit="10"/>
<path d="M119.24 197.562C110.359 213.165 99.111 259.974 122.2 267.775C132.856 271.376 142.92 255.773 148.248 247.372" stroke="white" stroke-width="3" stroke-miterlimit="10"/>
<path d="M80.7578 187.358C71.8776 202.361 57.6692 247.969 80.1658 256.371C90.8221 260.572 100.886 245.569 106.807 237.167" stroke="white" stroke-width="3" stroke-miterlimit="10"/>
<path d="M379.134 216.766C363.742 229.369 311.644 226.968 298.028 220.367C298.028 220.367 295.068 170.558 311.644 137.551C321.709 117.148 348.349 115.347 361.374 133.951C370.846 148.353 380.91 174.158 379.134 216.766Z" stroke="white" stroke-width="3" stroke-miterlimit="10"/>
<path d="M298.026 223.368C298.026 223.368 296.25 259.975 306.314 280.979C312.826 293.581 329.995 295.382 337.691 283.379C344.203 273.778 350.715 250.373 349.531 223.368" stroke="white" stroke-width="3" stroke-miterlimit="10"/>
<path d="M353.975 225.544C353.975 225.544 356.045 261.175 367.886 279.178C374.99 289.98 392.158 289.98 399.262 278.578C405.183 269.576 403.917 238.976 400.957 214.971" stroke="white" stroke-width="3" stroke-miterlimit="10"/>
<path d="M376.764 174.158C376.764 174.158 383.277 134.551 414.061 131.55C414.061 131.55 438.334 150.754 430.046 205.364C430.046 205.364 426.494 217.366 379.132 216.166" stroke="white" stroke-width="3" stroke-miterlimit="10"/>
<path d="M431.231 172.959C431.231 172.959 438.927 123.749 469.712 121.349C469.712 121.349 489.841 143.553 482.145 198.164L472.08 201.164C459.056 205.365 444.848 204.765 431.231 199.364" stroke="white" stroke-width="3" stroke-miterlimit="10"/>
<path d="M482.737 162.157C482.737 162.157 500.498 123.15 513.522 126.15C521.81 127.95 521.218 160.957 517.074 178.96C515.298 187.962 507.01 194.563 497.537 193.963H483.414" stroke="white" stroke-width="3" stroke-miterlimit="10"/>
<path d="M519.441 160.355C519.441 160.355 538.977 115.347 551.41 117.747C559.106 119.548 558.514 151.354 554.37 169.357C552.594 178.359 544.306 184.36 535.425 184.36H519.441" stroke="white" stroke-width="3" stroke-miterlimit="10"/>
<path d="M435.967 207.763C445.439 223.366 458.463 270.175 433.007 277.376C421.166 280.977 409.918 265.374 403.998 256.973" stroke="white" stroke-width="3" stroke-miterlimit="10"/>
<path d="M476.815 197.562C485.695 213.165 496.944 259.974 473.855 267.775C463.199 271.376 453.135 255.773 447.806 247.372" stroke="white" stroke-width="3" stroke-miterlimit="10"/>
<path d="M515.055 187.1C523.935 202.103 538.385 247.974 515.888 256.376C505.232 260.577 495.168 245.574 489.248 237.172" stroke="white" stroke-width="3" stroke-miterlimit="10"/>
<path d="M548.45 181.36C556.146 193.363 567.394 231.77 549.042 238.971C540.162 242.572 531.874 229.97 527.137 223.368" stroke="white" stroke-width="3" stroke-miterlimit="10"/>
</svg>
