<svg width="34" height="34" viewBox="0 0 34 34" fill="none" xmlns="http://www.w3.org/2000/svg">
<path fill-rule="evenodd" clip-rule="evenodd" d="M13.2996 30.3324L13.3008 30.3411L13.3018 30.3482C13.4325 31.2641 13.8893 32.1022 14.5882 32.7084C15.2871 33.3147 16.1813 33.6485 17.1065 33.6485C18.0317 33.6485 18.9259 33.3147 19.6248 32.7084C20.3238 32.1022 20.7806 31.2641 20.9113 30.3482L20.912 30.343L20.9124 30.34L20.9134 30.3324L21.8853 22.7715H23.1611C23.4188 22.7715 23.6689 22.6846 23.871 22.5247C24.073 22.3648 24.2152 22.1414 24.2745 21.8906L24.8714 19.3652H26.7231C26.9927 19.3652 27.2536 19.27 27.4599 19.0964C27.6661 18.9227 27.8044 18.6818 27.8504 18.4162L29.0875 11.2647C29.4264 9.52194 29.2432 7.71784 28.5609 6.07865C27.878 4.43791 26.7254 3.03557 25.248 2.04781C23.3284 0.759557 20.8415 0.654855 18.7594 1.75815C18.2547 2.01897 17.6948 2.15509 17.1266 2.1551C16.5585 2.15511 15.9986 2.019 15.4939 1.75819C13.4117 0.654755 10.9247 0.759471 9.00518 2.0479C7.52782 3.03566 6.37529 4.43796 5.69236 6.07866C5.01006 7.71784 4.8269 9.52193 5.16578 11.2647L6.40289 18.4162C6.44885 18.6819 6.58715 18.9227 6.7934 19.0964C6.99965 19.27 7.26059 19.3652 7.5302 19.3652H9.34166L9.93854 21.8906C9.99781 22.1414 10.14 22.3648 10.3421 22.5247C10.5441 22.6846 10.7943 22.7715 11.0519 22.7715H12.3277L13.2991 30.3284L13.2996 30.3324ZM26.4488 6.9601C26.9587 8.18608 27.0902 9.55917 26.8351 10.8622L25.76 17.0771H22.6173L22.9979 14.1167C23.0186 13.9555 23.0047 13.7917 22.9572 13.6362C22.9097 13.4808 22.8295 13.3372 22.7222 13.2152C22.6148 13.0931 22.4827 12.9953 22.3345 12.9284C22.1864 12.8614 22.0257 12.8267 21.8632 12.8267H12.3499C12.1874 12.8267 12.0267 12.8614 11.8786 12.9284C11.7305 12.9953 11.5983 13.0931 11.4909 13.2152C11.3836 13.3372 11.3035 13.4808 11.2559 13.6362C11.2084 13.7917 11.1945 13.9555 11.2152 14.1167L11.5958 17.0771H8.49339L7.41841 10.8629L7.41799 10.8605L7.41426 10.8402L7.41393 10.8385C7.15878 9.53546 7.29468 8.18608 7.80454 6.9601C8.31439 5.73412 9.17625 4.68575 10.2801 3.94792C11.4879 3.13721 13.0746 3.06503 14.4241 3.78081L14.4275 3.78258C15.261 4.21661 16.1869 4.44323 17.1267 4.44323C18.0664 4.44322 18.9924 4.21659 19.8259 3.78255L19.8292 3.78077C21.1787 3.06503 22.7662 3.1377 23.974 3.94847C24.0977 4.03115 24.2184 4.11771 24.3358 4.20799C25.2665 4.92336 25.9961 5.87149 26.4488 6.9601ZM20.3103 17.0771L20.5626 15.1149H13.6505L13.9027 17.0771H20.3103ZM22.5202 19.3652L22.2559 20.4834H11.9572L11.6929 19.3652H22.5202ZM18.6451 30.0318L19.5784 22.7715H14.6347L15.568 30.0317C15.6222 30.4003 15.807 30.7372 16.0887 30.981C16.3714 31.2257 16.7327 31.3604 17.1065 31.3604C17.4804 31.3604 17.8417 31.2257 18.1244 30.981C18.4061 30.7372 18.5908 30.4003 18.6451 30.0318Z"/>
</svg>
