<svg width="34" height="34" viewBox="0 0 34 34" fill="none" xmlns="http://www.w3.org/2000/svg">
<path fill-rule="evenodd" clip-rule="evenodd" d="M10.5106 9.24123L12.6955 10.3113C13.3285 10.6211 13.8752 11.084 14.2855 11.6569C15.0093 12.6713 15.9306 13.1755 16.8642 13.1755C17.7977 13.1755 18.7197 12.6705 19.4434 11.6561C19.8537 11.0832 20.4 10.621 21.0329 10.3113L23.2177 9.24133C23.3942 9.12277 23.6024 9.05907 23.8159 9.05896C24.0473 9.05884 24.2726 9.13349 24.4582 9.27179C25.6583 10.1655 26.589 11.3732 27.1479 12.7612C27.7289 14.2082 27.8776 15.7934 27.5762 17.3232L25.2621 29.197C25.1221 29.9152 24.7458 30.5659 24.1932 31.0456C23.6406 31.5253 22.9435 31.8063 22.2127 31.8439C21.4819 31.8815 20.7596 31.6735 20.1607 31.2531C19.5618 30.8327 19.1207 30.224 18.9078 29.5239L17.4829 24.8402C17.4425 24.7075 17.3606 24.5913 17.2492 24.5087C17.1378 24.4262 17.0028 24.3816 16.8641 24.3816C16.7254 24.3816 16.5904 24.4262 16.479 24.5087C16.3676 24.5913 16.2857 24.7075 16.2453 24.8402L14.8204 29.5239C14.6075 30.224 14.1664 30.8327 13.5675 31.2531C12.9686 31.6735 12.2463 31.8815 11.5155 31.8439C10.7847 31.8063 10.0875 31.5253 9.53494 31.0456C8.98234 30.566 8.6061 29.9152 8.46612 29.197L6.15205 17.3231C5.85062 15.7932 5.99937 14.2082 6.58048 12.7612C7.13931 11.3731 8.07017 10.1654 9.27033 9.27169C9.45587 9.13349 9.68107 9.05889 9.91243 9.05898C10.1259 9.05907 10.334 9.12273 10.5106 9.24123ZM20.963 28.8988C21.0365 29.1401 21.1885 29.35 21.395 29.4949C21.6015 29.6398 21.8505 29.7115 22.1024 29.6986C22.3543 29.6856 22.5947 29.5887 22.7852 29.4234C22.9757 29.258 23.1054 29.0336 23.1537 28.786L25.4685 16.9089C25.6773 15.8624 25.5985 14.7789 25.2406 13.7736C24.9182 12.8684 24.3805 12.0572 23.6756 11.409L21.9776 12.2405C21.6647 12.3935 21.3943 12.6219 21.1913 12.9049C20.1126 14.4165 18.5424 15.3237 16.8642 15.3237C15.186 15.3237 13.6158 14.4166 12.5372 12.9049C12.3342 12.6219 12.0641 12.3937 11.7512 12.2407L10.0528 11.4089C9.34798 12.0572 8.81019 12.8684 8.48789 13.7735C8.1299 14.7788 8.05157 15.8646 8.26041 16.9111L10.5747 28.786C10.6229 29.0336 10.7526 29.258 10.9432 29.4234C11.1337 29.5887 11.374 29.6856 11.626 29.6986C11.8779 29.7115 12.1269 29.6398 12.3334 29.4949C12.5399 29.35 12.692 29.1401 12.7654 28.8988L14.1903 24.215C14.3647 23.6417 14.7187 23.1397 15.2001 22.7829C15.6816 22.4261 16.265 22.2335 16.8642 22.2335C17.4635 22.2335 18.0468 22.4261 18.5283 22.7829C19.0097 23.1397 19.3638 23.6417 19.5382 24.215L20.963 28.8988Z"/>
<path fill-rule="evenodd" clip-rule="evenodd" d="M8.98236 5.58557C8.8466 5.35756 8.79992 5.08714 8.85158 4.82684C8.90324 4.5665 9.04947 4.3345 9.26207 4.1756C9.38769 4.08169 9.49795 4.00323 9.60708 3.93019C11.0776 2.94712 12.9124 2.73545 14.6317 3.33246L14.6354 3.33379L14.7573 3.3772L14.7584 3.37762L14.7621 3.37896L14.7712 3.38236C15.0033 3.4694 15.2298 3.57055 15.4496 3.68529C15.8877 3.90837 16.3725 4.02466 16.8642 4.02465C17.3559 4.02464 17.8406 3.90832 18.2788 3.68521L18.3052 3.6715C18.5673 3.53641 18.8387 3.42049 19.1176 3.32467L19.1198 3.32392C19.1341 3.31907 19.1503 3.31388 19.1679 3.3088C20.8667 2.74209 22.6724 2.96149 24.1213 3.93024C24.2303 4.00322 24.3404 4.08158 24.4661 4.17556C24.6793 4.41116 25.0337 5.02301 24.7459 5.5856L24.7298 5.61263C24.6232 5.79175 24.4666 5.93601 24.2794 6.02769L21.9776 7.15499C21.6647 7.30797 21.3943 7.53636 21.1913 7.81938C20.1126 9.33099 18.5423 10.2381 16.8642 10.2381C15.186 10.2381 13.6159 9.33109 12.5372 7.81947C12.3341 7.53641 12.0641 7.30815 11.7511 7.15513L9.44892 6.02769C9.26168 5.936 9.10504 5.79163 8.99838 5.6125L8.98236 5.58557ZM14.285 6.57059C15.0087 7.585 15.9306 8.08997 16.8642 8.08997C17.7977 8.08997 18.7192 7.58568 19.4429 6.57125C19.7138 6.19307 20.044 5.86287 20.4193 5.59299C20.6125 5.45403 20.8177 5.33107 21.0328 5.22578L21.1823 5.15255C20.7238 5.1311 20.2613 5.19842 19.8212 5.35543L19.8146 5.35779C19.8016 5.36221 19.7888 5.36626 19.7762 5.37006C19.603 5.4316 19.4343 5.50521 19.2714 5.59036L19.2681 5.59209L19.2625 5.59497C18.5201 5.97475 17.6981 6.1728 16.8642 6.1728C16.0362 6.1728 15.2201 5.97758 14.4819 5.60313L14.4603 5.59208L14.4568 5.59031C14.3169 5.51714 14.1727 5.45248 14.0249 5.39673L13.9171 5.35829C13.4736 5.19836 13.007 5.12983 12.5445 5.15177L12.6956 5.22578C12.9171 5.33417 13.1279 5.46121 13.326 5.60511C13.6941 5.8725 14.0183 6.19812 14.285 6.57059Z"/>
</svg>
