<svg width="34" height="34" viewBox="0 0 34 34" fill="none" xmlns="http://www.w3.org/2000/svg">
<path fill-rule="evenodd" clip-rule="evenodd" d="M26.7621 7.01297C26.8243 6.90548 26.8758 6.79176 26.9158 6.67337L27.9029 3.75149C27.9769 3.53245 28.1178 3.34212 28.3056 3.20731C28.4934 3.07251 28.7188 3 28.95 3C29.1812 3 29.4066 3.07251 29.5945 3.20731C29.7823 3.34212 29.9231 3.53244 29.9972 3.75148L30.9843 6.67325C31.1349 7.12061 31.4489 7.49515 31.8633 7.72124L33.3281 8.5223C33.5021 8.61749 33.6474 8.75777 33.7485 8.92838C33.8497 9.09899 33.903 9.29368 33.903 9.49203C33.903 9.69038 33.8497 9.88507 33.7485 10.0557C33.6474 10.2263 33.5022 10.3666 33.3282 10.4617L31.8637 11.2626C31.4494 11.4887 31.1351 11.863 30.9845 12.3103L30.0077 15.2012L27.5125 27.928C27.366 28.679 26.9724 29.3601 26.3945 29.8617C25.8165 30.3635 25.0872 30.6574 24.3228 30.6968C23.5583 30.7361 22.8027 30.5186 22.1762 30.0789C21.5497 29.6391 21.0884 29.0024 20.8656 28.2701L19.3633 23.3318C19.319 23.1863 19.2292 23.059 19.1071 22.9685C18.9849 22.8779 18.8369 22.8291 18.6849 22.8291C18.5329 22.8291 18.3849 22.8779 18.2627 22.9685C18.1406 23.059 18.0508 23.1863 18.0065 23.3318L16.5042 28.27C16.2814 29.0023 15.8201 29.6391 15.1936 30.0788C14.5671 30.5186 13.8115 30.7361 13.0471 30.6968C12.2826 30.6574 11.5534 30.3635 10.9753 29.8617C10.3973 29.36 10.0037 28.6793 9.85731 27.928L9.06677 23.8716C9.01292 23.9161 8.95476 23.9556 8.89296 23.9894L7.70225 24.6406C7.41091 24.7995 7.18977 25.0628 7.08387 25.3773L6.28102 27.7536C6.20701 27.9726 6.06618 28.1629 5.87834 28.2977C5.6905 28.4325 5.46511 28.505 5.23391 28.505C5.0027 28.505 4.77731 28.4325 4.58948 28.2977C4.40164 28.1629 4.2608 27.9726 4.18679 27.7536L3.38398 25.3773C3.27807 25.0628 3.05694 24.7996 2.76559 24.6406L1.57487 23.9894C1.40086 23.8942 1.25566 23.754 1.15452 23.5833C1.05337 23.4127 1 23.218 1 23.0197C1 22.8213 1.05337 22.6266 1.15452 22.456C1.25566 22.2854 1.40087 22.1452 1.57489 22.05L2.76605 21.3984C3.05741 21.2395 3.27824 20.976 3.38415 20.6615L4.18679 18.2857C4.2608 18.0667 4.40164 17.8764 4.58948 17.7416C4.77731 17.6068 5.0027 17.5343 5.23391 17.5343C5.46511 17.5343 5.6905 17.6068 5.87834 17.7416C6.06618 17.8764 6.20701 18.0667 6.28102 18.2857L7.08369 20.6615C7.18959 20.976 7.41042 21.2395 7.70177 21.3984L8.69015 21.939L7.41739 15.4082C7.09497 13.7622 7.2665 12.0577 7.91042 10.5089C8.55431 8.96024 9.64178 7.63656 11.036 6.70435C12.8493 5.48721 15.1983 5.38854 17.1646 6.43039C17.6346 6.67323 18.1559 6.79996 18.6849 6.79996C19.214 6.79996 19.7353 6.67323 20.2053 6.4304C22.1717 5.3885 24.5208 5.48722 26.3342 6.70462L26.3353 6.70532C26.4807 6.80348 26.623 6.90608 26.7621 7.01297ZM9.58696 14.9846L12.0271 27.5051C12.0791 27.7721 12.219 28.0141 12.4244 28.1924C12.6299 28.3707 12.889 28.4752 13.1607 28.4892C13.4324 28.5032 13.7009 28.4259 13.9236 28.2696C14.1463 28.1133 14.3102 27.887 14.3894 27.6267L15.8917 22.6885C16.0739 22.0896 16.4437 21.5651 16.9466 21.1924C17.4495 20.8197 18.0589 20.6185 18.6849 20.6185C19.3109 20.6185 19.9203 20.8197 20.4232 21.1924C20.9261 21.5651 21.296 22.0896 21.4781 22.6885L22.9804 27.6267C23.0596 27.887 23.2236 28.1133 23.4462 28.2696C23.6689 28.4259 23.9375 28.5032 24.2091 28.4892C24.4808 28.4752 24.74 28.3707 24.9455 28.1924C25.1509 28.014 25.2908 27.7721 25.3428 27.5051L27.7938 14.9096L26.9158 12.3108C26.7652 11.8635 26.4512 11.4889 26.0368 11.2629L24.572 10.4618C24.3979 10.3666 24.2527 10.2263 24.1516 10.0557C24.0504 9.8851 23.997 9.69039 23.997 9.49203C23.997 9.29367 24.0504 9.09897 24.1516 8.92834C24.2527 8.75773 24.3979 8.61748 24.572 8.52231L24.8362 8.37777C23.7502 7.77843 22.4005 7.76826 21.2389 8.38448L21.2355 8.38628C20.4479 8.79639 19.573 9.01051 18.685 9.01051C17.797 9.01051 16.9221 8.79638 16.1345 8.38626L16.1311 8.3845C14.8723 7.71686 13.393 7.78457 12.2677 8.53998C11.2353 9.23005 10.4291 10.2106 9.95229 11.3572C9.47543 12.5039 9.34832 13.7659 9.58696 14.9846ZM28.9501 7.5469C28.6423 8.34477 28.0921 9.02475 27.3789 9.49204C28.0921 9.95932 28.6423 10.6393 28.9501 11.4372C29.5 10.4032 30.4986 9.49204 30.4986 9.49204C30.4986 9.49204 29.3638 8.92834 28.9501 7.5469ZM5.2339 21.9289C5.46396 22.3516 5.77829 22.7229 6.1574 23.0197C5.7783 23.3164 5.46398 23.6877 5.23393 24.1104C5.00387 23.6877 4.68955 23.3164 4.31044 23.0196C4.68953 22.7229 5.00385 22.3516 5.2339 21.9289Z"/>
</svg>
