<svg width="34" height="34" viewBox="0 0 34 34" fill="none" xmlns="http://www.w3.org/2000/svg">
<path fill-rule="evenodd" clip-rule="evenodd" d="M5.04243 15.7461L5.04329 15.7481C5.32274 16.4241 5.66513 17.0736 6.06521 17.686L6.09033 17.7245L6.08096 17.7695C5.70032 19.595 5.65639 21.4747 5.95133 23.3161C6.09972 24.2425 6.37565 25.1932 6.61166 25.9065C6.73011 26.2646 6.83945 26.5656 6.91934 26.7776C6.9593 26.8837 6.99195 26.9676 7.01474 27.0253L7.04052 27.09L7.04801 27.1085L7.05415 27.1235L7.05917 27.1343C7.6316 28.3662 8.37619 29.5105 9.27061 30.5328L9.27486 30.5377C9.57996 30.8977 9.97087 31.1751 10.4116 31.344L10.414 31.3449C10.8445 31.5074 11.3089 31.5592 11.7647 31.4955C12.2209 31.4317 12.6538 31.2543 13.0236 30.9795L13.0316 30.9735C13.4534 30.676 13.7952 30.2787 14.0262 29.8168C14.255 29.3591 14.368 28.8524 14.3554 28.3412L14.355 28.3245L14.3535 28.3078C14.2074 26.7144 14.6357 25.1211 15.5615 23.8156L15.5629 23.8136L15.5644 23.8118C15.8916 23.3896 16.3643 23.1042 16.8903 23.0112L16.8999 23.0095H16.9096C17.2118 23.0095 17.4905 23.1564 17.7193 23.3284C17.9495 23.5014 18.1426 23.7103 18.2727 23.8522L18.2779 23.8579L18.2823 23.8643C19.1869 25.1777 19.5938 26.7703 19.4303 28.3562L19.4286 28.3731L19.428 28.3901C19.4104 28.8972 19.5164 29.4012 19.7371 29.8583C19.9609 30.3219 20.2957 30.7231 20.7118 31.0263L20.7159 31.0293C21.1813 31.3774 21.7452 31.5682 22.326 31.5743L22.3503 31.5745L22.3745 31.5724C22.7005 31.5441 23.0191 31.4599 23.3167 31.3235L23.3191 31.3224L23.3215 31.3214C23.7637 31.1439 24.156 30.8614 24.4646 30.4984L24.468 30.4945L24.4688 30.4935C25.9875 28.783 27.0761 26.7348 27.644 24.5189L27.645 24.5147C28.193 22.2961 28.2331 19.9823 27.7621 17.746L27.7526 17.7011L27.7775 17.6627C28.776 16.1205 29.4297 14.3808 29.6939 12.5626C29.8019 12.0095 29.8075 11.2312 29.7772 10.5081C29.7465 9.77571 29.677 9.06392 29.6217 8.62651L29.6182 8.59906L29.6117 8.57215C29.3524 7.49676 28.8553 6.49317 28.1569 5.63527C27.457 4.77557 26.5726 4.08407 25.5696 3.61204L25.5687 3.61161C24.7243 3.20914 23.8002 3 22.8647 3C21.9319 3 21.0109 3.2077 20.1684 3.60796L20.1619 3.61107L19.6364 3.87947L19.6247 3.88582C19.134 4.15328 18.6592 4.44888 18.2027 4.7714L18.192 4.77944C17.8201 5.05747 17.3682 5.20778 16.9037 5.20778C16.4382 5.20778 15.9854 5.05678 15.6131 4.77761L15.6062 4.77262C15.1521 4.44408 14.6759 4.14734 14.1808 3.88465L13.6456 3.61115L13.6383 3.60769C12.6487 3.14168 11.5546 2.94158 10.464 3.0272C9.37032 3.11306 8.31811 3.48323 7.41161 4.10103L7.41045 4.10182C6.28302 4.87482 5.37702 5.92888 4.78214 7.15965C4.18716 8.39065 3.92406 9.75572 4.01891 11.1197L4.01943 11.1272L4.01915 11.2548L4.01976 11.2674C4.09401 12.8089 4.44022 14.3251 5.04243 15.7461ZM8.96056 9.31135C9.16219 9.10971 9.43566 8.99644 9.72081 8.99644H14.4659C14.7511 8.99644 15.0245 9.10971 15.2262 9.31135C15.4278 9.51298 15.5411 9.78645 15.5411 10.0716V11.369H18.1358V10.0716C18.1358 9.78645 18.2491 9.51298 18.4508 9.31135C18.6524 9.10971 18.9259 8.99644 19.211 8.99644H23.9561C24.2413 8.99644 24.5147 9.10971 24.7164 9.31135C24.918 9.51298 25.0313 9.78645 25.0313 10.0716V11.369H27.6676C27.7078 10.824 27.7383 9.88037 27.5421 9.1289C27.3091 8.2368 27.0116 7.64598 26.5245 7.03559C26.0367 6.42426 25.4198 5.92831 24.718 5.58321L24.7169 5.58265C24.1583 5.31192 23.5448 5.1709 22.924 5.1709C22.305 5.1709 21.6939 5.31064 21.1367 5.57985L20.6946 5.80671L20.6887 5.80992C20.2759 6.03188 19.8771 6.27887 19.4947 6.54967L19.489 6.55388C19.0925 6.84693 18.6511 7.06751 18.1852 7.20892C17.7837 7.33076 17.3641 7.39383 16.9393 7.39383C16.0231 7.39383 15.1311 7.10041 14.3938 6.55686L14.3878 6.55263C14.0054 6.28154 13.6067 6.03413 13.194 5.81201L12.7547 5.58618L12.7466 5.58231C12.6805 5.55041 12.6137 5.5203 12.5462 5.492C11.937 5.23658 11.2748 5.12878 10.614 5.17887C9.88101 5.23443 9.1756 5.4823 8.569 5.89748L8.56552 5.89993C7.75401 6.47068 7.10447 7.24223 6.6804 8.13914C6.26186 9.02435 6.07707 10.0018 6.14333 10.9783L6.14534 11.0079L6.14382 11.0376C6.13995 11.1136 6.14069 11.1898 6.14606 11.2657L6.15335 11.369H8.64565V10.0716C8.64565 9.78645 8.75892 9.51298 8.96056 9.31135ZM25.7288 16.8655C25.6394 16.9906 25.5778 17.1335 25.5483 17.2847C25.5188 17.4357 25.5221 17.5914 25.558 17.7412L25.5591 17.7455C26.0708 19.7994 26.0707 21.9476 25.5586 24.0015C25.084 25.903 24.1555 27.6616 22.8528 29.1259C22.7665 29.2229 22.6583 29.2981 22.5374 29.3453L22.5327 29.3471C22.4306 29.3845 22.3205 29.395 22.2131 29.3775C22.1059 29.3601 22.005 29.3153 21.9201 29.2476L21.9157 29.2441C21.7879 29.1445 21.6862 29.0154 21.6193 28.8678C21.5521 28.7195 21.5221 28.5571 21.5319 28.3946L21.532 28.3926L21.5322 28.389L21.5324 28.3873C21.7712 26.227 21.1506 24.0594 19.8047 22.3529L19.7967 22.3434C19.4405 21.9141 19.001 21.5613 18.5048 21.3063C18.02 21.0571 17.4908 20.9063 16.9478 20.8624L16.9092 20.8592L16.8706 20.8621C16.3168 20.903 15.7768 21.0557 15.2833 21.3112C14.7769 21.5733 14.3306 21.9379 13.9727 22.3818L13.9702 22.3848C12.627 24.0777 11.9937 26.2261 12.2039 28.3769L12.2041 28.3788L12.2043 28.3808C12.2144 28.5439 12.1844 28.707 12.117 28.8559C12.0496 29.0047 11.946 29.1353 11.8168 29.2352C11.7307 29.3012 11.6294 29.3449 11.5226 29.3623C11.4155 29.3797 11.3056 29.3703 11.203 29.335L11.1933 29.3316C11.0739 29.285 10.9684 29.2076 10.8873 29.1074L10.8801 29.0985L10.8726 29.0899C10.1145 28.2352 9.48882 27.2715 9.01651 26.2313L9.01195 26.2207L9.01057 26.2174L8.98981 26.1681C8.9715 26.1242 8.94481 26.0589 8.9118 25.9749C8.84532 25.8057 8.75339 25.5609 8.65275 25.2613C8.45098 24.6605 8.21663 23.8465 8.08074 22.9837C7.808 21.2519 7.88119 19.4832 8.29609 17.7798L8.29704 17.7759C8.33451 17.6269 8.33964 17.4716 8.31197 17.3203C8.28453 17.1703 8.22556 17.0278 8.13885 16.9023L8.13314 16.8944C7.6766 16.2608 7.2913 15.578 6.98481 14.8597L6.98421 14.8583C6.8205 14.4679 6.68058 14.068 6.56518 13.6607L6.52512 13.5193H8.64565V16.003C8.64565 16.2881 8.75892 16.5616 8.96056 16.7632C9.16219 16.9649 9.43566 17.0781 9.72081 17.0781H14.4659C14.7511 17.0781 15.0245 16.9649 15.2262 16.7632C15.4278 16.5616 15.5411 16.2881 15.5411 16.003V13.5193H18.1358V16.003C18.1358 16.2881 18.2491 16.5616 18.4507 16.7632C18.6524 16.9649 18.9259 17.0781 19.211 17.0781H23.9561C24.2413 17.0781 24.5147 16.9649 24.7164 16.7632C24.918 16.5616 25.0313 16.2881 25.0313 16.003V13.5193H27.2941L27.2541 13.6607C26.9299 14.8056 26.4151 15.8877 25.7315 16.8616L25.7288 16.8655ZM20.2862 14.9278H22.8809V11.1468H20.2862V14.9278ZM13.3907 14.9278H10.796V11.1468H13.3907V14.9278Z"/>
</svg>
