<svg width="34" height="34" viewBox="0 0 34 34" fill="none" xmlns="http://www.w3.org/2000/svg">
<path fill-rule="evenodd" clip-rule="evenodd" d="M18.4594 10.9317C18.4372 10.9435 18.4145 10.9546 18.3914 10.9648C18.2527 11.0267 18.1027 11.059 17.9508 11.0597C17.6803 11.0584 17.4153 10.9566 17.2157 10.7755L11.3823 5.44992C11.1764 5.25623 11.0535 4.99031 11.0393 4.70789C11.0251 4.42727 11.1195 4.1521 11.3026 3.93926L11.6905 3.51672C12.1347 3.02507 12.6743 2.62536 13.2744 2.34452C13.8746 2.0637 14.5252 1.9056 15.1873 1.87954C16.2666 1.83808 17.3488 2.15679 18.241 2.76574L20.7405 1.1751C20.9164 1.06151 21.1229 1.00075 21.3322 1L24.7144 1C25.0046 1 25.2829 1.1153 25.4882 1.32053C25.6934 1.52575 25.8087 1.80409 25.8087 2.09433V17.409L26.1849 17.5394C27.1792 17.8833 28.2119 18.2407 29.3497 18.7139C29.7959 18.9046 30.192 19.1958 30.507 19.5649C30.8215 19.9334 31.0488 20.3787 31.1671 20.8485C31.2914 21.3845 31.2714 21.9438 31.1092 22.4696C30.9466 22.9965 30.6471 23.4707 30.2411 23.8438C29.6899 24.3563 28.965 24.6441 28.2125 24.648C27.8755 24.6466 27.5356 24.5898 27.2172 24.4806L21.7925 22.6311C21.361 22.4949 20.8655 22.3987 20.4153 22.354L21.9599 27.0221C25.2394 28.1429 25.4956 30.5091 25.4956 31.4112C25.4956 32.3133 24.7878 32.5047 24.5227 32.5H6.48011C5.66419 32.5 5.41059 31.7756 5.38578 31.4133C5.38098 30.2943 5.79543 29.214 6.54748 28.3853C7.29953 27.5566 8.3809 27.0397 9.49518 26.9362L7.80274 21.9675C7.03253 21.594 6.41019 20.9714 6.03648 20.2013L4.03212 16.1019L2.37153 12.7248C1.95248 11.8695 1.88508 10.8841 2.18376 9.97965C2.48244 9.07525 3.12388 8.32358 3.96989 7.88606C4.38534 7.67171 4.83979 7.54342 5.30601 7.50888C5.77169 7.47439 6.24185 7.53493 6.68387 7.68533C7.1343 7.83469 7.55023 8.07278 7.90713 8.38555C8.26364 8.69798 8.55401 9.07859 8.76114 9.50495L11.3337 14.7291C11.4674 15.0061 11.676 15.2401 11.9359 15.4045C12.196 15.5691 12.4953 15.6575 12.8031 15.6596H19.5729C20.6341 15.6578 21.6931 15.8665 22.6755 16.2676C22.8924 16.3604 23.1082 16.4409 23.318 16.5191L23.3189 16.5195C23.3647 16.5366 23.423 16.5627 23.48 16.5882C23.531 16.6111 23.581 16.6334 23.62 16.6484V3.18866H21.6487L19.0477 4.84695L18.8843 4.84393C18.6819 5.0316 18.4161 5.13588 18.1401 5.13588C17.8658 5.13588 17.6016 5.03289 17.3997 4.8474L17.3937 4.84176C16.9089 4.38135 16.2793 4.1035 15.6123 4.05571C14.9442 4.00784 14.2465 4.21779 13.7005 4.60579L17.8429 8.38201C18.0277 8.08243 18.1736 7.7105 18.2299 7.36305C18.2787 7.07856 18.438 6.82484 18.6731 6.6572C18.9087 6.4892 19.2036 6.42176 19.4891 6.46891C19.7743 6.51743 20.0286 6.67687 20.1966 6.91241C20.3645 7.14786 20.4323 7.44016 20.3854 7.72544C20.2229 8.67872 19.7846 9.57799 19.1377 10.2967L18.7581 10.6986C18.6727 10.7932 18.5716 10.872 18.4594 10.9317ZM12.07 3.84256C12.0567 3.85691 12.0435 3.87132 12.0304 3.88577L12.0601 3.85351L12.0631 3.85017C12.0654 3.84763 12.0677 3.8451 12.07 3.84256ZM21.3514 1.5C21.3513 1.5 21.3514 1.5 21.3514 1.5V1.5ZM29.9045 23.474C29.9036 23.4749 29.9027 23.4757 29.9018 23.4766L29.8993 23.4789C29.901 23.4773 29.9028 23.4756 29.9045 23.474ZM21.9539 22.1577L21.9429 22.1542C21.4786 22.0077 21.0003 21.9096 20.5158 21.8615C21.0001 21.9096 21.4897 22.0113 21.9539 22.1577ZM4.96469 9.83446C4.6306 10.0116 4.37866 10.312 4.26231 10.6718C4.14604 11.0314 4.17433 11.4221 4.34115 11.7612L4.3418 11.7625L5.99048 15.1385L5.99108 15.1397L8.00778 19.2411C8.13848 19.5174 8.34449 19.7512 8.60222 19.9156C8.86078 20.0805 9.16076 20.1688 9.46742 20.1702L19.8542 20.1702C20.7378 20.1624 21.6172 20.2986 22.457 20.5736L22.4652 20.5763L27.8987 22.425C28.0348 22.4744 28.1814 22.4877 28.3241 22.4632C28.4668 22.4387 28.6004 22.3777 28.712 22.2863L28.7169 22.282C28.7353 22.2659 28.753 22.249 28.77 22.2315C28.8697 22.1284 28.9434 22.0024 28.9842 21.8641C29.0308 21.7062 29.0326 21.5386 28.9896 21.3798L28.9868 21.3693L28.9844 21.3587C28.9539 21.2226 28.8914 21.0956 28.802 20.9884C28.7106 20.8787 28.5939 20.7929 28.4619 20.7385L28.4572 20.7366C27.9054 20.5024 27.3551 20.2918 26.8238 20.0987C26.363 19.9311 25.9165 19.7766 25.4956 19.631C25.3522 19.5814 25.2116 19.5328 25.0749 19.4852C24.8699 19.4138 24.6615 19.3425 24.4489 19.2697L24.4464 19.2689C23.6147 18.9843 22.7227 18.6791 21.8244 18.2932L21.8174 18.2904C21.0963 18.0027 20.3276 17.8527 19.5512 17.8482H12.7837C10.7135 17.8482 9.6339 16.4113 9.35287 15.6928L6.79007 10.4653C6.71479 10.3031 6.60783 10.1575 6.47545 10.0372C6.34174 9.91569 6.18486 9.82244 6.01423 9.76304C5.8436 9.70364 5.66272 9.67933 5.48246 9.69155C5.3034 9.7037 5.12869 9.75157 4.96869 9.83234L4.96469 9.83446ZM19.6184 26.9362H11.7786L10.2567 22.3589H18.0965L19.6184 26.9362ZM22.2827 29.432C22.6302 29.6329 22.9476 29.9716 23.1483 30.3192H7.8545C8.05517 29.9716 8.37258 29.6329 8.72006 29.432C9.06753 29.2312 9.46171 29.1252 9.86305 29.1248H21.1392C21.5406 29.1252 21.9353 29.2312 22.2827 29.432Z"/>
</svg>
