<svg width="34" height="34" viewBox="0 0 34 34" fill="none" xmlns="http://www.w3.org/2000/svg">
<path fill-rule="evenodd" clip-rule="evenodd" d="M30.2949 17.1768L31.4702 23.3634C31.513 23.5887 31.4873 23.8216 31.3964 24.0321C31.3055 24.2426 31.1537 24.4211 30.9604 24.5444C27.0484 27.0408 21.9993 28.4039 16.7452 28.4039C11.4911 28.4039 6.44199 27.0408 2.53001 24.5445C2.33674 24.4211 2.18483 24.2426 2.09396 24.0321C2.00309 23.8216 1.97739 23.5887 2.02017 23.3634L3.19548 17.1768L2.01526 10.0128C1.97876 9.79129 2.00807 9.56388 2.09957 9.35885C2.19107 9.15383 2.34074 8.98017 2.53001 8.8594C6.44199 6.36303 11.4911 5 16.7452 5C21.9993 5 27.0484 6.36301 30.9603 8.8594C31.1496 8.98017 31.2993 9.15383 31.3908 9.35885C31.4823 9.56388 31.5116 9.79129 31.4751 10.0128L30.2949 17.1768ZM27.2391 15.9602V14.7411C27.2394 14.5642 27.2049 14.389 27.1375 14.2255C27.0701 14.062 26.971 13.9134 26.8461 13.7882C26.7212 13.6631 26.5728 13.5637 26.4094 13.496C26.2461 13.4282 26.0709 13.3933 25.8941 13.3933C25.7172 13.3933 25.5421 13.4282 25.3787 13.496C25.2154 13.5637 25.067 13.6631 24.942 13.7882C24.8171 13.9134 24.7181 14.062 24.6507 14.2255C24.585 14.3847 24.5506 14.555 24.5492 14.7271V15.9602H27.2391ZM15.4342 20.3246L15.4342 20.3225L15.4342 18.2544H10.9528V20.3246C10.9515 20.6197 11.0086 20.9121 11.1206 21.185C11.2327 21.4579 11.3975 21.7061 11.6057 21.9151C11.8139 22.1242 12.0614 22.2901 12.3338 22.4033C12.6063 22.5165 12.8984 22.5748 13.1935 22.5748C13.4885 22.5748 13.7807 22.5165 14.0532 22.4033C14.3256 22.2901 14.5731 22.1242 14.7812 21.9151C14.9894 21.7061 15.1543 21.4579 15.2663 21.185C15.3784 20.9121 15.4354 20.6197 15.4342 20.3246ZM8.65867 15.9602L8.65867 14.7411C8.65904 14.5642 8.62452 14.389 8.5571 14.2255C8.48967 14.062 8.39066 13.9134 8.26573 13.7882C8.1408 13.6631 7.99241 13.5637 7.82904 13.496C7.66568 13.4282 7.49055 13.3933 7.31369 13.3933C7.13683 13.3933 6.96171 13.4282 6.79835 13.496C6.63498 13.5637 6.48659 13.6631 6.36166 13.7882C6.23673 13.9134 6.13772 14.062 6.07029 14.2255C6.00287 14.389 5.96835 14.5642 5.96872 14.7411L5.96873 14.7422L5.96872 15.9602H8.65867ZM4.42214 23.0116C7.8523 25.0075 12.1937 26.1097 16.7452 26.1097C21.2966 26.1097 25.6381 25.0075 29.0682 23.0116L28.8098 21.6514C28.7697 21.7051 28.7279 21.7579 28.6847 21.8095C28.2589 22.318 27.7021 22.7005 27.0746 22.9153C26.4471 23.1302 25.7728 23.1694 25.1246 23.0286C24.6976 22.9359 24.2927 22.7673 23.9283 22.5328C23.6304 23.067 23.2262 23.5375 22.7382 23.9139C22.074 24.4262 21.2806 24.7441 20.4465 24.8323C19.6123 24.9204 18.77 24.7753 18.0134 24.4131C17.4669 24.1515 16.9805 23.784 16.5813 23.3344C16.1842 23.7817 15.7009 24.1477 15.1578 24.409C14.4049 24.7714 13.5664 24.9186 12.7351 24.8342C11.9037 24.7499 11.1119 24.4373 10.4471 23.9311C9.95582 23.557 9.54807 23.0879 9.24663 22.5542C8.93241 22.7516 8.58872 22.9005 8.22706 22.9945C7.65085 23.1443 7.04667 23.1503 6.46758 23.012C5.8885 22.8737 5.35223 22.5954 4.90587 22.2014C4.80816 22.1151 4.71541 22.0239 4.62794 21.9282L4.42214 23.0116ZM17.7736 13.893V15.9602H22.255V13.8933C22.2523 13.3009 22.0151 12.7338 21.5954 12.3158C21.1754 11.8976 20.6069 11.6628 20.0143 11.6628C19.4217 11.6628 18.8531 11.8976 18.4332 12.3158C18.1221 12.6255 17.9114 13.0172 17.822 13.4404C17.7907 13.5881 17.7743 13.7397 17.7736 13.893ZM8.26375 20.4206C8.5158 20.169 8.65782 19.8278 8.65867 19.4718V18.2543H5.96873V19.4719C5.96962 19.8279 6.11163 20.1691 6.36366 20.4206C6.61581 20.6722 6.95748 20.8135 7.3137 20.8135C7.66992 20.8135 8.0116 20.6722 8.26375 20.4206ZM27.2391 18.2543L27.2391 19.4713C27.2381 19.8272 27.0961 20.1691 26.8441 20.4205C26.592 20.6722 26.2503 20.8135 25.8941 20.8135C25.5379 20.8135 25.1962 20.6722 24.944 20.4205C24.6921 20.1691 24.5501 19.828 24.5491 19.4721V18.2543H27.2391ZM15.4795 15.9602L15.4795 13.8929C15.4786 13.4344 15.3372 12.9903 15.0793 12.6187C15.0033 12.5094 14.9173 12.4063 14.8218 12.3109C14.4017 11.8915 13.8323 11.656 13.2387 11.656C12.9499 11.656 12.6668 11.7117 12.4039 11.8173C12.1264 11.9287 11.8713 12.0956 11.6556 12.3109C11.2355 12.7303 10.999 13.2993 10.998 13.8929V15.9602H15.4795ZM28.7439 12.4783C28.7062 12.4308 28.6672 12.3842 28.6271 12.3386C28.1997 11.8524 27.6502 11.4891 27.0354 11.2862C26.4207 11.0833 25.7629 11.0482 25.1301 11.1845C24.7141 11.2741 24.3187 11.4357 23.9612 11.6603C23.6598 11.1266 23.252 10.6575 22.7608 10.2834C22.0959 9.77721 21.3041 9.46465 20.4728 9.3803C19.6414 9.29595 18.803 9.4431 18.05 9.80548C17.5069 10.0668 17.0236 10.4328 16.6265 10.8801C16.2273 10.4305 15.741 10.063 15.1944 9.8014C14.4378 9.43921 13.5956 9.29411 12.7614 9.38225C11.9272 9.47038 11.1338 9.78831 10.4696 10.3006C10.1961 10.5116 9.94889 10.7521 9.73197 11.0169C9.5619 11.2244 9.41045 11.4469 9.27952 11.6816C8.97616 11.4863 8.64436 11.3366 8.29461 11.2384C7.7271 11.0791 7.12934 11.0601 6.55286 11.1831C5.97638 11.3062 5.43846 11.5676 4.98547 11.9447C4.8861 12.0275 4.79146 12.1153 4.70189 12.2076L4.40452 10.4025C4.78393 10.1812 5.17451 9.9708 5.57533 9.77168C8.80118 8.16907 12.6897 7.29409 16.7452 7.29409C21.3045 7.29409 25.6529 8.39999 29.0858 10.4025L28.7439 12.4783ZM17.7283 18.2543H22.2098V20.3225C22.2103 20.617 22.1527 20.9097 22.0403 21.182C21.9279 21.4543 21.763 21.7018 21.5548 21.9102C21.3467 22.1187 21.0995 22.2841 20.8274 22.397C20.5553 22.5098 20.2636 22.5679 19.9691 22.5679C19.6745 22.5679 19.3828 22.5098 19.1107 22.397C18.8386 22.2841 18.5914 22.1187 18.3833 21.9102C18.1751 21.7018 18.0102 21.4543 17.8978 21.182C17.7854 20.9097 17.7278 20.617 17.7283 20.3225L17.7283 18.2543Z"/>
</svg>
