<svg width="60" height="60" viewBox="0 0 60 60" fill="none" xmlns="http://www.w3.org/2000/svg">
<path d="M54.4539 30.9023L56.6938 17.3057C56.7324 17.0713 56.7014 16.8309 56.6046 16.614C56.5078 16.3972 56.3495 16.2135 56.1493 16.0858C48.9855 11.5142 39.6989 8.99658 30.0002 8.99658C20.3016 8.99658 11.015 11.5142 3.85112 16.0858C3.65092 16.2135 3.49262 16.3972 3.39584 16.614C3.29906 16.8309 3.26806 17.0713 3.30668 17.3057L5.54661 30.9023L3.31189 42.6655C3.26664 42.9037 3.29382 43.1501 3.38994 43.3728C3.48606 43.5954 3.64669 43.7842 3.85112 43.9146C11.015 48.4862 20.3016 51.0038 30.0002 51.0038C39.6989 51.0038 48.9855 48.4862 56.1494 43.9146C56.3538 43.7842 56.5144 43.5954 56.6106 43.3728C56.7067 43.1501 56.7339 42.9037 56.6886 42.6655L54.4539 30.9023ZM30.0002 48.5773C21.0707 48.5773 12.5323 46.3533 5.85091 42.3012L6.80754 37.2656C7.14573 38.167 7.70009 38.9717 8.42193 39.6088C9.14378 40.246 10.011 40.6961 10.9475 40.9198C11.884 41.1434 12.8611 41.1337 13.7929 40.8914C14.7248 40.6492 15.5829 40.1818 16.2919 39.5305C16.7964 40.8299 17.6503 41.9645 18.7593 42.809C19.8682 43.6534 21.1891 44.1748 22.5759 44.3155C23.9627 44.4562 25.3614 44.2108 26.6174 43.6063C27.8734 43.0018 28.9378 42.0618 29.693 40.8902C30.4511 42.0663 31.5208 43.0089 32.7829 43.6131C34.0451 44.2173 35.4501 44.4593 36.8416 44.3123C38.2332 44.1652 39.5566 43.6349 40.6646 42.7803C41.7726 41.9256 42.6216 40.7803 43.1172 39.4717C43.8964 40.2089 44.8624 40.7189 45.9106 40.9466C46.9589 41.1743 48.0494 41.1109 49.0642 40.7634C50.079 40.4159 50.9795 39.7975 51.6681 38.975C52.3567 38.1526 52.8073 37.1575 52.971 36.0974L54.1496 42.3012C47.4682 46.3533 38.9298 48.5773 30.0002 48.5773ZM30.991 24.7316C30.9968 23.3725 31.5407 22.0709 32.5038 21.1119C33.4669 20.1528 34.7707 19.6144 36.1298 19.6144C37.489 19.6144 38.7928 20.1528 39.7559 21.1119C40.719 22.0709 41.2629 23.3725 41.2687 24.7316V29.4147C41.2678 29.4495 41.2536 29.4826 41.229 29.5072C41.2043 29.5319 41.1712 29.5461 41.1364 29.547H31.1233C31.0885 29.5461 31.0554 29.5319 31.0307 29.5072C31.0061 29.4826 30.9919 29.4495 30.991 29.4147V24.7316ZM43.6951 26.3256C43.6942 25.8707 43.7829 25.4201 43.9564 24.9996C44.1298 24.579 44.3845 24.1968 44.7058 23.8748C45.0271 23.5528 45.4088 23.2974 45.8289 23.1231C46.2491 22.9488 46.6996 22.859 47.1544 22.859C47.6093 22.859 48.0598 22.9488 48.4799 23.1231C48.9001 23.2974 49.2818 23.5528 49.6031 23.8748C49.9244 24.1968 50.1791 24.579 50.3525 24.9996C50.5259 25.4201 50.6147 25.8707 50.6138 26.3256V29.547H43.6952V26.3256H43.6951ZM28.4796 36.7888C28.4825 37.4655 28.3517 38.136 28.0947 38.762C27.8377 39.388 27.4597 39.957 26.9822 40.4365C26.5047 40.916 25.9373 41.2964 25.3124 41.556C24.6875 41.8156 24.0175 41.9493 23.3408 41.9493C22.6642 41.9493 21.9942 41.8156 21.3693 41.556C20.7444 41.2964 20.1769 40.916 19.6995 40.4365C19.222 39.957 18.8439 39.388 18.587 38.762C18.33 38.136 18.1992 37.4655 18.202 36.7888V32.1057C18.2029 32.0709 18.2171 32.0378 18.2417 32.0132C18.2664 31.9886 18.2995 31.9744 18.3343 31.9735H28.3475C28.3823 31.9744 28.4154 31.9886 28.44 32.0132C28.4646 32.0378 28.4788 32.0709 28.4797 32.1057L28.4796 36.7888ZM15.7756 35.1948C15.7736 36.111 15.4083 36.9891 14.7598 37.6362C14.1112 38.2834 13.2324 38.6469 12.3162 38.6469C11.4 38.6469 10.5212 38.2834 9.87268 37.6362C9.22414 36.9891 8.85883 36.111 8.85691 35.1948V31.9735H15.7756V35.1948ZM30.9061 32.1056C30.907 32.0708 30.9212 32.0377 30.9458 32.0131C30.9704 31.9885 31.0036 31.9743 31.0384 31.9734H41.0518C41.0865 31.9743 41.1196 31.9885 41.1442 32.0131C41.1688 32.0377 41.183 32.0708 41.1839 32.1056V36.7887C41.185 37.4643 41.053 38.1335 40.7952 38.758C40.5375 39.3825 40.1592 39.95 39.6819 40.4281C39.2046 40.9062 38.6377 41.2856 38.0136 41.5444C37.3896 41.8032 36.7206 41.9364 36.045 41.9364C35.3694 41.9364 34.7005 41.8032 34.0764 41.5444C33.4524 41.2856 32.8855 40.9062 32.4082 40.4281C31.9309 39.95 31.5525 39.3825 31.2948 38.758C31.0371 38.1335 30.905 37.4643 30.9062 36.7887L30.9061 32.1056ZM43.6951 31.9734H50.6138V35.1948C50.6118 36.111 50.2465 36.989 49.598 37.6362C48.9495 38.2834 48.0707 38.6468 47.1544 38.6468C46.2382 38.6468 45.3594 38.2834 44.7109 37.6362C44.0624 36.989 43.697 36.111 43.6951 35.1948V31.9734ZM28.5646 29.4147C28.5637 29.4495 28.5495 29.4826 28.5249 29.5073C28.5002 29.5319 28.4671 29.5461 28.4323 29.547H18.419C18.3842 29.5461 18.351 29.5319 18.3264 29.5073C18.3018 29.4826 18.2876 29.4495 18.2867 29.4147V24.7316C18.2891 23.3702 18.8315 22.0654 19.795 21.1036C20.7585 20.1417 22.0642 19.6015 23.4256 19.6015C24.787 19.6015 26.0928 20.1417 27.0563 21.1036C28.0198 22.0654 28.5622 23.3702 28.5646 24.7316V29.4147ZM15.7756 29.547H8.85689V26.3256C8.85594 25.8707 8.94472 25.4201 9.11814 24.9996C9.29156 24.579 9.54622 24.1968 9.86754 23.8748C10.1889 23.5528 10.5705 23.2974 10.9907 23.1231C11.4109 22.9488 11.8613 22.859 12.3162 22.859C12.7711 22.859 13.2215 22.9488 13.6417 23.1231C14.0619 23.2974 14.4436 23.5528 14.7649 23.8748C15.0862 24.1968 15.3409 24.579 15.5143 24.9996C15.6877 25.4201 15.7765 25.8707 15.7755 26.3256L15.7756 29.547ZM52.9327 25.2088C52.7347 24.1807 52.2659 23.2242 51.5747 22.4379C50.8835 21.6516 49.9949 21.0641 49.0007 20.736C48.0065 20.4079 46.9428 20.3511 45.9193 20.5716C44.8959 20.792 43.9498 21.2816 43.1789 21.9899C42.6744 20.6905 41.8205 19.5559 40.7115 18.7114C39.6025 17.867 38.2816 17.3456 36.8949 17.2049C35.5081 17.0641 34.1094 17.3096 32.8534 17.9141C31.5974 18.5186 30.533 19.4586 29.7778 20.6302C29.0196 19.4541 27.95 18.5115 26.6878 17.9073C25.4257 17.3031 24.0207 17.0611 22.6291 17.2081C21.2376 17.3551 19.9141 17.8855 18.8061 18.7401C17.6982 19.5947 16.8491 20.74 16.3534 22.0486C15.6611 21.3934 14.8197 20.9164 13.902 20.6587C12.9842 20.401 12.0176 20.3703 11.0853 20.5693C10.1531 20.7683 9.28322 21.191 8.55067 21.8009C7.81813 22.4109 7.24488 23.1898 6.88034 24.0706L5.83256 17.7102C12.5168 13.6509 21.0623 11.423 30.0002 11.423C38.9381 11.423 47.4837 13.6508 54.1679 17.7102L52.9327 25.2088Z" fill="#12A4B6" fill-opacity="0.8"/>
</svg>
