<svg width="60" height="60" viewBox="0 0 60 60" fill="none" xmlns="http://www.w3.org/2000/svg">
<path d="M58.1599 22.4577C58.0907 22.4509 51.1548 21.7008 43.7909 14.8581H43.7908C40.4736 11.776 35.3024 12.4495 32.8421 14.1226L32.8023 14.1495C31.1002 15.2943 28.9004 15.2943 27.2001 14.1509L27.1556 14.1208C24.6978 12.4495 19.5267 11.7758 16.2095 14.8582C12.3958 18.4019 8.69446 20.2787 6.26106 21.229C3.61673 22.2617 1.85135 22.4566 1.84034 22.4579L0 22.638L0.274165 24.4666C0.309417 24.7018 1.18496 30.2912 5.29123 35.9081C7.7134 39.2215 10.7605 41.8622 14.3479 43.7571C18.7904 46.1036 24.0565 47.2934 30.0001 47.2934C35.9436 47.2934 41.2098 46.1036 45.6522 43.7571C49.2396 41.8622 52.2867 39.2214 54.7089 35.9081C58.815 30.2912 59.6906 24.7018 59.7258 24.4666L60 22.638L58.1599 22.4577ZM43.9278 40.6942C40.0136 42.7417 35.3276 43.7798 30.0001 43.7798C24.6725 43.7798 19.9865 42.7417 16.0723 40.6942C12.9673 39.07 10.3234 36.8017 8.21406 33.9522C7.31732 32.7409 6.59214 31.523 6.00809 30.3743C6.79604 30.9033 7.68845 31.4553 8.68837 32.0061C12.9632 34.3606 20.1306 37.1673 30.0001 37.1673C39.8695 37.1673 47.0369 34.3606 51.3117 32.0061C52.3117 31.4553 53.204 30.9034 53.9919 30.3744C53.4079 31.5231 52.6828 32.7409 51.7861 33.9522C49.6767 36.8018 47.0327 39.0701 43.9278 40.6942ZM25.1827 17.0281L25.2371 17.0648C28.1307 19.0107 31.8698 19.0107 34.7615 17.0658L34.8204 17.0261C36.0578 16.1844 39.4082 15.5821 41.3992 17.432H41.399C44.7955 20.588 48.132 22.559 50.7427 23.7675H9.2606C13.3495 21.8777 16.5448 19.3426 18.6009 17.432C20.5918 15.5818 23.942 16.1843 25.1827 17.0281ZM52.2919 27.2809C51.4869 27.834 50.5453 28.4238 49.4651 29.0116C45.5731 31.1295 39.037 33.654 30.0001 33.654C20.9631 33.654 14.4269 31.1295 10.535 29.0116C9.45477 28.4238 8.51317 27.834 7.70824 27.2809H52.2919Z" fill="#12A4B6"/>
</svg>
