<svg width="230" height="230" xmlns="http://www.w3.org/2000/svg"><path fill="#55B6C9" d="M116.2 217.2H113c-27.2-.5-56.8-12.4-77.2-31.3-22.1-20.4-32-54.2-26.5-90.4 5.5-36 25-65.3 52.1-78.2 24.8-11.8 62.6 1.6 92.9 12.3 31.1 11.1 55.2 32.3 66 58.3 9.9 23.8 8.3 50.9-4.6 78.2-20.7 44-69.9 51.1-99.5 51.1zM62.7 20C36.4 32.5 17.5 60.9 12.2 96c-5.3 34.7 4.5 68.4 25.6 87.9 19.9 18.3 48.7 30 75.3 30.5 28.4.5 79.2-5.2 100-49.3 12.5-26.6 14.1-52.8 4.5-75.8-10.5-25.2-33.9-45.9-64.2-56.7-29.9-10.7-67-23.9-90.7-12.6z"/><path fill="#73C0D7" d="M120.2 219.6h-1.7c-32.2-1-59.7-13.3-79.5-35.6-17.5-19.7-27.6-46.5-27.7-73.5-.1-25.9 9-49.9 25.4-67.6 18.6-20 46-31.3 79.1-32.4 10.9-.4 16.5 3.8 23 8.6 8.2 6.1 18.4 13.7 44.1 15 16.6.8 29 6.4 37 16.7 7.2 9.2 10.6 21.6 9.9 37-1.1 27-14.9 60.4-36 87.2-22.3 28.4-49.1 44.6-73.6 44.6zm-2.9-206.3H116C45.6 15.9 14.2 64 14.3 110.5c.1 51.1 36 104 104.3 106.1 24 .8 50.6-15.1 73-43.6 20.7-26.3 34.3-59 35.4-85.5.7-18-4-48.6-44.2-50.6-26.6-1.3-37.2-9.2-45.7-15.6-6-4.4-10.8-8-19.8-8z"/><path fill="#4CA3B1" d="M114.9 204.6c-4.9 0-9.8-.3-14.7-1-36.2-4.8-67.1-26.4-84.7-59.1C2.8 121-8.2 73.2 8.4 45.3c7.9-13.2 20.8-19.9 38.5-19.9h.3l.3.1c24.7 10.4 53.2 7.6 80.8 4.8 39.1-3.9 76-7.6 89.7 31.3 15.4 43.6-5 86.3-29.2 111.7-19.3 20.3-45.6 31.3-73.9 31.3zM46.6 28.3c-16.4.1-28.4 6.3-35.7 18.5-15.4 25.8-5.7 72.5 7.1 96.4 17.2 31.9 47.3 52.9 82.5 57.6 32.7 4.4 64.1-6.4 86.1-29.5 23.6-24.8 43.5-66.4 28.6-108.7-12.9-36.7-47.1-33.3-86.7-29.3-27.8 2.7-56.6 5.5-81.9-5z"/></svg>