<svg version="1.1" id="Слой_1" xmlns="http://www.w3.org/2000/svg" x="0" y="0" viewBox="0 0 20 20" xml:space="preserve"><style/><path d="M3.3 3.3c0-.6.2-1.2.7-1.6.3-.5.9-.7 1.5-.7h9c.6 0 1.2.2 1.6.7.4.4.7 1 .7 1.6v13.5c0 .6-.2 1.2-.7 1.6-.4.4-1 .7-1.6.7h-9c-.6 0-1.2-.2-1.6-.7-.4-.4-.7-1-.7-1.6V3.3zm2.2.5v2.3c0 .1.1.3.2.4.1.1.2.2.4.2H14c.1 0 .3-.1.4-.2.1-.1.2-.2.2-.4V3.8c0-.1-.1-.3-.2-.4-.1-.1-.2-.2-.4-.2H6.1c-.1 0-.3.1-.4.2-.1.1-.2.3-.2.4zm0 4.5v1.1c0 .1.1.3.2.4.1.1.2.2.4.2h1.1c.1 0 .3-.1.4-.2.1-.1.2-.2.2-.4V8.3c0-.1-.1-.3-.2-.4-.1-.1-.3-.1-.4-.1H6.1c-.1 0-.3.1-.4.2-.1 0-.2.2-.2.3zm.6 2.8c-.1 0-.3.1-.4.2-.1.1-.2.2-.2.4v1.1c0 .1.1.3.2.4.1.1.2.2.4.2h1.1c.1 0 .3-.1.4-.2.1-.1.2-.2.2-.4v-1.1c0-.1-.1-.3-.2-.4-.1-.1-.2-.2-.4-.2H6.1zm-.6 4v1.1c0 .1.1.3.2.4.1.1.2.2.4.2h1.1c.1 0 .3-.1.4-.2.1-.1.2-.2.2-.4v-1.1c0-.1-.1-.3-.2-.4-.1-.1-.2-.2-.4-.2H6.1c-.1 0-.3.1-.4.2-.1.1-.2.2-.2.4zm3.9-7.3c-.1 0-.3 0-.4.1-.1.1-.1.3-.1.4v1.1c0 .1.1.3.2.4 0 .1.2.2.3.2h1.1c.1 0 .3-.1.4-.2.1-.1.2-.2.2-.4V8.3c0-.1-.1-.3-.2-.4-.1-.1-.2-.2-.4-.2H9.4zm-.5 3.9v1.1c0 .1.1.3.2.4.1.1.2.2.4.2h1.1c.1 0 .3-.1.4-.2.1-.1.2-.2.2-.4v-1.1c0-.1-.1-.3-.2-.4-.1-.1-.2-.2-.4-.2H9.4c-.1 0-.3.1-.4.2-.1.1-.1.2-.1.4zm.5 2.8c-.1 0-.3.1-.4.2-.1.1-.2.2-.2.4v1.1c0 .1.1.3.2.4.1.1.2.2.4.2h1.1c.1 0 .3-.1.4-.2.1-.1.2-.2.2-.4v-1.1c0-.1-.1-.3-.2-.4-.1-.1-.2-.2-.4-.2H9.4zm2.8-6.2v1.1c0 .1.1.3.2.4.1.1.2.2.4.2h1.1c.1 0 .3-.1.4-.2.1-.1.2-.2.2-.4V8.3c0-.1-.1-.3-.2-.4-.1-.1-.2-.2-.4-.2h-1.1c-.1 0-.3.1-.4.2-.1.1-.2.3-.2.4zm.6 2.8c-.1 0-.3.1-.4.2-.1.1-.2.2-.2.4v4.5c0 .1.1.3.2.4.1.1.2.2.4.2h1.1c.1 0 .3-.1.4-.2.1-.1.2-.2.2-.4v-4.5c0-.1-.1-.3-.2-.4-.1-.1-.2-.2-.4-.2h-1.1z"/></svg>