<svg width="46" height="46" fill="none" xmlns="http://www.w3.org/2000/svg"><path d="M41.814 9.55a1.84 1.84 0 00-1.748-1.27H35.88V1.84C35.88.822 35.058 0 34.04 0H11.96c-1.018 0-1.84.822-1.84 1.84v6.44H5.934a1.834 1.834 0 00-1.748 1.27L0 22.426V44.16C0 45.178.822 46 1.84 46h42.32c1.018 0 1.84-.822 1.84-1.84V22.425L41.814 9.551zM31.51 29.67c0 .253-.207.46-.46.46h-6.21v6.21c0 .253-.207.46-.46.46h-2.76a.461.461 0 01-.46-.46v-6.21h-6.21a.461.461 0 01-.46-.46v-2.76c0-.253.207-.46.46-.46h6.21v-6.21c0-.253.207-.46.46-.46h2.76c.253 0 .46.207.46.46v6.21h6.21c.253 0 .46.207.46.46v2.76zm.23-21.39H14.26V4.14h17.48v4.14z" fill="#12A4B6"/></svg>