<svg class="teeth" width="600" height="280" xmlns="http://www.w3.org/2000/svg"><style>.tooth{fill:#fff;stroke:#cef3ff;stroke-linecap:round;stroke-linejoin:round;z-index:1;transition:all .4s ease;stroke:rgba(74,144,226,.33);stroke-width:1}</style><path id="tooth-28" class="tooth" d="M578.3 101.8c14.3 3.6 12.8 61.1 7.8 57.4 0 0-8-8-15.3-12.2-1.9-1.1 3-19.3-11-34.4-1.9-2 13.7-12 18.5-10.8"/><path id="tooth-27" class="tooth" d="M554.1 115.9c14.4 3.2 14.6 60.7 9.4 57.2 0 0-8.3-7.7-15.6-11.7-1.9-1 2.4-19.4-12-34-2-2.1 13.4-12.6 18.2-11.5"/><path id="tooth-26" class="tooth" d="M524.9 126.2c7.4.1 21.9 18.4 18.8 50.9-.7 7.8-3.1 22-11.8 16.5 0 0-6.1-14.9-18.5-21-3.2-1.6-6.6-4.6-7.3-8.1l-2.1-24.1c-3.3-11 13.2-14.2 20.9-14.2z"/><path id="tooth-25" class="tooth active" d="M490 133.5c8.9-.8 14.4 21.7 13.3 48.7-.3 8-2.1 22.5-11.5 17.4 0 0-26.2-18.1-26.2-27v-22.4c.1-8.7 4.2-14.8 24.4-16.7z"/><path id="tooth-24" class="tooth" d="M446.1 225.8c6-.7 14.2-18.8 15.3-38.2.2-2.7.4-40 .4-40-.7-8.3-6.4-9-10.8-8.2l-29.9 5.6c-7 1.3-9.9 4.3-9.7 12.6l.1 27.4c0 4.4 1.4 8.7 3.9 12.4 8.4 12.4 22.2 30 30.7 28.4z"/><path id="tooth-23" class="tooth" d="M386.5 227.3c5.9 0 16.1-19.7 19.6-39 .5-2.7 1-7.1.9-9.9l-.7-25c-.3-4.3-4.1-7.6-8.6-7.3l-29.5 2.1c-6.9.5-11.7 6.3-11.6 13.2v21.8c0 6.5 1.2 13 3.9 18.9 5.6 12.5 16.1 25.8 26 25.2z"/><path id="tooth-22" class="tooth" d="M327.7 221.7c13.9 0 25.2-29.3 25.2-43v-17.5c0-6.8-5.6-12.3-12.6-12.3h-25.2c-7 0-12.6 5.5-12.6 12.3v16.9c0 13.6 11.3 43.6 25.2 43.6z"/><path id="tooth-21" class="tooth" d="M272.3 221.7c-13.9 0-25.2-29.3-25.2-43v-17.5c0-6.8 5.6-12.3 12.6-12.3h25.2c7 0 12.6 5.5 12.6 12.3v16.9c0 13.6-11.3 43.6-25.2 43.6z"/><path id="tooth-20" class="tooth" d="M213.5 227.3c-5.9 0-16.1-19.7-19.6-39-.5-2.7-1-7.1-.9-9.9l.7-25c.3-4.3 4.1-7.6 8.6-7.3l29.5 2.1c6.9.5 11.7 6.3 11.6 13.2v21.8c0 6.5-1.2 13-3.9 18.9-5.6 12.5-16.1 25.8-26 25.2z"/><path id="tooth-19" class="tooth" d="M153.9 225.8c-6-.7-14.2-18.8-15.3-38.2-.2-2.7-.4-40-.4-40 .7-8.3 6.4-9 10.8-8.2l29.9 5.6c7 1.3 9.9 4.3 9.7 12.6l-.1 27.4c0 4.4-1.4 8.7-3.9 12.4-8.4 12.4-22.2 30-30.7 28.4z"/><path id="tooth-18" class="tooth" d="M110 133.5c-8.9-.8-14.4 21.7-13.3 48.7.3 8 2.1 22.5 11.5 17.4 0 0 26.2-18.1 26.2-27v-22.4c0-8.7-4.2-14.8-24.4-16.7z"/><path id="tooth-17" class="tooth" d="M75.1 126.2c-7.4.1-21.9 18.4-18.8 50.9.7 7.8 3.1 22 11.8 16.5 0 0 6.1-14.9 18.5-21 3.2-1.6 6.6-4.6 7.3-8.1l2.1-24.1c3.3-11-13.1-14.2-20.9-14.2z"/><path id="tooth-16" class="tooth" d="M45.9 115.9c-14.4 3.2-14.6 60.7-9.4 57.2 0 0 8.3-7.7 15.6-11.7 1.9-1-2.4-19.4 12-34 2-2.1-13.3-12.6-18.2-11.5"/><path id="tooth-15" class="tooth" d="M21.7 101.8c-14.3 3.6-12.8 61.1-7.8 57.4 0 0 8-8 15.3-12.2 1.9-1.1-3-19.3 11-34.4 1.9-2-13.7-12-18.5-10.8"/><path id="tooth-14" class="tooth" d="M585.1 42.2c3.6-.7 9.6-10.4 10.2-18.9 0 0 1.3-7.9 1.3-14.7 0-14.4-18.2-2.2-18.4 5.9-.1 5.3-.9 20.4-.9 20.4-.8 7.2 5.1 7.8 7.8 7.3"/><path id="tooth-13" class="tooth" d="M559.4 57.1c4.5-.8 11.8-12.7 12.5-23.1 0 0 1.5-9.7 1.5-17.9 0-17.6-22.4-2.7-22.7 7.2-.2 6.5-1.1 25-1.1 25-.8 8.7 6.5 9.4 9.8 8.8"/><path id="tooth-12" class="tooth" d="M527.9 72c5.6-1 14.8-15 15.7-27.3 0 0 1.9-11.4 1.9-21.2 0-20.8-28-3.2-28.4 8.6-.2 7.7-1.4 29.5-1.4 29.5-1 10.2 8.1 11.2 12.2 10.4"/><path id="tooth-11" class="tooth" d="M490.3 88.4c6.3-1.2 16.7-17.6 17.6-32.1 0 0 2.2-13.5 2.2-24.9 0-24.5-31.5-3.8-31.9 10.1-.3 9.1-1.6 34.7-1.6 34.7-1.2 12 9.1 13.1 13.7 12.2"/><path id="tooth-10" class="tooth" d="M454.7 99.7c9.1 0 15.5-17 15.5-27.9 0 0 1.7-35.4.4-47.5-1.7-15-32.4 4.4-35.5 27.2-1.3 10-.3 28.1-.3 28.1 1.2 17.8 12.5 20.1 19.9 20.1z"/><path id="tooth-9" class="tooth" d="M390.3 101.2h15.5c12.4 0 22.5-10.1 22.5-22.5 0-50.6-12.8-58.9-22.4-58.7-11.3.2-29.7 11.5-31.6 37.3-.8 11.6-.5 19.7-.5 27.4 0 9.1 7.4 16.5 16.5 16.5z"/><path id="tooth-8" class="tooth" d="M334.3 18.2c21.7 0 31.7 37.9 33.5 69.1 0 11.3-9.1 20.5-20.4 20.5h-26.1c-11.2 0-18.4-7.2-18.4-18.5 0-17.4 0-68 31.4-71.1z"/><path id="tooth-7" class="tooth" d="M265.7 18.2c-21.7 0-31.7 37.9-33.5 69.1 0 11.3 9.1 20.5 20.4 20.5h26.1c11.2 0 18.4-7.2 18.4-18.5 0-17.4 0-68-31.4-71.1z"/><path id="tooth-6" class="tooth" d="M209.5 101.2H194c-12.4 0-22.5-10.1-22.5-22.5 0-50.6 12.8-58.9 22.4-58.7 11.3.2 29.7 11.5 31.6 37.3.8 11.6.5 19.7.5 27.4 0 9.1-7.4 16.5-16.5 16.5z"/><path id="tooth-5" class="tooth" d="M145.1 99.7c-9.1 0-15.5-17-15.5-27.9 0 0-1.7-35.4-.4-47.5 1.7-15 32.4 4.4 35.5 27.2 1.3 10 .3 28.1.3 28.1-1.2 17.8-12.5 20.1-19.9 20.1z"/><path id="tooth-4" class="tooth" d="M109.5 88.4c-6.3-1.2-16.7-17.6-17.6-32.1 0 0-2.2-13.5-2.2-24.9 0-24.5 31.5-3.8 31.9 10.1.3 9.1 1.6 34.7 1.6 34.7 1.2 12-9.1 13.1-13.7 12.2"/><path id="tooth-3" class="tooth" d="M71.9 72c-5.6-1-14.8-15-15.7-27.3 0 0-1.9-11.4-1.9-21.2 0-20.8 28-3.2 28.4 8.6.2 7.7 1.4 29.5 1.4 29.5 1 10.2-8.1 11.2-12.2 10.4"/><path id="tooth-2" class="tooth" d="M40.4 57.1c-4.5-.8-11.8-12.7-12.5-23.1 0 0-1.5-9.7-1.5-17.9 0-17.6 22.4-2.7 22.7 7.2.2 6.5 1.1 25 1.1 25 .8 8.7-6.6 9.4-9.8 8.8"/><path id="tooth-1" class="tooth" d="M14.7 42.2c-3.6-.7-9.6-10.4-10.2-18.9 0 0-1.3-7.9-1.3-14.7 0-14.4 18.2-2.2 18.4 5.9.1 5.3.9 20.4.9 20.4.8 7.2-5.1 7.8-7.8 7.3"/></svg>