<svg version="1.1" id="Слой_1" xmlns="http://www.w3.org/2000/svg" x="0" y="0" viewBox="0 0 20 20" xml:space="preserve"><style/><path d="M3.8 14.4c1 0 1.8.8 1.8 1.8S4.8 18 3.8 18 2 17.2 2 16.2s.8-1.8 1.8-1.8zm0-6.2c1 0 1.8.8 1.8 1.8s-.8 1.8-1.8 1.8S2 11 2 10s.8-1.8 1.8-1.8zm0-6.2c1 0 1.8.8 1.8 1.8s-.8 1.8-1.8 1.8S2 4.8 2 3.8 2.8 2 3.8 2zM10 14.4c1 0 1.8.8 1.8 1.8S11 18 10 18s-1.8-.8-1.8-1.8.8-1.8 1.8-1.8zm0-6.2c1 0 1.8.8 1.8 1.8s-.8 1.8-1.8 1.8S8.2 11 8.2 10 9 8.2 10 8.2zM10 2c1 0 1.8.8 1.8 1.8S11 5.6 10 5.6s-1.8-.8-1.8-1.8S9 2 10 2zm6.2 12.4c1 0 1.8.8 1.8 1.8s-.8 1.8-1.8 1.8-1.8-.8-1.8-1.8.8-1.8 1.8-1.8zm0-6.2c1 0 1.8.8 1.8 1.8s-.8 1.8-1.8 1.8-1.8-.8-1.8-1.8.8-1.8 1.8-1.8zm0-6.2c1 0 1.8.8 1.8 1.8s-.8 1.8-1.8 1.8-1.8-.8-1.8-1.8.8-1.8 1.8-1.8z"/></svg>