<svg xmlns="http://www.w3.org/2000/svg" viewBox="0 0 20 20"><path d="M14.5 8.3h-1.1c0-.4-.2-.9-.5-1.2s-.7-.5-1.2-.5V5.5c.7 0 1.5.3 2 .8.5.6.8 1.3.8 2z" fill="#0d0f0f"/><path d="M16.7 8.3h-1.1c0-1-.4-2-1.2-2.8-.7-.7-1.7-1.2-2.8-1.2v-1c1.3 0 2.6.5 3.6 1.5 1 .9 1.5 2.2 1.5 3.5zm-4.3 4.8l1.3-1.3c.2-.2.4-.3.6-.3.2 0 .5 0 .7.1l1.5.6c.2.1.4.2.6.4.1.2.2.4.2.7v2.8c0 .2 0 .3-.1.5s-.2.3-.3.4c-.1.1-.3.2-.4.3-.2.1-.3.1-.5.1C5.3 16.6 3.1 7.5 2.7 4v-.5c.1-.1.2-.3.3-.4s.3-.2.4-.3c.2-.1.3-.1.5-.1h2.7c.2 0 .5.1.7.2.2.1.4.3.5.6L8.4 5c.1.2.1.5.1.7 0 .2-.2.4-.3.6L6.9 7.6s.7 4.9 5.5 5.5z"/></svg>