<svg width="37" height="30" fill="none" xmlns="http://www.w3.org/2000/svg"><path d="M.934 13.129c0 9.535 3.794 14.364 12.696 16.142a.408.408 0 00.327-.082.392.392 0 00.142-.305v-4.92a.39.39 0 00-.201-.343c-3.85-2.1-5.774-5.405-5.871-10.096h5.679a.396.396 0 00.393-.393V.75a.396.396 0 00-.393-.394H1.328A.392.392 0 00.934.75v12.378zm21.926 0c0 9.683 4.284 15.116 12.727 16.146a.387.387 0 00.309-.095.392.392 0 00.135-.296v-4.92a.39.39 0 00-.201-.343c-3.85-2.1-5.774-5.405-5.871-10.096h5.679a.396.396 0 00.393-.393V.75a.396.396 0 00-.393-.394H23.253a.396.396 0 00-.393.394v12.378z" fill="#333"/></svg>