<svg width="46" height="46" xmlns="http://www.w3.org/2000/svg"><path fill="#4D9FAB" d="M44.4 4.8H32.6c-2.5 0-5 .7-7.1 2.1L23 8.5l-2.5-1.6c-2.1-1.4-4.6-2.1-7.1-2.1H1.6C.7 4.8 0 5.5 0 6.4v29.5c0 .9.7 1.7 1.6 1.7h11.7c2.5 0 5 .7 7.1 2.1l2.3 1.5c.1 0 .1.1.2.1s.2 0 .2-.1l2.3-1.5c2.1-1.4 4.6-2.1 7.1-2.1h11.7c.9 0 1.6-.7 1.6-1.7V6.4c.2-.9-.5-1.6-1.4-1.6zM17.5 25.1c0 .2-.2.4-.4.4H7.6c-.2 0-.4-.2-.4-.4v-2.3c0-.2.2-.4.4-.4h9.5c.2 0 .4.2.4.4v2.3zm0-7.2c0 .2-.2.4-.4.4H7.6c-.2 0-.4-.2-.4-.4v-2.3c0-.2.2-.4.4-.4h9.5c.2 0 .4.2.4.4v2.3zm21.3 7.2c0 .2-.2.4-.4.4h-9.5c-.2 0-.4-.2-.4-.4v-2.3c0-.2.2-.4.4-.4h9.5c.2 0 .4.2.4.4v2.3zm0-7.2c0 .2-.2.4-.4.4h-9.5c-.2 0-.4-.2-.4-.4v-2.3c0-.2.2-.4.4-.4h9.5c.2 0 .4.2.4.4v2.3z"/></svg>