<svg width="65" height="65" fill="none" xmlns="http://www.w3.org/2000/svg"><path fill-rule="evenodd" clip-rule="evenodd" d="M32.5 65C50.45 65 65 50.45 65 32.5S50.45 0 32.5 0 0 14.55 0 32.5 14.55 65 32.5 65zm-1.952-27.191h5.046c2.74 0 5.018-.869 6.835-2.605 1.845-1.763 2.767-3.947 2.767-6.55 0-2.605-.935-4.83-2.807-6.674-1.845-1.845-4.11-2.767-6.796-2.767h-10.62v13.672h-3.051v4.924h3.051v2.238h-3.051v3.58h3.051v4.07h5.575v-4.07h9.074v-3.58h-9.074v-2.238zm0-13.347h5.046c1.139 0 2.088.407 2.848 1.22.786.787 1.18 1.778 1.18 2.971 0 1.194-.394 2.197-1.18 3.011-.76.814-1.71 1.22-2.849 1.22h-5.045v-8.422z" fill="#12A4B6"/></svg>