<svg width="685" height="149" xmlns="http://www.w3.org/2000/svg"><path fill="#43CEE0" d="M351.2 148.5h-9.8c-82-.3-171-8-232.4-20-55.6-10.9-85.8-27.9-84.8-47.8.6-13.5 15.6-26.4 43.2-37.5C96.2 31.5 137.2 22.8 186 17.9c74-7.5 188 1.1 279.6 8 60.2 4.6 112.2 11.9 150.5 21.1 42.9 10.4 65.8 22.5 68.2 36 1.9 10.8-9.5 21.9-33.8 32.9-62.2 28.1-210.2 32.6-299.3 32.6zM186.3 20.9c-108.5 11-158.1 38-159.1 59.9-.8 18 29.2 34.3 82.4 44.8 61.2 12 150.1 19.7 231.8 20 87.5.3 243.9-3.4 307.9-32.3C672.2 103 683 93 681.4 83.7c-4.1-23.6-88.9-45-216-54.6C373.9 22 260 13.4 186.3 20.9z"/><path fill="#60EAFC" d="M298.1 127.2c-66.1 0-119.7-.6-184.6-15.6-45.2-10.5-68.9-25.9-66.8-43.3 2.2-17.7 31.2-35.2 79.7-47.9C179.3 6.6 251.2-.4 328.8.6 423 1.9 502.9 9.4 559.7 22.5c51.7 11.9 80.1 27.6 80 44.2-.1 16.5-28.8 31.5-80.8 42.2-58.1 12-142.7 18.3-244.5 18.3h-16.3zm-183.9-18.5c67.2 15.6 122.3 15.6 192 15.6h8.2c101.6 0 185.9-6.3 243.9-18.2 49.7-10.2 78.3-24.5 78.4-39.3.1-14.8-28.2-29.9-77.6-41.3-56.6-13-136.2-20.6-230.3-21.9-77.3-1-148.9 6-201.6 19.7-46.6 12.2-75.6 29.2-77.6 45.4-1.9 15.7 21.1 29.9 64.6 40z"/><path fill="#14A9BD" d="M348 141.8c-17.5 0-35.2-.3-53-.9-105.3-3.4-195.3-16.5-247-35.8C24.2 96.2-2.4 79.7.7 62.5 4.6 41.2 52.9 30 140.3 30c54.2 0 117.9-4.5 179.5-8.9 74.7-5.3 151.9-10.8 213.2-8.3 70.2 2.8 110.2 15.4 126 39.7 5.7 8.8 7 17.2 3.7 25.2-7.6 18.4-38.8 33.6-92.7 45l-.3-1.5.3 1.5c-58.4 12.4-137.3 19.1-222 19.1zM499.6 15.2c-54.7 0-117.6 4.5-179.6 8.9-61.6 4.4-125.4 8.9-179.7 8.9C26.2 33 5.7 51.8 3.7 63 1.5 75.3 20.1 91.4 49 102.3c51.4 19.3 141 32.3 246 35.6 104.2 3.4 204.2-3.3 274.3-18.2 52.2-11.1 83.5-26 90.6-43.3 2.9-7 1.8-14.6-3.4-22.4-19.6-30.1-80.2-38.8-156.9-38.8z"/></svg>