<svg width="50" height="50" fill="none" xmlns="http://www.w3.org/2000/svg"><path d="M25 49.949c13.78 0 24.95-11.17 24.95-24.95C49.95 11.222 38.78.052 25 .052 11.222.05.051 11.22.051 25c0 13.779 11.17 24.949 24.95 24.949z" fill="#FF4016"/><path d="M34.028 40.662H28.55V13.574h-2.44c-4.472 0-6.815 2.236-6.815 5.574 0 3.787 1.616 5.542 4.959 7.778l2.754 1.857-7.916 11.875h-5.89l7.126-10.602c-4.097-2.926-6.403-5.783-6.403-10.602 0-6.023 4.2-10.12 12.148-10.12h7.917v31.319h.037v.01z" fill="#F6FAFB"/></svg>