<svg width="132" height="70" viewBox="0 0 132 70" fill="none" xmlns="http://www.w3.org/2000/svg">
  <path fill-rule="evenodd" clip-rule="evenodd" d="m107.028 42.3974.014-7.4113c-2.635 1.2283-9.189 2.4014-9.1208-2.3876.082-5.9484 8.1918-2.6637 8.9698-2.5394l.014-7.2595c-1.038-.8281-4.56-1.2835-6.185-1.2835-6.6217-.0138-11.7826 3.2571-11.8509 11.0962-.1365 13.6218 15.9739 11.5516 18.1589 9.7851Zm-19.374-.1242v-7.2871c-2.5805 1.1869-9.1887 2.4428-9.1204-2.3876.0409-2.2082 1.2288-3.2709 3.2904-3.5055 2.6351-.2899 3.6591.5244 5.6934.9799v-7.2733c-1.024-.8557-4.6557-1.3111-6.3214-1.2835-6.5809.069-11.7692 3.3537-11.7282 11.2204.0409 7.8667 5.4203 10.8892 11.9739 10.9582 1.1742.0138 2.362-.0966 3.427-.3312.6007-.138 2.4849-.4969 2.7853-1.0903Zm-19.7017.8833H59.337l.1775-7.0111c-.5051.5383-.9693 1.1731-1.4745 1.808-1.2698 1.6009-2.8672 3.7401-4.1233 5.2031h-6.5809v-21.116l8.6289.0138-.1775 6.9835c.7509-.7315 5.7617-6.9973 5.789-6.9973h6.3761v21.116Zm-42.9942 0h8.6152v-6.7903c.5734.069.4505.2208 1.1195 1.5044.4643.897 2.9765 5.272 2.9765 5.272h9.2023c-.3687-.9522-5.6388-10.2129-5.7617-10.6407 0 0 4.5738-8.8052 5.1609-10.4614h-9.1477L34.843 27.354c-.3003.7177-.4915 1.532-1.2834 1.5734v-6.9007h-8.6152v21.1298h.0137Z" fill="#333"/>
  <path d="M35.8535 8.07369C2.28003 16.5615-5.88464 46.6482 21.0533 59.8698c11.0592 5.4239 28.1531 9.4677 44.6872 9.6195 23.7567.2208 48.6605-3.5193 59.3915-15.623 18.2-20.5363-5.338-36.2145-35.4982-41.9283-18.5275-3.49167-39.8949-7.36983-53.7803-3.86431Z" stroke="#43CEE0" stroke-miterlimit="22.9256"/>
  <path d="M21.9817 52.3897C-6.62195 35.8281 15.8514-1.03502 63.3239.53832c77.1001 2.55323 82.5481 59.33158-2.758 59.33158-13.9673 0-25.1084.3175-38.5842-7.4802Z" stroke="#60EAFC" stroke-miterlimit="22.9256"/>
  <path d="M109.622 56.8063c14.391-7.5769 20.535-18.7698 16.944-32.364-9.271-35.1932-63.8292-10.3371-99.4916-10.3371-35.6487.0138-28.74013 24.0556-17.65366 34.3513C30.3376 67.8749 81.4965 71.615 109.622 56.8063Z" stroke="#14A9BD" stroke-miterlimit="22.9256"/>
  <path d="M93.9893 48.5251c0 .1518-.0273.276-.0819.4003-.0546.1104-.1365.2208-.2458.3036-.1092.0828-.2457.1518-.3959.1932-.1502.0414-.3277.069-.5325.069-.1092 0-.2184-.0138-.314-.0276-.0956-.0138-.1912-.0414-.2594-.069-.0819-.0276-.1502-.0552-.2048-.0828-.0546-.0276-.0956-.0552-.1092-.069-.0273-.0138-.041-.0414-.0547-.0552-.0136-.0138-.0136-.0276-.0273-.0552 0-.0138-.0136-.0414-.0136-.069v-.1794c0-.0276.0136-.0414.0136-.0553 0-.0138.0137-.0276.0273-.0276.0137-.0138.0273-.0138.041-.0138.0273 0 .0546.0138.0956.0414.0409.0277.0955.0553.1638.0967.0683.0414.1639.069.2594.0966.1093.0276.2321.0414.3823.0414.1092 0 .2048-.0138.2867-.0276.082-.0276.1639-.0552.2185-.0966.0546-.0414.1092-.0966.1365-.1657.0273-.069.0546-.1518.0546-.2346 0-.0828-.0136-.138-.0546-.207-.0273-.0552-.0819-.1104-.1502-.1518-.0682-.0414-.1501-.069-.2594-.0966-.1092-.0276-.2321-.0414-.3823-.0414h-.314c-.0273 0-.0409 0-.0546-.0138-.0137-.0138-.0273-.0138-.0273-.0414-.0137-.0138-.0137-.0414-.0137-.069v-.1933c0-.0276.0137-.0414.0137-.0552.0136-.0138.0136-.0276.0273-.0276.0137-.0138.0273-.0138.041-.0138h.314c.1365 0 .2457-.0138.3413-.0276.0956-.0276.1775-.0552.2458-.0966.0682-.0414.1092-.0966.1502-.1518.0273-.0552.0409-.138.0409-.207 0-.069-.0136-.138-.0409-.1932-.0273-.0552-.0683-.0966-.1229-.138-.0546-.0414-.1092-.0552-.1775-.0828-.0683-.0138-.1502-.0276-.2321-.0276-.1366 0-.2458.0138-.3414.0414-.0955.0276-.1911.069-.2594.0966-.0682.0414-.1365.069-.1775.0966-.0409.0276-.0819.0414-.0955.0414-.0137 0-.0273 0-.0273-.0138-.0137 0-.0137-.0138-.0273-.0276-.0137-.0138-.0137-.0276-.0137-.0552V46.8c0-.069 0-.1104.0137-.1518.0136-.0415.0273-.0691.0546-.0967s.0682-.0552.1365-.0966c.0683-.0276.1365-.069.2321-.0966.0819-.0276.1775-.0552.2867-.069.0956-.0138.2048-.0276.3141-.0276.1501 0 .3003.0138.4369.0552.1365.0276.2457.0828.3413.1518.0956.069.1638.1518.2184.2485.0547.0966.082.2208.082.345 0 .0828-.0137.1518-.041.2346-.0273.069-.0683.138-.1092.1932-.0546.0552-.1092.1104-.1775.1656-.0683.0414-.1502.0829-.2321.1105.0819.0138.1638.0276.2457.069.082.0414.1502.0966.2185.1518.0683.069.1092.138.1502.2208-.0273.1104-.0137.207-.0137.3174Zm2.0617.8833-.3823 1.0765c-.0137.0276-.041.0552-.0956.0828-.0546.0138-.1365.0276-.2321.0276-.0546 0-.0956 0-.1365-.0138-.0273 0-.0546-.0138-.082-.0276-.0136-.0138-.0273-.0276-.0273-.0552s0-.0414.0137-.0828l.3959-1.0213c-.0136-.0138-.0409-.0276-.0546-.0414-.0136-.0138-.0273-.0414-.0409-.0552l-1.024-2.7879c-.0137-.0414-.0273-.0828-.0273-.1104s.0136-.0414.0273-.069c.0136-.0138.0409-.0276.0819-.0276s.0956-.0138.1502-.0138h.1502c.0409 0 .0682.0138.0819.0138.0273.0138.0409.0276.0409.0414.0137.0138.0137.0414.0274.069l.8191 2.3462h.0137l.7919-2.36c.0136-.0414.0273-.069.041-.0828.0136-.0138.0409-.0276.0819-.0276.0409 0 .0955-.0138.1638-.0138.0546 0 .1092 0 .1502.0138.041 0 .0683.0138.0819.0276.0137.0138.0273.0414.0273.069 0 .0276 0 .0552-.0136.0966l-1.024 2.9259Zm4.342-1.5871c0 .2484-.028.4692-.096.6624-.068.207-.164.3727-.287.5245-.1225.1518-.2863.2622-.4638.345-.1775.0828-.3823.1242-.6144.1242-.2321 0-.4369-.0414-.6144-.1104-.1775-.0828-.314-.1932-.4232-.345-.1093-.1518-.1912-.3451-.2458-.5797-.0546-.2346-.0819-.5106-.0819-.8143 0-.2622.0136-.5106.041-.7314.0273-.2208.0546-.4279.1092-.6073.0409-.1794.0956-.3312.1638-.4554.0546-.1242.1229-.2208.1912-.3037.0682-.069.1228-.138.1911-.1794.0683-.0414.1365-.0828.2048-.1242.0683-.0414.1638-.069.2594-.0966.0956-.0276.2048-.0552.3277-.069l1.0243-.1656c.041 0 .068-.0138.095-.0138.028 0 .041.0138.055.0276.014.0138.027.0414.027.0828v.2622c0 .0276-.013.0552-.027.069-.014.0138-.027.0276-.055.0414-.027.0138-.054.0138-.082.0276l-.9554.1657c-.0956.0138-.1775.0276-.2594.0552-.0683.0138-.1365.0414-.1911.069-.0547.0276-.1093.0552-.1502.0828-.041.0276-.0819.069-.1229.1104-.041.0414-.0819.0966-.1229.1656-.0409.069-.0683.138-.0956.2346-.0273.0828-.0409.1794-.0546.276-.0136.0967-.0273.2071-.0409.3175.0682-.069.1502-.138.2184-.207.0819-.0553.1639-.1105.2458-.1519.0819-.0414.1775-.0828.273-.0966.0956-.0276.2048-.0276.3141-.0276.2048 0 .3823.0414.5461.1104.1502.069.2867.1657.3826.3037.095.1242.177.2898.232.4692.054.138.082.345.082.5521Zm-.5464.0552c0-.138-.0137-.2761-.041-.4141-.0273-.1242-.0682-.2484-.1229-.345-.0546-.0966-.1365-.1794-.2321-.2346-.0955-.0552-.2184-.0828-.3686-.0828-.0956 0-.1775.0138-.2458.0276-.0819.0276-.1501.0552-.2321.0966-.0682.0414-.1502.1104-.2184.1656-.0683.069-.1502.1518-.2458.2346v.2622c0 .2347.0137.4417.041.6211s.0819.3312.1365.4416c.0683.1242.1502.2071.2594.2623.1093.0552.2458.0966.396.0966.1365 0 .2594-.0276.3686-.0828.1092-.0552.2048-.1381.2731-.2347.0682-.0966.1229-.2208.1638-.3588.041-.1242.0683-.2898.0683-.4554Zm4.0414-.0414c0 .2346-.027.4554-.096.6624-.054.1932-.15.3727-.273.5107-.123.138-.273.2622-.464.345-.191.0828-.396.1242-.642.1242-.232 0-.45-.0414-.614-.1104-.177-.069-.328-.1794-.437-.3174-.123-.138-.205-.3037-.259-.4969-.055-.1932-.082-.414-.082-.6624 0-.2347.027-.4555.095-.6625.055-.207.151-.3726.273-.5244.123-.1381.273-.2623.465-.3313.177-.0828.396-.1242.641-.1242.232 0 .451.0414.615.1104.177.069.327.1794.437.3175.123.138.204.3036.259.4968.055.207.082.414.082.6625Zm-.546.0414c0-.1519-.014-.3037-.041-.4417-.027-.138-.082-.2622-.15-.3726-.069-.1104-.15-.1932-.273-.2484-.11-.0552-.26-.0966-.424-.0966-.15 0-.286.0276-.409.0828-.109.0552-.205.138-.273.2346-.069.0966-.123.2208-.164.3588-.041.138-.055.2898-.055.4555 0 .1656.014.3174.041.4554.028.138.082.2622.15.3726.069.1104.164.1933.273.2485.11.0552.26.0966.424.0966.15 0 .286-.0276.396-.0828.109-.0552.204-.1381.286-.2347.069-.0966.123-.2208.164-.3588.028-.1518.055-.3036.055-.4692Zm3.7.621c0 .1518-.027.2898-.082.4141-.055.1242-.137.2208-.259.3036-.11.0828-.26.138-.424.1794-.164.0414-.368.069-.587.069h-.396c-.068 0-.123-.0138-.191-.0138-.055 0-.123-.0138-.177-.0138-.082-.0138-.151-.0414-.192-.0828-.04-.0414-.054-.1104-.054-.207v-2.5119c0-.0828.014-.1518.054-.207.041-.0414.096-.069.178-.0828.055 0 .109-.0138.177-.0138.069 0 .123-.0138.192-.0138.068 0 .136 0 .204-.0138h.219c.205 0 .382.0138.532.0552.151.0276.273.0828.383.1518.095.069.177.1519.218.2485.055.0966.068.207.068.3312 0 .1656-.041.3036-.136.4278-.082.1104-.219.1933-.382.2485.204.0414.368.138.477.2622.123.1104.178.2622.178.4692Zm-.642-1.3525c0-.069-.013-.138-.041-.1932-.027-.0552-.068-.0966-.123-.138-.054-.0414-.136-.069-.232-.0828-.095-.0138-.205-.0276-.341-.0276-.096 0-.191 0-.273.0138-.082 0-.15.0138-.219.0138v.897h.547c.218 0 .395-.0414.505-.1242.123-.0966.177-.207.177-.3588Zm.096 1.3525c0-.0828-.014-.1656-.041-.2346-.028-.069-.082-.1242-.137-.1656-.068-.0414-.15-.069-.246-.0966-.095-.0276-.218-.0276-.354-.0276h-.519v1.0351c.041 0 .082.0138.123.0138.041 0 .081 0 .136.0138.041 0 .096 0 .137.0138h.123c.136 0 .259-.0138.354-.0414.096-.0276.178-.0552.246-.1104.069-.0414.109-.1105.137-.1795.027-.0552.041-.138.041-.2208Z" fill="#333"/>
  <path fill-rule="evenodd" clip-rule="evenodd" d="M27.9347 50.4026v-1.3111c0-.0552-.0137-.0829-.0273-.1105-.0137-.0138-.0547-.0276-.1093-.0276h-.3959V46.414c0-.0138 0-.0276-.0137-.0414-.0136-.0138-.0273-.0276-.0409-.0276-.0137-.0138-.041-.0138-.0819-.0138h-.2595c-.0273 0-.0546.0138-.0819.0138-.0136.0138-.0273.0276-.0409.0276-.0137.0138-.0137.0276-.0137.0414v2.5394h-1.379V46.414c0-.0138 0-.0276-.0136-.0414-.0137-.0138-.0273-.0276-.041-.0276-.0136-.0138-.0409-.0138-.0819-.0138h-.2594c-.041 0-.0683.0138-.0819.0138-.0273.0138-.041.0276-.041.0276-.0136.0138-.0136.0276-.0136.0414v2.8155c0 .069.0136.1104.0409.138.0273.0276.0683.0414.1229.0414h2.362v.9937c0 .0276.0137.0414.0546.0552.041.0138.0956.0138.1775.0138.0683 0 .1229 0 .1639-.0138.0273-.0138.0546-.0276.0546-.0552Zm9.844-3.9886v4.0714c0 .0138 0 .0276.0136.0414.0137.0138.0273.0276.041.0276.0136.0138.0409.0138.0819.0138h.2594c.041 0 .0546-.0138.0819-.0138.0137-.0138.0273-.0138.041-.0276s.0137-.0276.0137-.0414v-1.4629c.0819.069.1501.138.2184.1932s.1365.0966.2048.138c.0683.0414.1365.069.2185.0828.0682.0138.1501.0276.2321.0276.2048 0 .3823-.0414.5324-.1104.1502-.0828.2868-.1794.396-.3312.1092-.1381.1911-.3175.2457-.5107.0547-.207.082-.4278.082-.6901 0-.207-.0273-.414-.0683-.6072-.041-.1932-.1092-.3588-.2048-.4969-.0956-.138-.2185-.2484-.355-.3312-.1502-.0828-.3277-.1242-.5325-.1242-.0955 0-.1911.0138-.273.0276-.0819.0276-.1775.0552-.2594.0966-.082.0414-.1639.0966-.2458.1656-.0819.069-.1638.1518-.2594.2347v-.3865c0-.0138 0-.0414-.0137-.0414-.0136-.0138-.0273-.0276-.0409-.0276-.0137-.0138-.041-.0138-.0683-.0138h-.2184c-.0274 0-.0547.0138-.0683.0138-.0137.0138-.0273.0138-.041.0276-.0136.0138-.0136.0276-.0136.0552Zm.5325 2.0426v-1.1593c.0819-.1104.1638-.1932.2321-.2622.0682-.069.1501-.138.2184-.1794.0683-.0414.1365-.0829.2048-.0967.0683-.0276.1365-.0276.2048-.0276.1365 0 .2458.0276.3413.0967.0956.069.1639.1518.2185.2622.0546.1104.0956.2346.1092.3726.0273.138.0273.2898.0273.4278 0 .1381-.0136.2761-.0409.4003-.0273.138-.0683.2622-.1366.3588-.0546.1104-.1365.1932-.2321.2622-.0955.069-.2048.0966-.3413.0966-.1365 0-.2867-.0414-.4096-.138-.1229-.0966-.2594-.2346-.3959-.414Zm-2.5669-1.6423v2.5118c0 .0138 0 .0276.0137.0414.0136.0138.0273.0276.041.0276.0136.0138.0409.0138.0819.0138h.2594c.0409 0 .0546-.0138.0819-.0138.0137-.0138.0273-.0138.041-.0276.0136-.0138.0136-.0276.0136-.0414v-2.5118h.8602c.0136 0 .0409 0 .0546-.0138.0136-.0138.0273-.0277.0273-.0415.0136-.0138.0136-.0414.0273-.069v-.1104c0-.0414 0-.069-.0137-.1104 0-.0276-.0136-.0552-.0273-.0828-.0136-.0276-.0136-.0414-.0273-.0414-.0136-.0138-.0273-.0138-.0409-.0138h-2.2528c-.0137 0-.0273 0-.041.0138-.0136.0138-.0273.0276-.0273.0414-.0136.0138-.0136.0414-.0273.0828 0 .0276-.0136.069-.0136.0966 0 .0414 0 .0828.0136.1104 0 .0276.0137.0552.0273.069.0137.0139.0137.0277.0273.0415.0137.0138.0273.0138.041.0138h.8601v.0138Zm-4.0277-.4003v2.9121c0 .0138 0 .0276.0137.0414.0136.0138.0273.0276.0409.0276.0137.0138.041.0138.082.0138h.2594c.0409 0 .0546-.0138.0819-.0138.0136-.0138.0273-.0138.0409-.0276.0137-.0138.0137-.0276.0137-.0414v-1.2835H33.71v1.2835c0 .0138 0 .0276.0137.0414.0136.0138.0273.0276.0409.0276.0137.0138.041.0138.0819.0138h.2594c.041 0 .0547-.0138.082-.0138.0136-.0138.0273-.0138.0409-.0276.0137-.0138.0137-.0276.0137-.0414V46.414c0-.0138 0-.0276-.0137-.0414-.0136-.0138-.0273-.0276-.0409-.0276-.0137-.0138-.041-.0138-.082-.0138h-.2594c-.0409 0-.0546.0138-.0819.0138-.0136.0138-.0273.0276-.0409.0276-.0137.0138-.0137.0276-.0137.0414v1.1869h-1.4609V46.414c0-.0138 0-.0276-.0137-.0414-.0136-.0138-.0273-.0276-.0409-.0276-.0137-.0138-.041-.0138-.0819-.0138h-.2594c-.041 0-.0683.0138-.082.0138-.0273.0138-.0409.0276-.0409.0276-.0137.0138-.0137.0276-.0137.0414Zm-3.0993 2.6637c.1229.138.2731.2346.4506.3036.1775.069.3823.0966.628.0966.1366 0 .2594-.0138.3823-.0276.1229-.0138.2321-.0414.3141-.069.0955-.0276.1638-.0552.2184-.0828.0546-.0276.0956-.0414.1092-.0552.0137-.0138.0273-.0276.0273-.0414.0137-.0138.0137-.0276.0137-.0414l.0136-.0552V48.9396c0-.0276-.0136-.0414-.0136-.0552s-.0137-.0276-.0273-.0276c-.0137-.0138-.0273-.0138-.041-.0138-.0273 0-.0682.0138-.1092.0276-.0546.0276-.1092.0414-.1911.069-.082.0276-.1639.0552-.2731.069-.1092.0277-.2321.0276-.3687.0276-.1774 0-.314-.0276-.4369-.069-.1228-.0552-.2184-.1242-.2867-.207-.0819-.0966-.1229-.207-.1638-.3312-.0273-.1242-.0546-.276-.0546-.4416h1.8978c.0546 0 .0956-.0138.1365-.0552.041-.0415.0683-.0967.0683-.1795v-.0966c0-.1932-.0273-.3726-.0683-.5382-.0546-.1656-.1229-.3174-.2321-.4417-.1092-.1242-.2321-.2208-.3959-.2898-.1639-.069-.355-.1104-.5735-.1104-.2048 0-.3959.0414-.5734.1104-.1775.069-.314.1794-.4369.3174-.1229.1381-.2185.3037-.2731.5107-.0683.207-.0956.4278-.0956.6762 0 .2623.0273.4969.0956.6901.0546.1932.1502.3588.2594.4969Zm1.7613-1.4906h-1.5701c0-.1242.0273-.2346.0546-.345.0409-.1104.0819-.207.1502-.2898.0682-.0828.1502-.1518.2457-.1933.0956-.0552.2185-.069.3414-.069.2594 0 .4505.0829.5734.2347.1502.1656.2048.3864.2048.6624ZM60.1701 47.6558c-.0137.0138-.0137.0414-.0137.0552v.1932c0 .0276.0137.0552.0137.069.0137.0138.0273.0276.0273.0414.0137.0138.0273.0138.0546.0138h.314c.1502 0 .2868.0138.3823.0414.1093.0276.1912.0552.2594.0966.0683.0414.1229.0966.1502.1518.0273.0552.0546.1242.0546.2071 0 .0828-.0136.1656-.0546.2346-.0273.069-.0819.1242-.1365.1656-.0546.0414-.1365.0828-.2185.0966-.0819.0276-.1774.0276-.2867.0276-.1502 0-.2867-.0138-.3823-.0414-.1092-.0276-.1911-.069-.2594-.0966-.0682-.0414-.1229-.069-.1638-.0966-.041-.0276-.0683-.0414-.0956-.0414-.0136 0-.0273 0-.041.0138-.0136.0138-.0136.0138-.0273.0276 0 .0138-.0136.0276-.0136.0552v.1794l.0136.069c0 .0138.0137.0414.0273.0552.0137.0138.0274.0276.0547.0552.0273.0138.0546.0414.1092.069.0546.0276.1229.0552.2048.0828.0819.0276.1638.0414.2594.069.0956.0138.2048.0276.314.0276.2048 0 .3687-.0276.5325-.069.1502-.0414.2867-.1104.396-.1932.1092-.0828.1911-.1794.2457-.3036.0546-.1104.0819-.2484.0819-.4002 0-.1105-.0136-.2071-.0546-.2899-.0409-.0828-.0956-.1656-.1502-.2208-.0682-.069-.1365-.1104-.2184-.1518-.0819-.0414-.1639-.069-.2458-.069.0819-.0276.1639-.0552.2321-.1104.0683-.0414.1366-.0966.1775-.1656.0546-.0552.0819-.1243.1092-.1933.0273-.069.041-.1518.041-.2346 0-.138-.0273-.2484-.0819-.345-.0546-.0966-.1229-.1794-.2185-.2484-.0955-.069-.2048-.1242-.3413-.1518-.1365-.0276-.2731-.0553-.4369-.0553-.1092 0-.2048.0138-.314.0277-.0956.0138-.1912.0414-.2868.069-.0819.0276-.1638.0552-.2321.0966-.0682.0276-.1092.069-.1365.0966-.0273.0276-.0409.0552-.0546.0966-.0137.0414-.0137.0828-.0137.1518v.0828c0 .0276.0137.0414.0137.0552.0137.0138.0137.0276.0273.0276.0137 0 .0137.0138.0273.0138.0137 0 .0546-.0138.0956-.0414.0409-.0276.1092-.0552.1775-.0966.0682-.0414.1638-.069.2594-.0966.0956-.0276.2184-.0414.3413-.0414.0819 0 .1639.0138.2321.0276.0683.0138.1366.0414.1775.0828.0546.0414.0956.0828.1229.138.0273.0552.041.1104.041.1932 0 .0828-.0137.1518-.041.207-.0273.0553-.0819.1105-.1502.1519-.0683.0414-.1502.069-.2457.0966-.0956.0276-.2185.0276-.3414.0276h-.314c-.0137 0-.041 0-.041.0138.0547-.0276.041-.0138.041 0Zm-13.7898 1.6699v-2.8016c0-.069-.0137-.1104-.041-.138-.0273-.0276-.0682-.0414-.1229-.0414h-2.1162c-.0546 0-.0956.0138-.1229.0414-.0273.0276-.041.0828-.041.138v2.8016c0 .0138 0 .0276.0137.0414.0136.0138.0273.0276.041.0276.0136.0138.0409.0138.0819.0138h.2457c.041 0 .0683-.0138.082-.0138.0273-.0138.0409-.0138.0409-.0276.0137-.0138.0137-.0276.0137-.0414v-2.5394h1.379v2.5532c0 .0138-.0001.0276.0136.0414.0137.0138.0273.0276.041.0276.0273.0138.0546.0138.0819.0138h.2594c.0273 0 .0546-.0138.0819-.0138.0137-.0138.0273-.0138.041-.0276.0273-.0138.0273-.0276.0273-.0552Zm40.0451-2.1116c0 .2071.0546.3865.1775.5107.1228.1242.2867.207.4915.2484-.1093.0414-.2185.1242-.3004.2208-.0819.0966-.1638.2208-.2185.3589l-.2321.552-.0682.1794c-.0137.0276-.0137.0552-.0137.069 0 .0138 0 .0276.0137.0414.0136.0138.0273.0276.0409.0276.0273 0 .0546.0138.082.0138H86.6438c.041 0 .0683-.0138.0956-.0138.0273-.0138.0409-.0276.0546-.0414.0137-.0138.0273-.0414.041-.069l.2321-.5658c.0409-.1104.0819-.207.1365-.2899.041-.0828.0956-.138.1638-.1932.0547-.0552.1229-.0828.2048-.1104.0683-.0276.1775-.0276.3141-.0276h.3003v1.2283c0 .0138 0 .0276.0137.0414.0136.0138.0273.0276.0409.0276.0137.0138.041.0138.082.0138h.2594c.0409 0 .0546-.0138.0819-.0138.0137-.0138.0273-.0138.041-.0276.0136-.0138.0136-.0276.0136-.0414v-2.774c0-.0552-.0136-.1104-.0546-.1518-.0273-.0414-.0819-.069-.1502-.069l-.1775-.0138-.2048-.0138-.2048-.0138h-.1775c-.2184 0-.3959.0276-.5598.069-.1638.0414-.3003.0966-.4096.1794-.1092.0828-.1911.1794-.2594.2898-.0682.0828-.0955.207-.0955.3588Zm.5734.2071c-.0273-.0553-.041-.1381-.041-.2071 0-.0828.0137-.1518.041-.207.0273-.069.0683-.1242.1229-.1656.0546-.0414.1365-.0828.2321-.1104.0956-.0276.2184-.0414.355-.0414h.2184c.0819 0 .1639.0138.2321.0276v.9937h-.4369c-.1638 0-.2867-.0138-.3823-.0276-.0955-.0276-.1638-.0552-.2184-.0966-.0546-.0414-.0956-.0966-.1229-.1656Zm-3.9731-1.0075v2.9258c0 .0138 0 .0276.0136.0414.0137.0138.0274.0276.041.0276.0137.0138.041.0138.0683.0138h.2184c.0273 0 .0546-.0138.0683-.0138.0136-.0138.0273-.0138.041-.0276l.0409-.0414 1.2288-1.6975.1775-.2484c.0546-.0829.1092-.1657.1638-.2623l-.0136.2623v1.9459c0 .0138 0 .0276.0136.0414.0137.0138.0273.0276.041.0276.0273.0138.0546.0138.0819.0138h.2458c.0273 0 .0546-.0138.0819-.0138.0137-.0138.0273-.0138.041-.0276.0136-.0138.0136-.0276.0136-.0414v-2.912c0-.0138 0-.0276-.0136-.0414-.0137-.0138-.0273-.0276-.041-.0276-.0137-.0138-.041-.0138-.0683-.0138h-.2184c-.0273 0-.0546.0138-.0683.0138-.0273 0-.0409.0138-.0546.0276-.0137.0138-.0273.0276-.041.0414l-1.2424 1.7113c-.0546.069-.1092.1518-.1638.2346-.0547.0828-.0956.1657-.1502.2485l.0136-.2485v-1.9321c0-.0276-.0136-.0552-.0546-.069-.041-.0138-.1092-.0276-.2184-.0276h-.1229c-.041 0-.0683.0138-.0819.0138-.0273.0138-.041.0138-.041.0276v.0276Zm-3.5089 0v2.912c0 .0138 0 .0276.0137.0414.0136.0138.0273.0276.0409.0276.0137.0138.041.0138.0819.0138h.2594c.041 0 .0547-.0138.082-.0138.0136-.0138.0273-.0138.0409-.0276.0137-.0138.0137-.0276.0137-.0414v-1.2835h1.4609v1.2835c0 .0138 0 .0276.0136.0414.0137.0138.0273.0276.041.0276.0136.0138.041.0138.0819.0138h.2594c.041 0 .0546-.0138.0819-.0138.0137-.0138.0274-.0138.041-.0276.0137-.0138.0137-.0276.0137-.0414v-2.912c0-.0138 0-.0276-.0137-.0414-.0136-.0138-.0273-.0276-.041-.0276-.0136-.0138-.0409-.0138-.0819-.0138h-.2594c-.0409 0-.0546.0138-.0819.0138-.0137.0138-.0273.0276-.041.0276-.0136.0138-.0136.0276-.0136.0414v1.1869h-1.4609v-1.1869c0-.0138 0-.0276-.0137-.0414-.0136-.0138-.0273-.0276-.0409-.0276-.0137-.0138-.041-.0138-.082-.0138h-.2594c-.0409 0-.0682.0138-.0819.0138-.0273.0138-.0409.0276-.0409.0276-.0137.0138-.0137.0276-.0137.0414ZM76.554 47.849c-.1228.0828-.2184.1794-.2867.3036-.0682.1242-.0956.2622-.0956.4279 0 .138.0274.2622.0683.3726.0546.1104.1092.207.2048.276.0819.069.1912.138.314.1794.1229.0414.2595.0552.4096.0552.1775 0 .3414-.0414.4916-.1104.1501-.069.3003-.1794.4232-.3174v.2898c0 .0276.0137.0414.0273.0552.0137.0138.041.0276.0683.0276.0273 0 .0819.0138.1365.0138.0546 0 .0956 0 .1365-.0138.0273 0 .0547-.0138.0683-.0276.0137-.0138.0273-.0276.0273-.0552v-1.9736c0-.1794-.0273-.345-.0546-.483-.041-.138-.1092-.2484-.1911-.345-.0956-.0966-.2048-.1656-.355-.207-.1502-.0415-.3277-.0691-.5325-.0691-.1092 0-.2185.0138-.3277.0276-.1092.0276-.2048.0415-.3004.0829-.0955.0276-.1775.069-.2457.1104-.0683.0414-.1229.069-.1502.0966-.0273.0276-.041.0552-.0546.0828-.0137.0276-.0137.069-.0137.1242v.0828c0 .0276.0137.0552.0273.069.0137.0138.0273.0276.0273.0414.0137.0138.0274.0138.041.0138.0273 0 .0683-.0138.1092-.0414.0546-.0276.1229-.069.1912-.1104.0819-.0414.1638-.069.273-.1104.1093-.0276.2185-.0414.355-.0414.1229 0 .2185.0138.3141.0414.0819.0276.1501.069.2048.1242.0546.0552.0955.1242.1092.2208.0273.0828.0409.1932.0409.3036v.2347h-.3959c-.2185 0-.4233.0138-.6008.0552-.1774.0552-.3413.1242-.4642.1932Zm1.0104.1518h.4505v.6211c-.1365.1518-.2594.2622-.3686.3312-.1229.069-.2458.1104-.3823.1104-.1775 0-.3004-.0414-.3959-.138-.0956-.0828-.1366-.207-.1366-.3588 0-.0829.0137-.1657.0546-.2347.0274-.069.082-.1242.1502-.1794.0683-.0552.1639-.0828.2594-.1104.0956-.0276.2321-.0414.3687-.0414Zm-4.3418-1.3939v2.5118c0 .0966.0273.1656.0547.207.0409.0414.1092.069.1911.0828l.1775.0138.1911.0138h.396c.2184 0 .4232-.0276.5871-.069.1638-.0414.314-.1104.4232-.1794.1092-.0828.2048-.1794.2594-.3036.0546-.1242.082-.2622.082-.414 0-.1933-.0547-.3589-.1639-.4969-.1092-.1242-.273-.2208-.4778-.2622.1638-.0552.3003-.138.3822-.2484.082-.1105.1366-.2623.1366-.4279 0-.1242-.0273-.2346-.0683-.3312-.0546-.0966-.1229-.1794-.2184-.2484-.0956-.069-.2322-.1104-.3823-.1518-.1502-.0277-.3277-.0553-.5325-.0553h-.2185l-.2048.0138-.1911.0138-.1775.0138c-.0819.0139-.1365.0415-.1775.0829-.041.0828-.0683.1518-.0683.2346Zm.5189 1.0075v-.8971l.2184-.0138c.0819 0 .1775-.0138.2731-.0138.1365 0 .2457.0138.3413.0276.0956.0138.1639.0552.2321.0828.0546.0414.0956.0828.1229.138.0273.0552.041.1242.041.1932 0 .1518-.0547.2761-.1775.3589-.1229.0828-.2868.1242-.5052.1242h-.5461Zm0 .3588h.5188c.1365 0 .2594.0138.355.0276.0955.0276.1911.0552.2457.0966.0683.0414.1093.0966.1366.1656.0273.069.0409.138.0409.2347 0 .0828-.0136.1656-.0409.2346-.0273.069-.082.1242-.1366.1794-.0682.0414-.1502.0828-.2457.1104-.0956.0276-.2185.0414-.355.0414h-.1229l-.1365-.0138-.1366-.0138c-.0409 0-.0819-.0138-.1228-.0138v-1.0489Zm-2.0344-.9247c.0683.1104.1092.2346.1502.3727.0273.138.041.2898.041.4416 0 .1656-.0137.3174-.0546.4692-.0273.1381-.082.2623-.1639.3589-.0683.0966-.1638.1794-.2867.2346-.1092.0552-.2458.0828-.3959.0828-.1639 0-.3141-.0276-.4233-.0966-.1092-.0552-.2048-.1518-.2731-.2484-.0682-.1104-.1228-.2347-.1502-.3727-.0273-.138-.0409-.2898-.0409-.4554 0-.1656.0136-.3174.0546-.4555.041-.138.0819-.2622.1638-.3588.0683-.0966.1639-.1794.2731-.2346.1092-.0552.2458-.0828.4096-.0828.1638 0 .314.0276.4233.0966.1092.069.2048.1518.273.2484Zm-2.0616.1932c-.0546.1933-.0956.4141-.0956.6625 0 .2484.0273.4692.0819.6625.0546.1932.1502.3588.2594.4968.1229.138.2594.2346.4369.3174.1775.069.3823.1104.6144.1104.2458 0 .4642-.0414.6417-.1242.1775-.0828.3414-.1932.4643-.345.1228-.138.2184-.3174.273-.5106.0683-.2071.0956-.4141.0956-.6625 0-.2484-.0273-.4693-.0819-.6625-.0546-.1932-.1502-.3588-.2594-.4968-.1229-.138-.2594-.2346-.4369-.3174-.1775-.069-.3823-.1105-.6144-.1105-.2458 0-.4643.0415-.6417.1243-.1775.0828-.3414.1932-.4643.3312-.1228.1518-.2048.3174-.273.5244Zm-3.3314-.828v4.0713c0 .0138 0 .0276.0136.0414.0137.0138.0273.0276.041.0276.0136.0138.0409.0138.0819.0138h.2594c.041 0 .0546-.0138.0819-.0138.0137-.0138.0273-.0138.041-.0276s.0137-.0276.0137-.0414v-1.4629c.0819.069.1501.138.2184.1932s.1365.0966.2048.138c.0683.0414.1365.069.2185.0828.0682.0138.1501.0276.2321.0276.2048 0 .3823-.0414.5324-.1104.1502-.0828.2868-.1794.396-.3312.1092-.138.1911-.3174.2457-.5106.0547-.2071.082-.4279.082-.6901 0-.207-.0273-.414-.0683-.6073-.041-.1932-.1092-.3588-.2048-.4968s-.2185-.2484-.355-.3312c-.1502-.0828-.3277-.1243-.5325-.1243-.0955 0-.1911.0138-.273.0276-.0819.0277-.1775.0553-.2594.0967-.082.0414-.1639.0966-.2458.1656-.0819.069-.1638.1518-.2594.2346v-.3864c0-.0138 0-.0414-.0137-.0414-.0136-.0138-.0273-.0276-.0409-.0276-.0137-.0138-.041-.0138-.0683-.0138h-.2184c-.0274 0-.0547.0138-.0683.0138-.0137.0138-.0273.0138-.041.0276-.0136.0138-.0136.0276-.0136.0552Zm.5325 2.0425v-1.1593c.0819-.1104.1638-.1932.2321-.2622.0682-.069.1501-.138.2184-.1794.0683-.0414.1365-.0828.2048-.0966.0683-.0276.1365-.0276.2048-.0276.1365 0 .2458.0276.3413.0966.0956.069.1639.1518.2185.2622.0546.1104.0956.2346.1092.3727.0273.138.0273.2898.0273.4278s-.0136.276-.0409.4002c-.0273.138-.0683.2623-.1366.3589-.0546.1104-.1365.1932-.2321.2622-.0955.069-.2048.0966-.3413.0966-.1365 0-.2867-.0414-.4096-.138-.1229-.0966-.2594-.2346-.3959-.4141Zm-4.0824-2.0425v2.9258c0 .0138 0 .0276.0137.0414.0136.0138.0273.0276.0409.0276.0137.0138.041.0138.0683.0138h.2185c.0273 0 .0546-.0138.0682-.0138.0137-.0138.0273-.0138.041-.0276l.0409-.0414 1.2288-1.6975.1775-.2484c.0546-.0829.1093-.1657.1639-.2623l-.0137.2623v1.9459c0 .0138 0 .0276.0137.0414.0136.0138.0273.0276.0409.0276.0273.0138.0546.0138.0819.0138h.2458c.0273 0 .0546-.0138.0819-.0138.0137-.0138.0273-.0138.041-.0276.0136-.0138.0136-.0276.0136-.0414v-2.912c0-.0138 0-.0276-.0136-.0414-.0137-.0138-.0273-.0276-.041-.0276-.0136-.0138-.0409-.0138-.0682-.0138h-.2185c-.0273 0-.0546.0138-.0683.0138-.0273 0-.0409.0138-.0546.0276-.0136.0138-.0273.0276-.0409.0414l-1.2425 1.7113c-.0546.069-.1092.1518-.1638.2346-.0546.0828-.0956.1657-.1502.2485l.0136-.2485v-1.9321c0-.0276-.0136-.0552-.0546-.069-.0409-.0138-.1092-.0276-.2184-.0276h-.1229c-.041 0-.0683.0138-.0819.0138-.0273.0138-.041.0138-.041.0276v.0276Zm-4.3144.5106c.1365.1656.1911.3864.1911.6625h-1.5701c0-.1242.0273-.2347.0546-.3451.041-.1104.0819-.207.1502-.2898.0683-.0828.1502-.1518.2458-.1932.0955-.0552.2184-.069.3413-.069.2731 0 .4642.069.5871.2346Zm-1.8296.276c-.0682.2071-.0955.4279-.0955.6763 0 .2622.0273.4968.0955.6901.0547.1932.1502.3588.2731.4968.1229.138.2731.2346.4506.3036.1775.069.3823.0966.628.0966.1366 0 .2594-.0138.3823-.0276.1229-.0138.2321-.0414.314-.069.0956-.0276.1639-.0552.2185-.0828.0546-.0276.0956-.0414.1092-.0552.0137-.0138.0273-.0276.0273-.0414.0137-.0138.0137-.0276.0137-.0414l.0136-.0552V48.9255c0-.0276-.0136-.0414-.0136-.0552s-.0137-.0276-.0273-.0276c-.0137-.0138-.0273-.0138-.041-.0138-.0273 0-.0683.0138-.1092.0276-.0546.0276-.1092.0414-.1912.069-.0819.0276-.1775.0552-.273.069-.1093.0276-.2321.0276-.3687.0276-.1775 0-.314-.0276-.4369-.069-.1229-.0552-.2184-.1242-.2867-.207-.0819-.0966-.1229-.207-.1638-.3313-.0273-.1242-.0546-.276-.0546-.4416h1.8978c.0546 0 .0955-.0138.1365-.0552.041-.0414.0683-.0966.0683-.1794v-.0966c0-.1932-.0273-.3727-.0683-.5383-.0546-.1656-.1229-.3174-.2321-.4416-.1092-.1242-.2321-.2208-.396-.2898-.1638-.069-.3549-.1105-.5734-.1105-.2048 0-.4096.0415-.5734.1105-.1775.069-.3141.1794-.4369.3174-.1366.1518-.2321.3174-.2868.5106Zm-1.8705-.3864v2.5118c0 .0138 0 .0276.0137.0414s.0273.0276.041.0276c.0136.0138.0409.0138.0819.0138h.2594c.0409 0 .0546-.0138.0819-.0138.0137-.0138.0273-.0138.041-.0276.0136-.0138.0136-.0276.0136-.0414v-2.5118h.8602c.0136 0 .0409 0 .0546-.0138.0136-.0138.0273-.0276.0273-.0414.0136-.0138.0137-.0414.0273-.069v-.1104c0-.0414 0-.069-.0136-.1104 0-.0276-.0137-.0552-.0274-.0828-.0136-.0276-.0136-.0414-.0273-.0414-.0136-.0138-.0273-.0138-.0409-.0138h-2.2528c-.0137 0-.0273 0-.041.0138-.0136.0138-.0273.0276-.0273.0414-.0136.0138-.0136.0414-.0273.0828 0 .0276-.0136.069-.0136.0966 0 .0414 0 .0828.0136.1104 0 .0276.0137.0552.0273.069.0137.0138.0137.0276.0273.0414.0137.0138.0273.0138.041.0138h.8601v.0138Zm-4.0413.4278c-.0546.1933-.0956.4141-.0956.6625 0 .2484.0273.4692.0819.6625.0546.1932.1502.3588.2594.4968.1229.138.2594.2346.4369.3174.1775.069.3823.1104.6144.1104.2458 0 .4642-.0414.6417-.1242.1775-.0828.3414-.1932.4642-.345.1229-.138.2185-.3174.2731-.5106.0683-.2071.0956-.4141.0956-.6625 0-.2484-.0273-.4693-.0819-.6625-.0546-.1932-.1502-.3588-.2594-.4968-.1229-.138-.2595-.2346-.4369-.3174-.1775-.069-.3823-.1105-.6144-.1105-.2458 0-.4643.0415-.6418.1243-.1774.0828-.3413.1932-.4642.3312-.1228.1518-.2184.3174-.273.5244Zm.4505.6211c0-.1656.0137-.3174.0546-.4554.041-.1381.082-.2623.1639-.3589.0682-.0966.1638-.1794.273-.2346.1093-.0552.2458-.0828.4096-.0828.1639 0 .3141.0276.4233.0966.1092.0552.2048.138.2731.2484.0682.1104.1092.2346.1501.3727.0274.138.041.2898.041.4416 0 .1656-.0136.3174-.0546.4692-.0273.1381-.0819.2623-.1638.3589-.0683.0966-.1639.1794-.2868.2346-.1092.0552-.2457.0828-.3959.0828-.1638 0-.314-.0276-.4233-.0966-.1092-.0552-.2048-.1518-.273-.2484-.0683-.1104-.1093-.2347-.1502-.3727-.0273-.1518-.041-.3036-.041-.4554Zm-3.7956-1.4491v4.0713c0 .0138 0 .0276.0137.0414.0136.0138.0273.0276.0409.0276.0137.0138.041.0138.0819.0138h.2595c.0409 0 .0546-.0138.0819-.0138.0136-.0138.0273-.0138.0409-.0276.0137-.0138.0137-.0276.0137-.0414v-1.4629c.0819.069.1502.138.2184.1932.0683.0552.1366.0966.2048.138.0683.0414.1366.069.2185.0828.0683.0138.1502.0276.2321.0276.2048 0 .3823-.0414.5325-.1104.1502-.0828.2867-.1794.3959-.3312.1093-.138.1912-.3174.2458-.5106.0546-.2071.0819-.4279.0819-.6901 0-.207-.0273-.414-.0683-.6073-.0409-.1932-.1092-.3588-.2048-.4968-.0955-.138-.2184-.2484-.3549-.3312-.1502-.0828-.3277-.1243-.5325-.1243-.0956 0-.1912.0138-.2731.0276-.0819.0277-.1775.0553-.2594.0967-.0819.0414-.1638.0966-.2458.1656-.0819.069-.1638.1518-.2594.2346v-.3864c0-.0138 0-.0414-.0136-.0414-.0137-.0138-.0273-.0276-.041-.0276-.0136-.0138-.0409-.0138-.0683-.0138h-.2184c-.0273 0-.0546.0138-.0683.0138-.0136.0138-.0273.0138-.0409.0276-.0137.0138-.0137.0276-.0137.0552Zm.5325 2.0425v-1.1593c.0819-.1104.1638-.1932.2321-.2622.0683-.069.1502-.138.2185-.1794.0682-.0414.1365-.0828.2048-.0966.0682-.0276.1365-.0276.2048-.0276.1365 0 .2457.0276.3413.0966.0956.069.1638.1518.2184.2622.0547.1104.0956.2346.1093.3727.0273.138.0273.2898.0273.4278s-.0137.276-.041.4002c-.0273.138-.0683.2623-.1365.3589-.0546.1104-.1366.1932-.2321.2622-.0956.069-.2048.0966-.3414.0966-.1365 0-.2867-.0414-.4096-.138-.1092-.0966-.2457-.2346-.3959-.4141Z" fill="#333"/>
</svg>
