<svg width="65" height="65" viewBox="0 0 65 65" fill="none" xmlns="http://www.w3.org/2000/svg">
<path d="M57.7778 0H7.18611C3.21389 0 0 3.25 0 7.22222L0.0361111 57.7778C0.0361111 61.75 3.25 65 7.22222 65H43.3333L65 43.3333V7.22222C65 3.25 61.75 0 57.7778 0ZM18.0556 18.0556H46.9444C48.9306 18.0556 50.5556 19.6806 50.5556 21.6667C50.5556 23.6528 48.9306 25.2778 46.9444 25.2778H18.0556C16.0694 25.2778 14.4444 23.6528 14.4444 21.6667C14.4444 19.6806 16.0694 18.0556 18.0556 18.0556ZM28.8889 39.7222H18.0556C16.0694 39.7222 14.4444 38.0972 14.4444 36.1111C14.4444 34.125 16.0694 32.5 18.0556 32.5H28.8889C30.875 32.5 32.5 34.125 32.5 36.1111C32.5 38.0972 30.875 39.7222 28.8889 39.7222ZM39.7222 59.5833V43.3333C39.7222 41.3472 41.3472 39.7222 43.3333 39.7222H59.5833L39.7222 59.5833Z" fill="#12A4B6"/>
</svg>
