<svg width="65" height="65" viewBox="0 0 65 65" fill="none" xmlns="http://www.w3.org/2000/svg">
<path d="M63.6547 31.9675L34.1217 0.711846C33.9091 0.486193 33.6565 0.307168 33.3785 0.185021C33.1004 0.0628731 32.8024 0 32.5013 0C32.2003 0 31.9023 0.0628731 31.6242 0.185021C31.3462 0.307168 31.0936 0.486193 30.8809 0.711846L1.34795 31.9675C0.487556 32.8787 0 34.1165 0 35.4074C0 38.088 2.05777 40.2674 4.58876 40.2674H7.70052V62.57C7.70052 63.9141 8.72582 65 9.9949 65H27.9126V47.9901H35.9429V65H55.0078C56.2769 65 57.3022 63.9141 57.3022 62.57V40.2674H60.4139C61.6328 40.2674 62.8015 39.7586 63.6619 38.8397C65.4472 36.9413 65.4472 33.8659 63.6547 31.9675V31.9675Z" fill="#12A4B6"/>
</svg>
