<svg width="65" height="65" viewBox="0 0 65 65" fill="none" xmlns="http://www.w3.org/2000/svg">
<path d="M59.085 13.4956C58.9153 12.9741 58.585 12.5195 58.1414 12.197C57.6978 11.8745 57.1635 11.7005 56.615 11.7H50.7V2.6C50.7 1.16187 49.5381 0 48.1 0H16.9C15.4619 0 14.3 1.16187 14.3 2.6V11.7H8.385C7.83622 11.6993 7.30136 11.8727 6.85748 12.1954C6.4136 12.5181 6.08359 12.9734 5.915 13.4956L0 31.6875V62.4C0 63.8381 1.16187 65 2.6 65H62.4C63.8381 65 65 63.8381 65 62.4V31.6875L59.085 13.4956ZM44.525 41.925C44.525 42.2825 44.2325 42.575 43.875 42.575H35.1V51.35C35.1 51.7075 34.8075 52 34.45 52H30.55C30.1925 52 29.9 51.7075 29.9 51.35V42.575H21.125C20.7675 42.575 20.475 42.2825 20.475 41.925V38.025C20.475 37.6675 20.7675 37.375 21.125 37.375H29.9V28.6C29.9 28.2425 30.1925 27.95 30.55 27.95H34.45C34.8075 27.95 35.1 28.2425 35.1 28.6V37.375H43.875C44.2325 37.375 44.525 37.6675 44.525 38.025V41.925ZM44.85 11.7H20.15V5.85H44.85V11.7Z" fill="#12A4B6"/>
</svg>
