<svg width="70" height="70" viewBox="0 0 70 70" fill="none" xmlns="http://www.w3.org/2000/svg">
<path d="M34.9715 5.8335C18.8715 5.8335 5.83398 18.9002 5.83398 35.0002C5.83398 51.1002 18.8715 64.1668 34.9715 64.1668C51.1006 64.1668 64.1673 51.1002 64.1673 35.0002C64.1673 18.9002 51.1006 5.8335 34.9715 5.8335ZM35.0006 58.3335C22.109 58.3335 11.6673 47.8918 11.6673 35.0002C11.6673 22.1085 22.109 11.6668 35.0006 11.6668C47.8923 11.6668 58.334 22.1085 58.334 35.0002C58.334 47.8918 47.8923 58.3335 35.0006 58.3335ZM34.359 20.4168H34.184C33.0173 20.4168 32.084 21.3502 32.084 22.5168V36.2835C32.084 37.3043 32.609 38.2668 33.5131 38.7918L45.6173 46.0543C46.609 46.6377 47.8923 46.346 48.4757 45.3543C49.0882 44.3627 48.7673 43.0502 47.7465 42.4668L36.459 35.7585V22.5168C36.459 21.3502 35.5256 20.4168 34.359 20.4168Z" fill="#12A4B6"/>
</svg>
