<svg width="70" height="70" viewBox="0 0 70 70" fill="none" xmlns="http://www.w3.org/2000/svg">
<path d="M58.334 11.6667H11.6673C8.45898 11.6667 5.86315 14.2917 5.86315 17.5001L5.83398 52.5001C5.83398 55.7084 8.45898 58.3334 11.6673 58.3334H58.334C61.5423 58.3334 64.1673 55.7084 64.1673 52.5001V17.5001C64.1673 14.2917 61.5423 11.6667 58.334 11.6667ZM57.1673 24.0626L36.5465 36.9542C35.6131 37.5376 34.3882 37.5376 33.4548 36.9542L12.834 24.0626C12.1048 23.5959 11.6673 22.8084 11.6673 21.9626C11.6673 20.0084 13.7965 18.8417 15.459 19.8626L35.0006 32.0834L54.5423 19.8626C56.2048 18.8417 58.334 20.0084 58.334 21.9626C58.334 22.8084 57.8965 23.5959 57.1673 24.0626Z" fill="#12A4B6"/>
</svg>
