<svg width="70" height="70" viewBox="0 0 70 70" fill="none" xmlns="http://www.w3.org/2000/svg">
<path fill-rule="evenodd" clip-rule="evenodd" d="M35 70C54.33 70 70 54.33 70 35C70 15.67 54.33 0 35 0C15.67 0 0 15.67 0 35C0 54.33 15.67 70 35 70ZM43.9657 25.0757C44.167 24.9748 44.4042 24.9748 44.6055 25.0757C44.9582 25.2524 45.1009 25.6815 44.9242 26.0342L35.6387 44.605C35.5177 44.8472 35.2701 45.0001 34.9994 45C34.9655 45.0001 34.9316 44.9977 34.898 44.9928C34.5941 44.949 34.3522 44.7157 34.2973 44.4136L32.9566 37.0431L25.5861 35.7025C25.3652 35.6622 25.1762 35.5203 25.0757 35.3195C24.8991 34.9667 25.042 34.5377 25.3947 34.3611L43.9657 25.0757Z" fill="#12A4B6"/>
</svg>
