<?xml version="1.0" encoding="utf-8"?>
<!-- Generator: Adobe Illustrator 19.2.1, SVG Export Plug-In . SVG Version: 6.00 Build 0)  -->
<svg version="1.1" id="Слой_1" xmlns="http://www.w3.org/2000/svg" xmlns:xlink="http://www.w3.org/1999/xlink" x="0px" y="0px"
	 viewBox="0 0 20 20" style="enable-background:new 0 0 20 20;" xml:space="preserve">
<style type="text/css">
	.st0{fill:#0D0F0F;}
</style>
<g>
	<path d="M2,4h16c0.6,0,1,0.4,1,1l0,0c0,0.6-0.4,1-1,1H2C1.4,6,1,5.6,1,5l0,0C1,4.4,1.4,4,2,4z"/>
	<path d="M2,9h16c0.6,0,1,0.4,1,1l0,0c0,0.6-0.4,1-1,1H2c-0.6,0-1-0.4-1-1l0,0C1,9.4,1.4,9,2,9z"/>
	<path d="M2,14h16c0.6,0,1,0.4,1,1l0,0c0,0.6-0.4,1-1,1H2c-0.6,0-1-0.4-1-1l0,0C1,14.4,1.4,14,2,14z"/>
</g>
</svg>
