<?xml version="1.0" encoding="utf-8"?>
<!-- Generator: Adobe Illustrator 19.2.1, SVG Export Plug-In . SVG Version: 6.00 Build 0)  -->
<svg version="1.1" id="Слой_1" xmlns="http://www.w3.org/2000/svg" xmlns:xlink="http://www.w3.org/1999/xlink" x="0px" y="0px"
	 viewBox="0 0 230 230" style="enable-background:new 0 0 230 230;" xml:space="preserve">
<style type="text/css">
	.st0{fill:#BDDFE7;}
	.st1{fill:#FFFFFF;}
	.st2{fill:#86C6D0;}
</style>
<g>
	<path class="st0" d="M116.2,213.3c-1.1,0-2.2,0-3.2,0c-27.2-0.5-56.8-12.4-77.2-31.3c-22.1-20.4-32-54.2-26.5-90.4
		c5.5-36,25-65.3,52.1-78.2l0,0c24.8-11.8,62.6,1.6,92.9,12.3c31.1,11.1,55.2,32.3,66,58.3c9.9,23.8,8.3,50.9-4.6,78.2
		C195,206.2,145.8,213.3,116.2,213.3z M62.7,16C36.4,28.5,17.5,56.9,12.2,92c-5.3,34.7,4.5,68.4,25.6,87.9
		c19.9,18.3,48.7,30,75.3,30.5c28.4,0.5,79.2-5.2,100-49.3c12.5-26.6,14.1-52.8,4.5-75.8C207,60,183.6,39.3,153.3,28.5
		C125,18.5,86.4,4.8,62.7,16L62.7,16z"/>
	<path class="st1" d="M120.2,221.2c-0.6,0-1.2,0-1.7,0c-32.2-1-59.7-13.3-79.5-35.6c-17.5-19.7-27.6-46.5-27.7-73.5
		c-0.1-25.9,9-49.9,25.4-67.6c18.6-20,46-31.3,79.1-32.4c10.9-0.4,16.5,3.8,23,8.6c8.2,6.1,18.4,13.7,44.1,15
		c16.6,0.8,29,6.4,37,16.7c7.2,9.2,10.6,21.6,9.9,37c-1.1,27-14.9,60.4-36,87.2C171.5,205,144.7,221.2,120.2,221.2z M117.3,15
		c-0.4,0-0.8,0-1.3,0C45.6,17.5,14.2,65.6,14.3,112.1c0.1,51.1,36,104,104.3,106.1c24,0.7,50.6-15.1,73-43.6
		c20.7-26.3,34.3-59,35.4-85.5c0.7-18-4-48.6-44.2-50.6c-26.6-1.3-37.2-9.2-45.7-15.6C131.1,18.6,126.3,15,117.3,15z"/>
	<path class="st2" d="M114.9,202.5c-4.9,0-9.8-0.3-14.7-1c-36.2-4.8-67.1-26.4-84.7-59.1C2.8,118.9-8.2,71.1,8.4,43.2
		C16.3,30,29.3,23.3,46.9,23.3l0.3,0l0.3,0.1c24.7,10.4,53.2,7.6,80.8,4.8c39.1-3.9,76-7.6,89.7,31.3c15.4,43.6-5,86.3-29.2,111.7
		l0,0C169.5,191.5,143.2,202.5,114.9,202.5z M46.6,26.2c-16.4,0.1-28.4,6.3-35.7,18.5c-15.4,25.8-5.7,72.5,7.1,96.4
		c17.2,31.9,47.3,52.9,82.5,57.6c32.7,4.4,64.1-6.4,86.1-29.5l0,0c23.6-24.8,43.5-66.4,28.6-108.7c-12.9-36.7-47.1-33.3-86.7-29.3
		C100.7,33.9,71.9,36.8,46.6,26.2z"/>
</g>
</svg>
