<svg width="65" height="65" viewBox="0 0 65 65" fill="none" xmlns="http://www.w3.org/2000/svg">
<path d="M32.4675 0C14.5275 0 0 14.56 0 32.5C0 50.44 14.5275 65 32.4675 65C50.44 65 65 50.44 65 32.5C65 14.56 50.44 0 32.4675 0ZM32.5 58.5C18.135 58.5 6.5 46.865 6.5 32.5C6.5 18.135 18.135 6.5 32.5 6.5C46.865 6.5 58.5 18.135 58.5 32.5C58.5 46.865 46.865 58.5 32.5 58.5Z" fill="#12A4B6"/>
<path d="M33.8535 18.9583H29.791V35.2083L44.0098 43.7395L46.041 40.4083L33.8535 33.177V18.9583Z" fill="#12A4B6"/>
</svg>
