<?xml version="1.0" encoding="utf-8"?>
<!-- Generator: Adobe Illustrator 19.2.1, SVG Export Plug-In . SVG Version: 6.00 Build 0)  -->
<svg version="1.1" id="Слой_1" xmlns="http://www.w3.org/2000/svg" xmlns:xlink="http://www.w3.org/1999/xlink" x="0px" y="0px"
	 viewBox="0 0 20 20" style="enable-background:new 0 0 20 20;" xml:space="preserve">
<style type="text/css">
	.st0{fill:#0D0F0F;}
</style>
<g>
	<path d="M2.6,0.4l17,17c0.6,0.6,0.6,1.5,0,2.1l0,0c-0.6,0.6-1.5,0.6-2.1,0l-17-17C-0.1,2-0.1,1,0.4,0.4l0,0C1-0.1,2-0.1,2.6,0.4z"/>
	<path d="M19.6,2.6l-17,17c-0.6,0.6-1.5,0.6-2.1,0l0,0c-0.6-0.6-0.6-1.5,0-2.1l17-17c0.6-0.6,1.5-0.6,2.1,0l0,0C20.1,1,20.1,2,19.6,2.6z"/>
</g>
</svg>
