<svg width="46" height="46" viewBox="0 0 46 46" fill="none" xmlns="http://www.w3.org/2000/svg">
<path d="M41.814 9.55075C41.6939 9.18164 41.4602 8.85995 41.1462 8.63171C40.8323 8.40347 40.4542 8.28036 40.066 8.28H35.88V1.84C35.88 0.82225 35.0578 0 34.04 0H11.96C10.9423 0 10.12 0.82225 10.12 1.84V8.28H5.934C5.54563 8.27948 5.16712 8.40225 4.85299 8.63061C4.53885 8.85898 4.30531 9.18116 4.186 9.55075L0 22.425V44.16C0 45.1777 0.82225 46 1.84 46H44.16C45.1777 46 46 45.1777 46 44.16V22.425L41.814 9.55075ZM31.51 29.67C31.51 29.923 31.303 30.13 31.05 30.13H24.84V36.34C24.84 36.593 24.633 36.8 24.38 36.8H21.62C21.367 36.8 21.16 36.593 21.16 36.34V30.13H14.95C14.697 30.13 14.49 29.923 14.49 29.67V26.91C14.49 26.657 14.697 26.45 14.95 26.45H21.16V20.24C21.16 19.987 21.367 19.78 21.62 19.78H24.38C24.633 19.78 24.84 19.987 24.84 20.24V26.45H31.05C31.303 26.45 31.51 26.657 31.51 26.91V29.67ZM31.74 8.28H14.26V4.14H31.74V8.28Z" fill="#12A4B6"/>
</svg>
