<svg class="teeth" viewBox="0 0 600 280" width="600" height="280" xmlns="http://www.w3.org/2000/svg">
<style>
  .tooth {
  fill: rgba(255, 255, 255, 1);
stroke: #CEF3FF;
stroke-width: 2;
stroke-linecap: round;
stroke-linejoin: round;
z-index: 1;
transition: all 0.4s ease;
stroke: rgba(74, 144, 226, 0.33);
stroke-width: 1;
  }
</style>
<path id="tooth-28" class="tooth" d="M578.3,101.8c14.3,3.6,12.8,61.1,7.8,57.4c0,0-8-8-15.3-12.2c-1.9-1.1,3-19.3-11-34.4
    C557.9,110.6,573.5,100.6,578.3,101.8"></path>
                                <path id="tooth-27" class="tooth" d="M554.1,115.9c14.4,3.2,14.6,60.7,9.4,57.2c0,0-8.3-7.7-15.6-11.7c-1.9-1,2.4-19.4-12-34
    C533.9,125.3,549.3,114.8,554.1,115.9"></path>
                                <path id="tooth-26" class="tooth" d="M524.9,126.2c7.4,0.1,21.9,18.4,18.8,50.9c-0.7,7.8-3.1,22-11.8,16.5c0,0-6.1-14.9-18.5-21
    c-3.2-1.6-6.6-4.6-7.3-8.1l-2.1-24.1C500.7,129.4,517.2,126.2,524.9,126.2z"></path>
                                <path id="tooth-25" class="tooth active" d="M490,133.5c8.9-0.8,14.4,21.7,13.3,48.7c-0.3,8-2.1,22.5-11.5,17.4c0,0-26.2-18.1-26.2-27v-22.4
    C465.7,141.5,469.8,135.4,490,133.5z"></path>
                                <path id="tooth-24" class="tooth" d="M446.1,225.8c6-0.7,14.2-18.8,15.3-38.2c0.2-2.7,0.4-40,0.4-40c-0.7-8.3-6.4-9-10.8-8.2
    l-29.9,5.6c-7,1.3-9.9,4.3-9.7,12.6l0.1,27.4c0,4.4,1.4,8.7,3.9,12.4C423.8,209.8,437.6,227.4,446.1,225.8z"></path>
                                <path id="tooth-23" class="tooth" d="M386.5,227.3c5.9,0,16.1-19.7,19.6-39c0.5-2.7,1-7.1,0.9-9.9l-0.7-25c-0.3-4.3-4.1-7.6-8.6-7.3
    l-29.5,2.1c-6.9,0.5-11.7,6.3-11.6,13.2l0,21.8c0,6.5,1.2,13,3.9,18.9C366.1,214.6,376.6,227.9,386.5,227.3z"></path>
                                <path id="tooth-22" class="tooth" d="M327.7,221.7c13.9,0,25.2-29.3,25.2-43v-17.5c0-6.8-5.6-12.3-12.6-12.3h-25.2
    c-7,0-12.6,5.5-12.6,12.3v16.9C302.5,191.7,313.8,221.7,327.7,221.7z"></path>
                                <path id="tooth-21" class="tooth" d="M272.3,221.7c-13.9,0-25.2-29.3-25.2-43v-17.5c0-6.8,5.6-12.3,12.6-12.3h25.2
    c7,0,12.6,5.5,12.6,12.3v16.9C297.5,191.7,286.2,221.7,272.3,221.7z"></path>
                                <path id="tooth-20" class="tooth" d="M213.5,227.3c-5.9,0-16.1-19.7-19.6-39c-0.5-2.7-1-7.1-0.9-9.9l0.7-25c0.3-4.3,4.1-7.6,8.6-7.3
    l29.5,2.1c6.9,0.5,11.7,6.3,11.6,13.2l0,21.8c0,6.5-1.2,13-3.9,18.9C233.9,214.6,223.4,227.9,213.5,227.3z"></path>
                                <path id="tooth-19" class="tooth" d="M153.9,225.8c-6-0.7-14.2-18.8-15.3-38.2c-0.2-2.7-0.4-40-0.4-40c0.7-8.3,6.4-9,10.8-8.2
    l29.9,5.6c7,1.3,9.9,4.3,9.7,12.6l-0.1,27.4c0,4.4-1.4,8.7-3.9,12.4C176.2,209.8,162.4,227.4,153.9,225.8z"></path>
                                <path id="tooth-18" class="tooth" d="M110,133.5c-8.9-0.8-14.4,21.7-13.3,48.7c0.3,8,2.1,22.5,11.5,17.4c0,0,26.2-18.1,26.2-27v-22.4
    C134.4,141.5,130.2,135.4,110,133.5z"></path>
                                <path id="tooth-17" class="tooth" d="M75.1,126.2c-7.4,0.1-21.9,18.4-18.8,50.9c0.7,7.8,3.1,22,11.8,16.5c0,0,6.1-14.9,18.5-21
    c3.2-1.6,6.6-4.6,7.3-8.1l2.1-24.1C99.3,129.4,82.9,126.2,75.1,126.2z"></path>
                                <path id="tooth-16" class="tooth" d="M45.9,115.9c-14.4,3.2-14.6,60.7-9.4,57.2c0,0,8.3-7.7,15.6-11.7c1.9-1-2.4-19.4,12-34
    C66.1,125.3,50.8,114.8,45.9,115.9"></path>
                                <path id="tooth-15" class="tooth" d="M21.7,101.8c-14.3,3.6-12.8,61.1-7.8,57.4c0,0,8-8,15.3-12.2c1.9-1.1-3-19.3,11-34.4
    C42.1,110.6,26.5,100.6,21.7,101.8"></path>
                                <path id="tooth-14" class="tooth" d="M585.1,42.2c3.6-0.7,9.6-10.4,10.2-18.9c0,0,1.3-7.9,1.3-14.7c0-14.4-18.2-2.2-18.4,5.9
    c-0.1,5.3-0.9,20.4-0.9,20.4C576.5,42.1,582.4,42.7,585.1,42.2"></path>
                                <path id="tooth-13" class="tooth" d="M559.4,57.1c4.5-0.8,11.8-12.7,12.5-23.1c0,0,1.5-9.7,1.5-17.9c0-17.6-22.4-2.7-22.7,7.2
    c-0.2,6.5-1.1,25-1.1,25C548.8,57,556.1,57.7,559.4,57.1"></path>
                                <path id="tooth-12" class="tooth" d="M527.9,72c5.6-1,14.8-15,15.7-27.3c0,0,1.9-11.4,1.9-21.2c0-20.8-28-3.2-28.4,8.6
    c-0.2,7.7-1.4,29.5-1.4,29.5C514.7,71.8,523.8,72.8,527.9,72"></path>
                                <path id="tooth-11" class="tooth" d="M490.3,88.4c6.3-1.2,16.7-17.6,17.6-32.1c0,0,2.2-13.5,2.2-24.9c0-24.5-31.5-3.8-31.9,10.1
    c-0.3,9.1-1.6,34.7-1.6,34.7C475.4,88.2,485.7,89.3,490.3,88.4"></path>
                                <path id="tooth-10" class="tooth" d="M454.7,99.7c9.1,0,15.5-17,15.5-27.9c0,0,1.7-35.4,0.4-47.5c-1.7-15-32.4,4.4-35.5,27.2
    c-1.3,10-0.3,28.1-0.3,28.1C436,97.4,447.3,99.7,454.7,99.7z"></path>
                                <path id="tooth-9" class="tooth" d="M390.3,101.2h15.5c12.4,0,22.5-10.1,22.5-22.5c0-50.6-12.8-58.9-22.4-58.7
    c-11.3,0.2-29.7,11.5-31.6,37.3c-0.8,11.6-0.5,19.7-0.5,27.4C373.8,93.8,381.2,101.2,390.3,101.2z"></path>
                                <path id="tooth-8" class="tooth" d="M334.3,18.2c21.7,0,31.7,37.9,33.5,69.1c0,11.3-9.1,20.5-20.4,20.5h-26.1
    c-11.2,0-18.4-7.2-18.4-18.5C302.9,71.9,302.9,21.3,334.3,18.2z"></path>
                                <path id="tooth-7" class="tooth" d="M265.7,18.2c-21.7,0-31.7,37.9-33.5,69.1c0,11.3,9.1,20.5,20.4,20.5h26.1
    c11.2,0,18.4-7.2,18.4-18.5C297.1,71.9,297.1,21.3,265.7,18.2z"></path>
                                <path id="tooth-6" class="tooth" d="M209.5,101.2H194c-12.4,0-22.5-10.1-22.5-22.5c0-50.6,12.8-58.9,22.4-58.7
    c11.3,0.2,29.7,11.5,31.6,37.3c0.8,11.6,0.5,19.7,0.5,27.4C226,93.8,218.6,101.2,209.5,101.2z"></path>
                                <path id="tooth-5" class="tooth" d="M145.1,99.7c-9.1,0-15.5-17-15.5-27.9c0,0-1.7-35.4-0.4-47.5c1.7-15,32.4,4.4,35.5,27.2
    c1.3,10,0.3,28.1,0.3,28.1C163.8,97.4,152.5,99.7,145.1,99.7z"></path>
                                <path id="tooth-4" class="tooth" d="M109.5,88.4c-6.3-1.2-16.7-17.6-17.6-32.1c0,0-2.2-13.5-2.2-24.9c0-24.5,31.5-3.8,31.9,10.1
    c0.3,9.1,1.6,34.7,1.6,34.7C124.4,88.2,114.1,89.3,109.5,88.4"></path>
                                <path id="tooth-3" class="tooth" d="M71.9,72c-5.6-1-14.8-15-15.7-27.3c0,0-1.9-11.4-1.9-21.2c0-20.8,28-3.2,28.4,8.6
    c0.2,7.7,1.4,29.5,1.4,29.5C85.1,71.8,76,72.8,71.9,72"></path>
                                <path id="tooth-2" class="tooth" d="M40.4,57.1C35.9,56.3,28.6,44.4,27.9,34c0,0-1.5-9.7-1.5-17.9c0-17.6,22.4-2.7,22.7,7.2
    c0.2,6.5,1.1,25,1.1,25C51,57,43.6,57.7,40.4,57.1"></path>
                                <path id="tooth-1" class="tooth" d="M14.7,42.2c-3.6-0.7-9.6-10.4-10.2-18.9c0,0-1.3-7.9-1.3-14.7c0-14.4,18.2-2.2,18.4,5.9
    c0.1,5.3,0.9,20.4,0.9,20.4C23.3,42.1,17.4,42.7,14.7,42.2"></path>
                    </svg>
