<?xml version="1.0" encoding="utf-8"?>
<!-- Generator: Adobe Illustrator 19.2.1, SVG Export Plug-In . SVG Version: 6.00 Build 0)  -->
<svg version="1.1" id="Слой_1" xmlns="http://www.w3.org/2000/svg" xmlns:xlink="http://www.w3.org/1999/xlink" x="0px" y="0px"
	 viewBox="0 0 20 20" style="enable-background:new 0 0 20 20;" xml:space="preserve">
<style type="text/css">
	.st0{fill:#0D0F0F;}
</style>
<g>
	<path d="M3.8,14.4L3.8,14.4c1,0,1.8,0.8,1.8,1.8v0c0,1-0.8,1.8-1.8,1.8h0c-1,0-1.8-0.8-1.8-1.8v0C2,15.2,2.8,14.4,3.8,14.4z"/>
	<path d="M3.8,8.2L3.8,8.2c1,0,1.8,0.8,1.8,1.8v0c0,1-0.8,1.8-1.8,1.8h0C2.8,11.8,2,11,2,10v0C2,9,2.8,8.2,3.8,8.2z"/>
	<path d="M3.8,2L3.8,2c1,0,1.8,0.8,1.8,1.8v0c0,1-0.8,1.8-1.8,1.8h0C2.8,5.6,2,4.8,2,3.8v0C2,2.8,2.8,2,3.8,2z"/>
	<path d="M10,14.4L10,14.4c1,0,1.8,0.8,1.8,1.8v0c0,1-0.8,1.8-1.8,1.8h0c-1,0-1.8-0.8-1.8-1.8v0C8.2,15.2,9,14.4,10,14.4z"/>
	<path d="M10,8.2L10,8.2c1,0,1.8,0.8,1.8,1.8v0c0,1-0.8,1.8-1.8,1.8h0c-1,0-1.8-0.8-1.8-1.8v0C8.2,9,9,8.2,10,8.2z"/>
	<path d="M10,2L10,2c1,0,1.8,0.8,1.8,1.8v0c0,1-0.8,1.8-1.8,1.8h0c-1,0-1.8-0.8-1.8-1.8v0C8.2,2.8,9,2,10,2z"/>
	<path d="M16.2,14.4L16.2,14.4c1,0,1.8,0.8,1.8,1.8v0c0,1-0.8,1.8-1.8,1.8h0c-1,0-1.8-0.8-1.8-1.8v0C14.4,15.2,15.2,14.4,16.2,14.4z"/>
	<path d="M16.2,8.2L16.2,8.2c1,0,1.8,0.8,1.8,1.8v0c0,1-0.8,1.8-1.8,1.8h0c-1,0-1.8-0.8-1.8-1.8v0C14.4,9,15.2,8.2,16.2,8.2z"/>
	<path d="M16.2,2L16.2,2c1,0,1.8,0.8,1.8,1.8v0c0,1-0.8,1.8-1.8,1.8h0c-1,0-1.8-0.8-1.8-1.8v0C14.4,2.8,15.2,2,16.2,2z"/>
</g>
</svg>
