<?xml version="1.0" encoding="utf-8"?>
<!-- Generator: Adobe Illustrator 19.2.1, SVG Export Plug-In . SVG Version: 6.00 Build 0)  -->
<svg version="1.1" id="Слой_1" xmlns="http://www.w3.org/2000/svg" xmlns:xlink="http://www.w3.org/1999/xlink" x="0px" y="0px"
	 viewBox="0 0 20 20" style="enable-background:new 0 0 20 20;" xml:space="preserve">
<style type="text/css">
	.st0{fill:#0D0F0F;}
</style>
<g>
	<path class="st0" d="M14.5,8.3h-1.1c0-0.4-0.2-0.9-0.5-1.2s-0.7-0.5-1.2-0.5V5.5c0.7,0,1.5,0.3,2,0.8C14.2,6.9,14.5,7.6,14.5,8.3z"/>
	<path d="M16.7,8.3h-1.1c0-1-0.4-2-1.2-2.8c-0.7-0.7-1.7-1.2-2.8-1.2V3.3c1.3,0,2.6,0.5,3.6,1.5C16.2,5.7,16.7,7,16.7,8.3z"/>
	<path d="M12.4,13.1l1.3-1.3c0.2-0.2,0.4-0.3,0.6-0.3c0.2,0,0.5,0,0.7,0.1l1.5,0.6c0.2,0.1,0.4,0.2,0.6,0.4c0.1,0.2,0.2,0.4,0.2,0.7v2.8c0,0.2,0,0.3-0.1,0.5c-0.1,0.2-0.2,0.3-0.3,0.4c-0.1,0.1-0.3,0.2-0.4,0.3c-0.2,0.1-0.3,0.1-0.5,0.1C5.3,16.6,3.1,7.5,2.7,4c0-0.2,0-0.3,0-0.5C2.8,3.4,2.9,3.2,3,3.1s0.3-0.2,0.4-0.3c0.2-0.1,0.3-0.1,0.5-0.1h2.7c0.2,0,0.5,0.1,0.7,0.2C7.5,3,7.7,3.2,7.8,3.5L8.4,5c0.1,0.2,0.1,0.5,0.1,0.7c0,0.2-0.2,0.4-0.3,0.6L6.9,7.6C6.9,7.6,7.6,12.5,12.4,13.1z"/>
</g>
</svg>
