<svg width="37" height="30" viewBox="0 0 37 30" fill="none" xmlns="http://www.w3.org/2000/svg">
<path d="M0.934322 13.1287C0.934322 22.6639 4.72762 27.4928 13.6301 29.2714C13.6553 29.2746 13.6804 29.2777 13.7056 29.2777C13.7969 29.2777 13.8851 29.2463 13.9575 29.1896C14.0488 29.1172 14.0991 29.0007 14.0991 28.8842V23.964C14.0991 23.8192 14.0204 23.6869 13.8976 23.6208C10.0477 21.5211 8.12428 18.2158 8.02669 13.5253H13.7056C13.9197 13.5253 14.0991 13.349 14.0991 13.1318V0.750859C14.0991 0.533649 13.9197 0.357361 13.7056 0.357361H1.32782C1.10746 0.357361 0.934322 0.533649 0.934322 0.750859V13.1287Z" fill="#333333"/>
<path d="M22.8599 13.1287C22.8599 22.8118 27.1443 28.2452 35.5871 29.2746C35.606 29.2777 35.6186 29.2777 35.6375 29.2777C35.7288 29.2777 35.8295 29.2431 35.8956 29.1801C35.9806 29.1077 36.031 28.9976 36.031 28.8842V23.964C36.031 23.8192 35.9523 23.6869 35.8295 23.6208C31.9796 21.5211 30.0562 18.2158 29.9586 13.5253H35.6375C35.8516 13.5253 36.031 13.349 36.031 13.1318V0.750859C36.031 0.533649 35.8516 0.357361 35.6375 0.357361H23.2534C23.0393 0.357361 22.8599 0.533649 22.8599 0.750859V13.1287Z" fill="#333333"/>
</svg>
