<svg width="46" height="46" xmlns="http://www.w3.org/2000/svg" viewBox="0 0 46 46">
<path fill="#4D9FAB" d="M44.4,4.8H32.6c-2.5,0-5,0.7-7.1,2.1L23,8.5l-2.5-1.6c-2.1-1.4-4.6-2.1-7.1-2.1H1.6C0.7,4.8,0,5.5,0,6.4v29.5c0,0.9,0.7,1.7,1.6,1.7h11.7c2.5,0,5,0.7,7.1,2.1l2.3,1.5c0.1,0,0.1,0.1,0.2,0.1s0.2,0,0.2-0.1l2.3-1.5c2.1-1.4,4.6-2.1,7.1-2.1h11.7c0.9,0,1.6-0.7,1.6-1.7V6.4C46,5.5,45.3,4.8,44.4,4.8z M17.5,25.1c0,0.2-0.2,0.4-0.4,0.4H7.6c-0.2,0-0.4-0.2-0.4-0.4v-2.3c0-0.2,0.2-0.4,0.4-0.4h9.5c0.2,0,0.4,0.2,0.4,0.4L17.5,25.1L17.5,25.1z M17.5,17.9c0,0.2-0.2,0.4-0.4,0.4H7.6c-0.2,0-0.4-0.2-0.4-0.4v-2.3c0-0.2,0.2-0.4,0.4-0.4h9.5c0.2,0,0.4,0.2,0.4,0.4L17.5,17.9L17.5,17.9z M38.8,25.1c0,0.2-0.2,0.4-0.4,0.4h-9.5c-0.2,0-0.4-0.2-0.4-0.4v-2.3c0-0.2,0.2-0.4,0.4-0.4h9.5c0.2,0,0.4,0.2,0.4,0.4L38.8,25.1L38.8,25.1z M38.8,17.9c0,0.2-0.2,0.4-0.4,0.4h-9.5c-0.2,0-0.4-0.2-0.4-0.4v-2.3c0-0.2,0.2-0.4,0.4-0.4h9.5c0.2,0,0.4,0.2,0.4,0.4L38.8,17.9L38.8,17.9z"/>
</svg>
