<svg width="65" height="65" viewBox="0 0 65 65" fill="none" xmlns="http://www.w3.org/2000/svg">
<path fill-rule="evenodd" clip-rule="evenodd" d="M32.5 65C50.4493 65 65 50.4493 65 32.5C65 14.5507 50.4493 0 32.5 0C14.5507 0 0 14.5507 0 32.5C0 50.4493 14.5507 65 32.5 65ZM30.5479 37.8085H35.5935C38.3333 37.8085 40.612 36.9404 42.4295 35.2043C44.2741 33.441 45.1964 31.2573 45.1964 28.6531C45.1964 26.049 44.2606 23.8245 42.3888 21.9799C40.5442 20.1353 38.2791 19.213 35.5935 19.213H24.9733V32.8849H21.9215V37.8085H24.9733V40.0465H21.9215V43.6272H24.9733V47.6963H30.5479V43.6272H39.6219V40.0465H30.5479V37.8085ZM30.5479 24.462H35.5935C36.7328 24.462 37.6823 24.8689 38.4418 25.6827C39.2285 26.4694 39.6219 27.4596 39.6219 28.6531C39.6219 29.8467 39.2285 30.8504 38.4418 31.6642C37.6823 32.478 36.7328 32.8849 35.5935 32.8849H30.5479V24.462Z" fill="#12A4B6"/>
</svg>
