<svg width="50" height="50" viewBox="0 0 50 50" fill="none" xmlns="http://www.w3.org/2000/svg">
<path d="M25.0005 49.9489C38.7795 49.9489 49.9495 38.7789 49.9495 24.9999C49.9495 11.2209 38.7795 0.0507812 25.0005 0.0507812C11.2215 0.0507812 0.0513916 11.2209 0.0513916 24.9999C0.0513916 38.7789 11.2215 49.9489 25.0005 49.9489Z" fill="#FF4016"/>
<path d="M34.0279 40.6622H28.551V13.5742H26.1112C21.639 13.5742 19.2964 15.8103 19.2964 19.1483C19.2964 22.9353 20.9121 24.69 24.2547 26.9261L27.0093 28.7826L19.0927 40.6576H13.2038L20.3288 30.0557C16.2316 27.1298 13.926 24.2733 13.926 19.4539C13.926 13.4307 18.1251 9.3335 26.0742 9.3335H33.9908V40.6529H34.0279V40.6622Z" fill="#F6FAFB"/>
</svg>
