<?xml version="1.0" standalone="no"?>
<!DOCTYPE svg PUBLIC "-//W3C//DTD SVG 20010904//EN"
 "http://www.w3.org/TR/2001/REC-SVG-20010904/DTD/svg10.dtd">
<svg version="1.0" xmlns="http://www.w3.org/2000/svg"
 width="1056.000000pt" height="1056.000000pt" viewBox="0 0 1056.000000 1056.000000"
 preserveAspectRatio="xMidYMid meet">
<metadata>
Created by potrace 1.14, written by Peter Selinger 2001-2017
</metadata>
<g transform="translate(0.000000,1056.000000) scale(0.100000,-0.100000)"
fill="#000000" stroke="none">
<path d="M4499 8076 c-2 -2 -56 -7 -120 -10 -63 -4 -126 -9 -140 -11 -13 -2
-55 -7 -94 -9 -38 -3 -79 -7 -90 -9 -11 -3 -46 -8 -79 -12 -32 -3 -68 -8 -80
-10 -20 -4 -57 -9 -133 -21 -21 -3 -45 -7 -53 -9 -8 -2 -31 -7 -50 -10 -58
-10 -285 -59 -362 -79 -99 -26 -332 -96 -378 -113 -8 -3 -19 -7 -25 -8 -24 -6
-219 -81 -315 -122 -297 -127 -679 -345 -855 -490 -5 -5 -28 -22 -50 -38 -22
-17 -45 -34 -51 -40 -6 -5 -37 -32 -69 -60 -32 -27 -64 -56 -71 -63 -8 -8 -49
-20 -92 -28 -148 -26 -159 -29 -262 -54 -47 -11 -98 -25 -115 -30 -200 -64
-355 -134 -495 -226 -25 -16 -46 -32 -48 -36 -2 -5 -8 -8 -13 -8 -25 0 -199
-173 -262 -261 -88 -124 -153 -283 -182 -442 -13 -75 -15 -347 -2 -412 2 -11
7 -40 11 -65 15 -85 66 -265 96 -335 5 -11 19 -45 32 -75 58 -138 167 -329
260 -458 22 -29 47 -71 57 -95 44 -101 85 -183 131 -260 74 -121 68 -112 130
-192 111 -141 242 -272 388 -388 57 -45 109 -84 115 -86 7 -2 14 -7 17 -11 17
-24 268 -172 410 -242 206 -101 521 -231 700 -288 30 -10 111 -36 180 -58 173
-56 537 -156 645 -178 58 -11 68 -14 83 -18 9 -3 28 -8 42 -10 14 -3 70 -15
125 -26 55 -12 111 -23 125 -26 14 -2 48 -9 75 -14 28 -5 66 -12 85 -14 19 -3
46 -7 60 -10 55 -11 87 -16 130 -21 25 -3 52 -8 60 -10 8 -2 38 -7 65 -10 28
-4 61 -8 75 -10 52 -8 126 -18 155 -20 29 -2 106 -11 195 -21 25 -3 70 -7 100
-9 30 -2 85 -6 121 -9 207 -17 328 -21 749 -21 484 0 730 7 1035 30 44 3 107
8 140 11 33 2 83 6 110 9 28 3 77 7 110 10 33 4 76 8 95 11 19 2 60 6 90 9 30
3 87 9 125 15 39 5 90 12 115 15 82 11 114 16 200 30 47 8 101 17 120 19 37 5
62 10 145 26 28 6 61 12 75 15 14 2 57 11 95 20 39 8 79 16 90 18 11 2 34 7
50 11 17 5 93 23 170 43 147 36 259 68 385 110 41 14 82 26 90 28 14 4 71 24
211 78 330 125 682 324 911 514 363 300 675 771 738 1114 6 30 13 65 17 79 10
42 11 328 1 373 -5 23 -11 51 -13 62 -14 84 -62 218 -115 322 -44 85 -137 231
-167 261 -7 7 -13 16 -14 20 0 4 -2 16 -5 27 -2 11 -5 38 -8 60 -6 58 -25 161
-43 230 -8 33 -17 70 -19 83 -8 41 -71 227 -109 317 -146 355 -400 658 -715
853 -155 96 -478 227 -640 258 -14 3 -41 9 -60 14 -40 10 -82 19 -125 26 -16
2 -41 7 -53 10 -13 3 -43 7 -65 10 -23 3 -53 7 -67 10 -14 3 -50 8 -80 11 -30
2 -71 6 -90 8 -58 5 -318 17 -440 19 -72 1 -134 8 -165 18 -114 36 -199 60
-370 104 -99 25 -189 47 -200 50 -11 2 -40 8 -65 14 -64 14 -136 28 -230 45
-19 3 -66 12 -105 20 -38 8 -92 17 -120 20 -27 3 -63 9 -80 12 -16 3 -40 7
-52 9 -13 1 -42 5 -65 9 -70 11 -90 14 -143 20 -27 3 -64 7 -81 10 -17 2 -60
7 -95 10 -35 3 -75 8 -89 10 -14 2 -61 7 -105 10 -44 3 -96 8 -115 10 -19 2
-84 7 -145 10 -60 4 -132 9 -160 11 -62 6 -831 14 -836 10z m381 -76 c0 -3 66
-5 148 -6 130 -1 362 -10 462 -19 19 -1 79 -6 133 -9 53 -4 105 -9 115 -10 9
-2 53 -7 96 -11 44 -3 93 -8 110 -10 17 -2 56 -6 87 -10 31 -3 65 -7 75 -9 11
-2 44 -7 74 -10 30 -4 66 -8 80 -11 14 -2 43 -6 65 -9 22 -4 51 -8 65 -11 14
-2 41 -7 60 -9 19 -3 46 -8 60 -11 25 -5 56 -10 126 -20 20 -3 39 -7 43 -9 3
-3 27 -7 51 -11 25 -4 72 -13 105 -20 33 -8 75 -17 94 -20 19 -3 37 -8 41 -10
4 -2 22 -7 41 -10 19 -3 52 -11 74 -16 22 -6 48 -13 57 -15 96 -22 172 -44
182 -54 7 -7 -10 -10 -50 -11 -32 -1 -70 -3 -84 -4 -14 -2 -61 -6 -105 -9
-125 -9 -228 -18 -345 -32 -48 -6 -70 -8 -165 -19 -33 -3 -73 -8 -90 -11 -16
-3 -50 -7 -75 -10 -25 -2 -52 -6 -60 -9 -8 -2 -37 -7 -65 -10 -57 -6 -92 -11
-150 -20 -50 -8 -148 -23 -200 -30 -22 -4 -47 -8 -55 -10 -8 -2 -35 -7 -60
-10 -25 -3 -70 -10 -100 -16 -30 -5 -72 -12 -93 -15 -21 -3 -46 -7 -54 -8 -9
-2 -35 1 -57 5 -23 4 -66 10 -96 14 -30 4 -68 9 -85 11 -16 2 -52 6 -80 9 -27
3 -60 7 -72 9 -12 3 -50 7 -85 11 -35 3 -74 8 -88 10 -14 2 -50 6 -80 10 -30
3 -77 8 -105 11 -50 5 -87 8 -225 20 -132 10 -162 12 -335 20 -330 15 -704 7
-920 -20 -27 -4 -72 -9 -100 -11 -27 -3 -61 -7 -75 -10 -47 -7 -103 -17 -124
-21 -11 -2 -36 -7 -53 -10 -18 -3 -92 -21 -165 -40 -73 -19 -140 -36 -148 -38
-39 -10 -359 -118 -387 -131 -17 -8 -35 -15 -39 -15 -4 0 -26 -9 -48 -19 -23
-11 -66 -30 -96 -42 -101 -42 -404 -197 -477 -245 -13 -8 -23 -12 -23 -10 0 5
86 77 134 111 15 11 37 28 49 39 34 29 300 205 337 222 8 4 31 17 51 30 75 46
338 175 469 229 36 14 79 32 95 40 94 41 515 171 684 210 97 23 354 72 421 81
19 3 46 7 60 9 14 3 49 8 79 11 30 3 63 8 74 10 11 2 52 6 91 10 39 3 82 7 96
10 49 7 267 18 397 18 73 1 133 3 133 6 0 3 23 5 50 5 28 0 50 -2 50 -5z
m2821 -441 c326 -110 730 -293 941 -426 21 -12 42 -23 47 -23 5 0 11 -3 13 -7
4 -9 64 -53 73 -53 9 0 234 -160 261 -185 6 -5 28 -23 50 -40 51 -39 302 -290
334 -334 14 -19 34 -46 45 -60 46 -58 78 -104 69 -99 -5 3 -58 34 -119 69
-247 141 -541 275 -857 389 -62 23 -120 44 -128 47 -8 4 -17 7 -20 8 -11 2
-86 27 -100 32 -8 3 -19 7 -25 9 -5 1 -48 14 -95 29 -125 39 -252 76 -280 82
-14 2 -32 7 -40 9 -8 3 -16 5 -17 5 -2 0 -35 9 -75 21 -40 11 -82 22 -93 23
-11 2 -47 11 -80 19 -33 8 -71 17 -85 20 -14 2 -77 16 -140 30 -63 14 -126 27
-140 29 -14 3 -65 13 -115 22 -49 9 -121 22 -160 30 -38 7 -86 16 -105 19 -19
3 -46 8 -60 11 -52 10 -146 28 -167 30 -12 2 -34 6 -50 9 -15 4 -41 9 -58 12
-26 4 -53 9 -175 30 -14 3 -36 7 -50 9 -44 9 -374 64 -408 69 -36 5 -54 15
-31 17 24 2 53 7 84 13 17 3 48 8 70 11 22 2 54 7 70 10 66 11 92 15 135 20
25 3 56 7 70 10 14 2 45 7 70 10 25 3 56 8 70 10 37 7 142 19 168 19 12 1 22
3 22 6 0 3 15 5 33 6 17 0 61 4 97 8 66 8 82 9 205 21 96 9 142 12 265 20 58
4 106 8 107 9 1 1 64 3 141 4 134 3 142 2 233 -29z m444 16 c17 -3 55 -7 85
-10 30 -3 73 -7 95 -10 22 -3 56 -8 75 -10 19 -2 46 -7 60 -9 14 -3 59 -12
100 -21 106 -21 116 -24 195 -46 38 -11 75 -22 80 -23 6 -2 17 -5 25 -8 8 -3
38 -14 65 -23 57 -20 84 -31 175 -72 36 -16 67 -29 70 -29 3 1 19 -9 37 -22
17 -12 34 -22 38 -22 9 0 203 -133 249 -172 88 -73 213 -206 266 -283 19 -27
37 -52 40 -55 9 -9 60 -89 60 -95 0 -3 11 -22 25 -43 31 -48 115 -234 149
-333 24 -71 80 -278 90 -331 2 -13 7 -42 11 -65 l6 -41 -77 75 c-76 72 -198
174 -318 264 -32 24 -67 58 -76 76 -18 34 -97 158 -117 183 -188 241 -370 415
-598 576 -38 27 -71 52 -73 56 -2 5 -8 8 -12 8 -5 0 -54 29 -109 65 -55 36
-103 65 -106 65 -3 0 -22 11 -43 23 -49 31 -248 134 -337 174 -38 17 -96 43
-128 58 -32 14 -108 46 -170 71 l-112 44 125 -5 c69 -3 139 -8 155 -10z
m-3885 -80 c183 -8 237 -11 330 -20 41 -3 98 -8 125 -10 112 -10 181 -17 205
-20 14 -2 50 -6 80 -10 30 -3 71 -8 90 -10 30 -4 112 -13 172 -20 36 -3 27
-12 -19 -18 -27 -4 -60 -9 -75 -12 -16 -3 -38 -7 -50 -9 -13 -2 -52 -9 -88
-16 -36 -7 -74 -13 -85 -15 -11 -1 -36 -5 -55 -9 -115 -21 -310 -55 -340 -60
-19 -3 -44 -7 -55 -9 -26 -5 -80 -15 -125 -22 -19 -3 -87 -14 -150 -25 -63
-11 -131 -22 -150 -24 -19 -3 -73 -12 -120 -20 -47 -8 -101 -17 -120 -20 -19
-2 -55 -8 -80 -12 -25 -4 -57 -7 -72 -8 -16 -1 -28 -5 -28 -9 0 -5 -4 -6 -9
-3 -5 3 -33 1 -64 -4 -30 -6 -72 -12 -93 -15 -44 -4 -112 -13 -164 -20 -35 -5
-84 -11 -167 -20 -24 -3 -64 -7 -90 -11 -26 -3 -72 -7 -102 -9 -31 -3 -78 -7
-106 -9 -201 -20 -303 -25 -585 -31 -135 -3 -291 -7 -348 -9 -56 -2 -100 -1
-98 3 2 3 37 22 78 41 40 19 75 37 78 40 23 26 554 234 650 255 8 2 52 15 96
28 85 26 325 83 385 91 19 3 52 8 74 11 22 3 51 7 65 10 14 2 57 7 95 11 39 4
84 8 100 10 17 2 95 6 175 10 80 3 146 7 147 8 4 4 355 -2 493 -9z m1585 -176
c99 -16 194 -32 210 -34 17 -2 39 -6 50 -8 11 -3 40 -8 65 -11 25 -4 79 -13
120 -21 41 -8 91 -16 110 -19 19 -3 45 -8 56 -10 12 -2 37 -7 55 -10 58 -10
92 -16 148 -27 30 -6 64 -13 75 -14 43 -7 127 -22 321 -60 72 -14 148 -28 170
-31 21 -3 43 -8 47 -10 5 -3 23 -7 41 -10 34 -4 47 -7 117 -23 25 -5 56 -12
70 -15 34 -7 41 -9 230 -56 155 -39 256 -66 290 -78 8 -3 20 -6 27 -8 29 -6
388 -121 418 -134 11 -5 72 -27 135 -51 63 -23 133 -50 155 -60 22 -10 68 -29
101 -43 34 -14 105 -46 159 -71 53 -25 99 -45 102 -45 3 0 18 -9 34 -21 16
-11 29 -17 29 -14 0 4 15 -2 33 -13 17 -11 59 -34 92 -52 33 -18 119 -69 192
-113 132 -81 132 -81 164 -146 31 -67 85 -223 95 -275 3 -16 6 -32 8 -35 8
-14 19 -133 21 -231 1 -91 -12 -221 -29 -285 -28 -106 -40 -143 -65 -202 -65
-152 -140 -271 -261 -418 -62 -75 -245 -247 -335 -315 -55 -41 -102 -77 -105
-80 -3 -3 -30 -21 -60 -40 -30 -19 -56 -38 -58 -42 -2 -5 -7 -8 -12 -8 -5 0
-46 -23 -92 -51 -241 -149 -629 -311 -1068 -447 -171 -54 -655 -165 -810 -188
-19 -3 -46 -7 -60 -10 -14 -2 -36 -6 -50 -9 -13 -3 -42 -7 -65 -10 -22 -3 -67
-10 -100 -15 -33 -5 -80 -12 -105 -15 -25 -3 -56 -8 -70 -10 -14 -2 -50 -7
-80 -10 -30 -3 -66 -8 -80 -10 -14 -2 -56 -6 -95 -10 -38 -3 -86 -8 -105 -10
-53 -6 -281 -23 -390 -30 -279 -16 -482 -20 -1030 -20 -645 0 -869 6 -1100 30
-30 3 -77 8 -105 10 -27 3 -66 7 -85 10 -108 14 -125 17 -130 20 -3 2 -29 6
-59 10 -30 4 -63 9 -75 11 -61 11 -175 37 -201 44 -16 5 -41 11 -55 14 -14 2
-51 11 -82 21 -32 9 -60 16 -63 16 -9 -1 -270 89 -287 99 -10 6 -22 10 -27 10
-17 0 -221 90 -343 151 -359 179 -567 320 -773 524 -251 248 -424 570 -469
870 -3 17 -8 50 -12 75 -7 53 -8 267 0 325 7 54 17 113 22 139 3 11 7 32 10
46 6 32 33 130 41 150 3 8 7 20 9 27 12 60 127 300 196 409 113 182 175 254
294 345 167 128 281 199 323 200 20 0 45 2 56 4 24 5 271 14 570 20 211 5 271
8 415 20 176 14 218 17 250 21 53 5 152 16 180 19 14 2 51 6 83 10 32 3 67 8
77 10 10 2 43 6 72 9 97 11 197 24 228 31 14 3 45 8 70 11 73 9 90 11 200 28
102 16 121 19 185 31 17 3 59 10 95 15 36 6 76 13 90 16 14 2 41 7 60 10 19 3
46 7 60 10 14 3 41 7 60 10 19 2 71 11 115 19 44 8 94 17 110 20 17 3 41 7 55
10 14 2 66 11 115 20 50 8 104 17 120 20 17 3 53 10 80 15 28 5 66 12 85 14
19 3 46 8 60 11 14 3 41 8 60 11 19 3 42 7 50 9 8 2 33 7 55 10 22 3 74 12
115 20 92 17 153 13 385 -26z m-4495 -477 c0 -14 -108 -130 -286 -307 -175
-175 -249 -260 -346 -401 -50 -72 -174 -279 -167 -279 1 0 -12 -31 -29 -68
-51 -109 -112 -292 -128 -384 -28 -161 -34 -212 -36 -338 -2 -103 8 -243 21
-297 5 -21 6 -38 2 -38 -9 0 -35 48 -111 200 -51 100 -140 335 -145 380 -1 8
-4 26 -8 40 -18 66 -30 163 -31 240 -1 36 -3 67 -7 70 -5 5 15 216 25 255 29
122 109 299 161 359 14 16 25 32 25 36 0 19 173 177 249 228 128 85 176 111
306 165 113 47 339 113 455 132 19 3 36 8 39 11 7 6 11 5 11 -4z m-449 -638
c-49 -99 -63 -131 -95 -222 -45 -127 -73 -250 -92 -402 -8 -67 -8 -304 0 -345
4 -16 9 -48 12 -70 25 -177 119 -422 223 -583 23 -34 41 -67 41 -72 0 -4 4
-10 8 -12 4 -1 30 -32 57 -68 48 -63 208 -229 290 -301 93 -82 369 -272 379
-261 3 3 6 0 6 -6 0 -7 4 -12 10 -12 5 0 33 -14 62 -31 312 -185 841 -386
1197 -454 34 -6 187 -34 216 -39 17 -3 54 -8 84 -12 54 -6 86 -11 86 -14 0 0
27 -3 60 -5 33 -3 87 -8 120 -11 228 -23 397 -28 1065 -28 602 -1 856 4 1060
19 30 2 93 6 140 10 111 7 194 14 250 20 25 3 74 7 110 10 36 3 75 7 87 9 12
3 53 8 90 11 37 4 77 9 88 11 11 2 43 7 71 9 28 3 61 8 74 10 14 3 42 7 65 10
22 3 51 8 65 10 14 3 41 7 60 10 40 6 133 23 170 30 14 3 41 8 60 11 93 17
216 43 280 59 30 8 69 16 85 20 17 3 89 21 160 41 72 19 139 37 151 39 46 10
390 127 501 171 126 49 171 69 273 117 36 17 67 31 70 31 16 3 259 138 339
187 51 33 95 59 97 59 2 0 12 7 22 15 9 9 59 47 111 85 111 82 211 170 295
259 34 35 68 72 78 82 72 76 207 281 256 389 91 198 126 362 126 575 0 166
-23 302 -75 444 -11 29 -18 55 -16 57 3 3 114 -84 154 -121 100 -94 198 -196
216 -224 19 -31 21 -49 21 -170 -1 -127 -7 -233 -19 -291 -2 -13 -7 -42 -11
-65 -3 -22 -12 -65 -20 -95 -9 -30 -17 -64 -19 -74 -13 -58 -57 -173 -111
-293 -25 -53 -134 -242 -156 -267 -5 -6 -25 -34 -46 -62 -20 -27 -43 -57 -49
-65 -7 -7 -32 -36 -55 -63 -57 -66 -160 -170 -228 -229 -30 -26 -64 -55 -75
-65 -11 -10 -40 -34 -65 -53 -25 -18 -49 -38 -55 -42 -95 -79 -387 -258 -571
-350 -274 -137 -657 -287 -914 -358 -25 -7 -49 -14 -55 -15 -65 -19 -314 -84
-334 -88 -14 -3 -36 -7 -48 -10 -13 -3 -32 -8 -44 -11 -11 -2 -28 -6 -37 -9
-9 -3 -30 -8 -47 -11 -16 -2 -41 -7 -55 -10 -70 -14 -189 -36 -220 -41 -19 -3
-57 -9 -85 -14 -45 -8 -71 -12 -162 -25 -15 -2 -41 -6 -58 -8 -50 -8 -117 -17
-170 -22 -27 -3 -70 -8 -95 -11 -56 -6 -112 -11 -215 -20 -44 -3 -98 -7 -120
-9 -234 -20 -935 -26 -1180 -11 -66 4 -147 9 -180 10 -33 2 -91 6 -130 10 -38
4 -92 9 -120 12 -27 2 -75 6 -105 9 -30 2 -68 6 -85 9 -16 2 -59 8 -95 11 -36
4 -72 9 -81 10 -9 2 -40 6 -69 10 -29 4 -62 9 -74 11 -11 2 -38 6 -61 9 -22 4
-76 12 -120 20 -44 8 -96 16 -115 20 -19 3 -71 13 -115 21 -44 8 -91 17 -105
20 -14 3 -31 7 -39 10 -8 2 -30 7 -50 10 -43 7 -330 77 -426 105 -362 103
-731 234 -970 344 -110 51 -359 177 -396 200 -21 14 -41 25 -43 25 -17 0 -400
248 -416 269 -3 4 -21 18 -40 31 -38 27 -47 34 -166 138 -132 115 -298 296
-319 347 -15 37 -42 131 -56 195 -84 391 3 861 230 1235 23 37 41 69 41 71 0
3 5 10 10 17 6 7 38 50 71 96 34 46 72 96 85 110 13 14 24 30 24 35 0 5 3 7 6
4 3 -3 -13 -41 -35 -84z m9399 -703 c0 -6 4 -11 8 -11 14 0 100 -193 126 -283
35 -119 37 -136 40 -297 3 -134 -5 -209 -37 -335 -31 -118 -160 -396 -213
-456 -8 -8 -14 -19 -14 -23 0 -10 -111 -160 -122 -164 -4 -2 -8 -8 -8 -13 0
-5 -8 -17 -17 -27 -10 -11 -49 -54 -88 -97 -91 -101 -153 -160 -256 -243 -91
-72 -264 -192 -278 -192 -5 0 -11 -4 -13 -8 -5 -15 -269 -153 -413 -217 -137
-61 -585 -221 -585 -209 0 3 -9 0 -20 -6 -10 -6 -99 -31 -197 -56 -184 -47
-198 -51 -247 -60 -16 -2 -32 -7 -35 -9 -4 -2 -26 -6 -51 -10 -25 -4 -47 -8
-50 -10 -3 -2 -23 -6 -45 -9 -22 -4 -47 -8 -55 -11 -8 -2 -31 -6 -50 -9 -19
-3 -46 -8 -60 -11 -13 -2 -42 -7 -65 -10 -22 -3 -47 -8 -55 -10 -8 -2 -33 -6
-55 -10 -22 -3 -67 -10 -100 -15 -94 -14 -139 -20 -186 -25 -24 -2 -60 -7 -79
-9 -75 -11 -194 -24 -265 -30 -27 -3 -79 -7 -115 -11 -396 -36 -707 -49 -1245
-49 -369 -1 -598 5 -770 19 -22 2 -71 6 -110 9 -78 6 -164 15 -210 21 -16 2
-57 7 -90 10 -33 4 -71 8 -85 10 -14 2 -47 7 -75 10 -47 6 -65 9 -132 19 -16
3 -46 7 -68 10 -22 4 -76 13 -120 21 -44 7 -96 16 -115 19 -19 3 -46 8 -60 11
-14 3 -41 8 -60 11 -56 11 -60 11 -165 34 -55 12 -109 24 -120 26 -11 2 -85
20 -165 39 -326 81 -692 194 -965 300 -350 136 -618 271 -840 425 -189 130
-370 296 -491 450 -32 41 -62 77 -66 78 -5 2 -8 8 -8 13 0 5 -15 31 -33 57
-60 86 -60 95 0 34 21 -21 70 -64 108 -97 39 -32 72 -61 75 -64 3 -4 30 -24
60 -46 30 -22 61 -46 69 -53 22 -22 319 -215 386 -252 33 -18 87 -48 120 -66
125 -70 461 -227 575 -269 19 -7 49 -19 65 -26 17 -6 35 -13 40 -15 6 -2 48
-17 95 -35 78 -29 251 -87 275 -93 6 -1 51 -15 100 -31 50 -16 95 -29 100 -31
8 -1 64 -17 145 -39 44 -12 309 -76 335 -81 17 -2 48 -10 70 -15 22 -6 51 -13
65 -15 14 -2 36 -6 50 -9 14 -3 34 -8 45 -9 11 -2 38 -7 60 -11 73 -14 80 -15
110 -20 99 -18 152 -26 253 -40 20 -3 49 -8 64 -11 14 -3 46 -7 70 -10 100
-12 116 -13 168 -18 30 -3 70 -8 90 -11 19 -2 62 -7 95 -10 33 -3 87 -7 120
-11 202 -19 466 -28 820 -29 310 0 515 6 705 19 87 7 205 17 245 21 22 3 60 7
85 9 39 4 88 10 250 31 79 10 136 18 155 21 35 7 69 13 115 19 25 4 63 10 85
15 22 5 60 12 85 15 24 4 48 8 51 11 4 2 22 6 40 9 57 8 90 15 219 46 69 17
133 32 142 34 132 28 606 176 728 227 14 6 34 14 45 19 132 53 272 113 280
120 5 5 17 9 26 9 10 0 19 3 21 8 2 4 59 35 128 70 69 34 143 72 165 85 81 46
140 81 145 87 3 3 26 18 51 33 43 24 278 192 289 206 3 3 28 24 55 46 96 76
309 296 383 396 18 24 48 65 67 91 19 26 35 52 35 57 0 6 4 11 9 11 5 0 14 14
21 31 7 17 18 36 24 42 27 29 155 315 171 383 3 10 14 51 25 89 11 39 22 81
25 95 28 160 37 244 40 360 2 47 3 87 4 90 2 8 51 -68 51 -79z"/>
<path d="M6340 6349 c-25 -4 -65 -10 -88 -14 -146 -22 -337 -111 -443 -207
-107 -97 -216 -302 -234 -443 -26 -205 -23 -321 11 -474 91 -404 444 -635 959
-625 127 3 162 7 264 29 92 20 175 51 191 70 9 11 12 91 12 292 0 153 -1 283
-1 290 -1 8 -23 4 -68 -12 -38 -14 -79 -27 -93 -29 -14 -2 -25 -5 -25 -6 0 -1
-9 -3 -20 -5 -11 -2 -40 -7 -65 -11 -88 -15 -263 -5 -284 16 -6 6 -17 10 -26
10 -26 0 -99 68 -122 114 -16 31 -21 59 -21 116 0 107 16 154 71 209 56 56
124 81 234 85 95 5 158 -6 293 -47 61 -19 112 -33 114 -31 3 3 5 524 2 571 -2
26 -123 70 -241 89 -19 3 -46 8 -60 10 -42 9 -312 11 -360 3z"/>
<path d="M7895 6352 c-48 -5 -208 -40 -235 -50 -14 -5 -28 -10 -33 -11 -15 -2
-143 -71 -184 -98 -142 -97 -252 -259 -298 -438 -24 -94 -25 -109 -31 -270 -6
-191 19 -321 88 -459 42 -83 63 -111 138 -187 216 -216 602 -301 1025 -225 48
9 159 47 180 62 17 13 18 33 20 301 0 159 0 291 -2 295 -2 4 -20 0 -40 -8 -51
-22 -178 -53 -243 -61 -168 -20 -290 3 -365 69 -50 44 -76 102 -79 180 -7 144
58 250 174 285 58 17 195 24 245 12 17 -4 44 -10 60 -12 17 -3 74 -17 129 -31
54 -15 100 -25 102 -23 2 2 5 131 5 287 l1 283 -23 18 c-13 10 -33 20 -44 23
-11 2 -40 10 -65 16 -25 7 -49 13 -55 14 -5 2 -32 6 -60 10 -27 4 -61 10 -75
13 -30 6 -292 10 -335 5z"/>
<path d="M1995 5474 c0 -557 3 -844 10 -845 5 0 160 -1 343 -2 289 -2 332 0
334 13 0 8 2 129 2 269 2 261 7 291 39 239 8 -13 41 -72 73 -132 33 -61 68
-126 79 -145 149 -262 134 -241 174 -242 175 -2 695 1 699 5 3 3 0 11 -5 18
-6 7 -34 58 -63 113 -30 55 -62 114 -72 130 -10 17 -21 37 -25 45 -3 8 -35 65
-70 127 -35 62 -63 115 -63 118 0 3 -11 22 -23 43 -13 20 -49 85 -80 143 l-57
106 200 399 c110 220 201 408 202 419 3 20 -3 20 -360 21 l-364 1 -9 -24 c-5
-13 -18 -44 -30 -71 -12 -26 -27 -60 -34 -77 -152 -360 -165 -385 -197 -372
-10 3 -13 64 -13 271 0 229 -2 267 -15 271 -8 2 -164 4 -345 3 l-330 -1 0
-843z"/>
<path d="M3787 6311 c-2 -6 0 -1604 2 -1661 l1 -25 262 1 262 1 29 34 c15 19
80 102 145 184 64 83 118 152 122 155 4 4 62 78 82 105 4 6 20 26 37 45 l29
35 -3 -165 c-1 -91 -4 -214 -5 -273 -1 -59 0 -111 4 -114 4 -5 541 -8 656 -4
l26 1 -2 838 c-1 460 -2 840 -3 843 0 3 -115 6 -253 6 l-253 0 -65 -81 c-139
-172 -345 -422 -370 -449 l-27 -29 3 99 c2 54 4 179 6 278 l3 180 -343 1
c-189 0 -344 -2 -345 -5z"/>
<path d="M7923 4475 c-59 -16 -79 -31 -98 -77 -23 -55 -23 -183 -1 -226 17
-33 35 -43 86 -47 68 -6 120 51 120 130 0 90 -74 139 -151 100 l-32 -17 7 29
c14 52 41 68 130 78 12 1 24 3 29 4 4 0 7 10 7 21 0 22 -27 23 -97 5z m42
-155 c21 -18 27 -76 11 -113 -15 -36 -51 -53 -87 -42 -31 10 -52 114 -26 139
34 34 73 40 102 16z"/>
<path d="M2004 4369 c-9 -16 -12 -221 -3 -234 4 -6 49 -9 104 -9 l96 1 -3 -41
c-2 -35 0 -41 17 -41 17 0 20 7 21 50 1 63 -3 74 -26 70 -17 -3 -18 4 -18 88
0 127 0 126 -19 123 -16 -2 -19 -18 -23 -107 l-5 -104 -50 0 -50 0 -5 104 c-5
100 -16 131 -36 100z"/>
<path d="M2322 4365 c-75 -33 -82 -179 -12 -228 21 -15 116 -17 138 -3 13 8
16 36 4 36 -4 0 -21 -4 -38 -9 -39 -11 -91 10 -103 41 -5 13 -7 26 -4 31 2 4
40 7 83 7 54 0 80 4 83 13 7 21 -11 79 -30 98 -26 25 -82 32 -121 14z m74 -28
c19 -7 33 -32 34 -59 0 -4 -29 -6 -64 -6 l-64 1 9 25 c11 28 37 51 53 48 6 -1
21 -5 32 -9z"/>
<path d="M2539 4362 c0 -10 -1 -65 -2 -125 -2 -105 -2 -107 21 -107 20 0 22 5
22 53 l0 53 58 -1 57 0 1 -46 c1 -53 9 -70 29 -62 12 4 15 29 15 123 0 109 -1
118 -20 123 -11 3 -20 2 -21 -1 -1 -4 -2 -27 -3 -52 l-2 -45 -58 -1 -57 -2 1
37 c3 55 2 58 -20 64 -14 4 -20 0 -21 -11z"/>
<path d="M2782 4362 c-7 -18 2 -24 40 -26 l33 -2 3 -101 c2 -77 6 -102 17
-107 23 -8 27 9 28 110 0 52 4 95 9 95 8 2 39 5 59 8 6 0 9 9 7 18 -3 14 -17
17 -97 17 -68 1 -95 -3 -99 -12z"/>
<path d="M3038 4372 c-15 -3 -16 -21 -16 -168 1 -91 5 -167 10 -170 19 -12 35
17 33 61 -1 46 11 68 25 46 9 -16 60 -21 86 -9 28 13 55 60 56 100 2 71 -3 90
-31 119 -35 35 -77 38 -114 9 -24 -19 -26 -19 -29 -2 -2 10 -10 16 -20 14z
m136 -54 c18 -26 21 -75 5 -115 -18 -49 -56 -57 -93 -20 -32 32 -30 111 4 139
30 24 66 23 84 -4z"/>
<path d="M3550 4370 l-35 -5 0 -115 c0 -109 1 -115 21 -118 20 -3 20 1 20 100
l-1 104 45 -1 c25 -1 50 -2 57 -3 7 -1 11 -25 11 -69 -1 -132 0 -141 20 -139
15 3 17 18 20 124 l3 122 -28 1 c-15 0 -44 1 -63 2 -19 1 -51 0 -70 -3z"/>
<path d="M3794 4367 c-2 -7 -3 -85 -2 -172 3 -134 5 -160 18 -160 11 0 16 14
18 58 3 57 9 66 29 46 17 -17 66 -18 95 -1 56 33 68 160 20 214 -25 29 -79 34
-112 9 -28 -20 -29 -20 -35 -1 -7 23 -23 26 -31 7z m158 -75 c3 -62 -2 -96
-18 -113 -22 -24 -45 -24 -76 1 -20 15 -26 29 -26 66 -1 40 3 51 29 75 29 27
32 28 60 14 20 -11 29 -24 31 -43z"/>
<path d="M4109 4365 c-39 -21 -55 -54 -58 -115 -2 -48 2 -59 26 -88 57 -67
159 -49 191 33 15 39 9 107 -12 140 -29 44 -96 58 -147 30z m122 -71 c1 -8 1
-23 1 -34 0 -47 -3 -59 -20 -80 -23 -29 -67 -29 -95 -2 -15 15 -21 34 -21 71
-1 54 20 87 58 93 25 4 76 -27 77 -48z"/>
<path d="M4318 4370 c-29 -11 -14 -35 22 -35 l35 0 5 -104 c4 -89 7 -105 23
-107 19 -2 19 -2 19 129 0 42 3 77 7 78 3 1 19 2 36 3 20 1 31 7 33 19 2 9 -2
17 -10 18 -49 4 -159 4 -170 -1z"/>
<path d="M4595 4370 c-4 -6 -10 -8 -15 -5 -15 9 -52 -55 -55 -98 -8 -98 45
-153 135 -142 44 6 75 29 64 47 -3 5 -12 4 -20 -3 -8 -6 -14 -9 -14 -6 0 3
-12 2 -27 -2 -36 -10 -81 12 -89 44 -3 13 -4 28 -1 32 3 4 39 7 80 6 65 -1 76
1 80 17 15 56 -38 120 -98 120 -19 0 -37 -5 -40 -10z m80 -46 c30 -39 20 -51
-45 -51 -49 0 -60 3 -60 16 1 52 74 76 105 35z"/>
<path d="M4810 4367 c-14 -7 -26 -21 -28 -31 -3 -12 0 -16 8 -11 53 33 117 16
107 -27 -6 -22 -18 -27 -75 -31 -7 0 -12 -7 -10 -15 2 -10 17 -16 42 -18 45
-3 59 -14 54 -45 -4 -30 -44 -40 -91 -24 -34 11 -37 11 -37 -5 0 -12 12 -22
33 -29 33 -11 48 -11 98 3 47 13 61 85 22 114 -13 9 -14 15 -6 20 22 14 25 57
6 81 -22 27 -86 36 -123 18z"/>
<path d="M5315 4372 c-9 -5 -14 -294 -6 -334 0 -3 9 -5 19 -4 13 2 18 15 20
59 3 51 15 74 24 47 2 -6 17 -12 34 -14 36 -5 94 25 94 49 0 8 4 15 9 15 10 0
8 103 -2 135 -8 23 -56 55 -84 55 -10 0 -31 -7 -47 -15 -25 -13 -30 -13 -40 0
-6 8 -16 11 -21 7z m145 -62 c14 -26 12 -90 -3 -120 -15 -29 -50 -34 -84 -12
-19 12 -23 23 -23 69 0 54 7 70 45 90 23 13 49 2 65 -27z"/>
<path d="M5631 4367 c-44 -22 -65 -62 -64 -123 1 -91 48 -132 134 -118 60 9
92 57 91 135 -1 92 -84 146 -161 106z m115 -72 c10 -40 -2 -105 -22 -120 -34
-26 -86 -15 -103 21 -26 57 -5 133 39 144 34 9 78 -15 86 -45z"/>
<path d="M5865 4370 c-13 -20 -9 -231 4 -239 16 -10 99 -5 133 7 50 20 61 70
24 107 -14 14 -21 25 -15 25 5 0 14 11 19 25 12 32 -5 71 -34 79 -35 10 -124
7 -131 -4z m118 -35 c40 -17 5 -65 -49 -65 -32 0 -34 2 -34 34 0 25 5 36 18
38 22 5 43 3 65 -7z m9 -112 c13 -12 15 -20 6 -39 -6 -13 -17 -25 -25 -25 -67
-7 -68 -6 -71 38 -2 33 0 42 15 45 25 6 55 -2 75 -19z"/>
<path d="M6133 4368 c-13 -6 -23 -20 -23 -30 0 -15 4 -17 19 -9 10 6 32 13 49
16 24 4 34 0 46 -17 30 -42 21 -58 -30 -58 -37 0 -51 -5 -75 -30 -24 -23 -28
-34 -23 -57 4 -15 12 -34 18 -41 18 -19 70 -22 101 -6 34 17 35 17 35 -1 0
-12 4 -13 18 -6 15 8 17 22 16 94 -2 110 -9 135 -40 147 -33 13 -83 12 -111
-2z m107 -159 c0 -42 -58 -70 -87 -42 -32 30 -2 71 52 71 32 0 35 -3 35 -29z"/>
<path d="M6378 4372 c-16 -3 -18 -17 -17 -123 1 -66 5 -121 8 -124 18 -10 33
17 35 61 l2 49 53 1 c28 0 55 -4 58 -10 4 -5 6 -27 4 -48 -2 -48 5 -61 27 -49
15 8 17 25 16 118 -2 139 -1 132 -24 126 -11 -3 -20 -10 -19 -17 1 -6 1 -27 0
-47 l-1 -36 -55 -2 c-30 -1 -55 2 -56 6 -1 5 -2 27 -4 51 -2 48 -3 50 -27 44z"/>
<path d="M6789 4341 c-13 -20 -29 -42 -36 -48 -6 -7 -21 -28 -33 -48 -12 -19
-25 -35 -29 -35 -4 0 -7 36 -7 80 1 75 0 80 -21 80 -20 0 -21 -4 -20 -93 0
-51 -2 -97 -5 -102 -3 -6 -2 -20 3 -33 13 -33 35 -17 94 67 28 38 55 70 60 71
7 0 11 -27 10 -67 -1 -87 2 -95 25 -83 16 9 18 23 18 124 0 99 -3 115 -18 119
-11 3 -25 -8 -41 -32z"/>
<path d="M6984 4370 c-42 -9 -54 -18 -65 -47 -10 -27 3 -62 29 -77 8 -5 10
-11 5 -15 -6 -3 -20 -26 -33 -50 -17 -33 -19 -46 -9 -51 18 -12 37 -1 45 23 4
12 7 24 6 27 -2 13 44 50 64 50 26 0 31 -11 29 -62 -1 -37 12 -52 33 -39 14 9
12 231 -2 237 -22 8 -72 10 -102 4z m61 -29 c12 -1 15 -70 3 -72 -4 -1 -19 -1
-33 -1 -42 0 -45 1 -54 24 -11 31 21 59 59 52 8 -1 20 -3 25 -3z"/>
<path d="M7378 4369 c-17 -7 -28 -18 -28 -30 0 -23 0 -23 35 -5 27 14 48 12
73 -7 26 -20 4 -48 -44 -56 -51 -8 -53 -35 -4 -36 47 -2 60 -11 60 -41 0 -37
-45 -50 -97 -28 -25 10 -33 10 -33 1 1 -32 20 -42 79 -42 48 0 64 4 80 22 25
26 24 77 0 99 -18 16 -18 17 1 34 21 19 20 54 -3 78 -19 18 -85 24 -119 11z"/>
<path d="M7550 4364 c0 -8 4 -22 9 -32 6 -9 26 -61 45 -115 33 -92 34 -99 20
-132 -7 -19 -14 -39 -14 -45 0 -17 37 -11 45 8 12 30 56 156 60 172 2 8 12 35
23 60 10 25 22 57 25 71 6 23 4 26 -16 25 -19 -1 -26 -14 -52 -93 -16 -51 -32
-93 -36 -93 -5 0 -30 69 -33 90 -1 3 -9 25 -19 50 -12 32 -23 46 -37 47 -12 1
-20 -4 -20 -13z"/>
<path d="M8142 4366 c-77 -41 -80 -191 -5 -229 23 -11 72 -15 104 -8 4 0 20
15 36 31 56 58 39 187 -29 208 -42 13 -79 13 -106 -2z m115 -62 c14 -30 7
-103 -11 -123 -9 -9 -33 -18 -55 -19 -36 -3 -39 0 -54 37 -14 35 -15 72 -2
109 3 7 19 19 36 26 37 16 70 4 86 -30z"/>
<path d="M8400 4371 c-25 -7 -25 -8 -26 -116 0 -61 3 -115 8 -121 5 -7 33 -11
68 -9 100 3 139 49 93 112 -19 26 -20 32 -8 37 18 7 20 56 3 78 -14 18 -98 29
-138 19z m108 -55 c6 -27 -18 -46 -57 -46 -35 0 -37 2 -39 34 -2 29 1 35 20
38 36 6 73 -7 76 -26z m0 -88 c18 -15 15 -46 -6 -57 -31 -16 -70 -20 -80 -8
-7 10 -9 53 -3 77 2 9 75 -1 89 -12z"/>
<path d="M5021 4251 c-1 -151 9 -159 77 -64 26 36 56 77 67 90 l20 25 0 -86
c-1 -65 2 -86 12 -86 7 0 16 -1 20 -2 4 -2 8 52 9 120 l2 122 -24 0 c-14 0
-27 -7 -31 -17 -5 -12 -86 -125 -108 -151 -1 -2 -3 30 -3 70 0 100 0 98 -22
98 -18 0 -19 -8 -19 -119z"/>
</g>
</svg>
