<svg width="596" height="391" fill="none" xmlns="http://www.w3.org/2000/svg"><path d="M554.911 122.704s34.929-29.406 34.929-76.215c0-12.602-5.328-24.604-14.8-33.006C563.2 2.681 546.031-.92 530.639 4.481 492.158 18.884 408.683 43.49 302.713 43.49c-105.971 0-189.446-24.605-228.519-39.008-15.392-5.4-31.968-1.8-44.4 9.002-8.881 8.402-14.801 20.404-14.801 33.006 0 46.81 32.057 71.808 32.057 71.808m509.232 85.141s45.448 22.93 36.568 100.345c0 25.205-16.577 47.409-40.849 54.61C505.823 371.597 421.165 389 298.026 389c-123.14 0-207.798-17.403-253.975-30.606-24.273-6.601-40.85-28.805-40.85-54.61-8.88-76.815 34.367-99.384 34.367-99.384" stroke="#fff" stroke-width="3" stroke-miterlimit="10"/><path d="M47.604 181.36c-7.697 12.002-18.945 50.409-.592 57.611 8.88 3.601 17.168-9.002 21.904-15.603" stroke="#fff" stroke-width="3" stroke-miterlimit="10"/><path d="M216.921 216.766c15.392 12.603 67.49 10.202 81.106 3.601 0 0 2.96-49.809-13.616-82.816-10.064-20.403-36.705-22.204-49.73-3.6-9.472 14.402-19.536 40.207-17.76 82.815z" fill="#fff" stroke="#fff" stroke-width="3" stroke-miterlimit="10"/><path d="M298.028 223.368s1.776 36.607-8.288 57.611c-6.512 12.602-23.681 14.403-31.377 2.4-6.512-9.601-13.024-33.006-11.84-60.011m-6.039 1.577s-.474 36.231-12.314 54.234c-7.104 10.802-24.273 10.802-31.377-.6-5.92-9.001-5.563-40.145-2.603-64.15" stroke="#fff" stroke-width="3" stroke-miterlimit="10"/><path d="M219.289 174.158s-6.512-39.607-37.297-42.608c0 0-24.272 19.204-15.984 73.814 0 0 3.552 12.002 50.913 10.802" stroke="#fff" stroke-width="3" stroke-miterlimit="10"/><path d="M164.824 172.959s-7.696-49.21-38.481-51.61c0 0-20.129 22.204-12.432 76.815l10.064 3c13.024 4.201 27.233 3.601 40.849-1.8" fill="#fff"/><path d="M164.824 172.959s-7.696-49.21-38.481-51.61c0 0-20.129 22.204-12.432 76.815l10.064 3c13.024 4.201 27.233 3.601 40.849-1.8" stroke="#fff" stroke-width="3" stroke-miterlimit="10"/><path d="M113.318 162.157s-17.76-39.007-30.784-36.007c-8.289 1.8-7.697 34.807-3.553 52.81 1.776 9.002 10.065 15.603 19.537 15.003h8.288" stroke="#fff" stroke-width="3" stroke-miterlimit="10"/><path d="M76.614 160.356s-19.537-45.009-31.97-42.608c-7.696 1.8-7.104 33.606-2.96 51.609 1.777 9.002 10.065 15.003 18.945 15.003h15.985" fill="#fff"/><path d="M76.614 160.356s-19.537-45.009-31.97-42.608c-7.696 1.8-7.104 33.606-2.96 51.609 1.777 9.002 10.065 15.003 18.945 15.003h15.985m83.473 23.403c-9.472 15.603-22.497 62.412 2.96 69.613 11.84 3.601 23.089-12.002 29.009-20.403" stroke="#fff" stroke-width="3" stroke-miterlimit="10"/><path d="M119.24 197.562c-8.881 15.603-20.129 62.412 2.96 70.213 10.656 3.601 20.72-12.002 26.048-20.403" stroke="#fff" stroke-width="3" stroke-miterlimit="10"/><path d="M80.758 187.358c-8.88 15.003-23.089 60.611-.592 69.013 10.656 4.201 20.72-10.802 26.641-19.204m272.327-20.401c-15.392 12.603-67.49 10.202-81.106 3.601 0 0-2.96-49.809 13.616-82.816 10.065-20.403 36.705-22.204 49.73-3.6 9.472 14.402 19.536 40.207 17.76 82.815z" stroke="#fff" stroke-width="3" stroke-miterlimit="10"/><path d="M298.026 223.368s-1.776 36.607 8.288 57.611c6.512 12.602 23.681 14.403 31.377 2.4 6.512-9.601 13.024-33.006 11.84-60.011m4.444 2.176s2.07 35.631 13.911 53.634c7.104 10.802 24.272 10.802 31.376-.6 5.921-9.002 4.655-39.602 1.695-63.607" stroke="#fff" stroke-width="3" stroke-miterlimit="10"/><path d="M376.764 174.158s6.513-39.607 37.297-42.608c0 0 24.273 19.204 15.985 73.814 0 0-3.552 12.002-50.914 10.802" stroke="#fff" stroke-width="3" stroke-miterlimit="10"/><path d="M431.231 172.959s7.696-49.21 38.481-51.61c0 0 20.129 22.204 12.433 76.815l-10.065 3c-13.024 4.201-27.232 3.601-40.849-1.8" stroke="#fff" stroke-width="3" stroke-miterlimit="10"/><path d="M482.737 162.157s17.761-39.007 30.785-36.007c8.288 1.8 7.696 34.807 3.552 52.81-1.776 9.002-10.064 15.603-19.537 15.003h-14.123" stroke="#fff" stroke-width="3" stroke-miterlimit="10"/><path d="M519.441 160.355s19.536-45.008 31.969-42.608c7.696 1.801 7.104 33.607 2.96 51.61-1.776 9.002-10.064 15.003-18.945 15.003h-15.984m-83.474 23.403c9.472 15.603 22.496 62.412-2.96 69.613-11.841 3.601-23.089-12.002-29.009-20.403" stroke="#fff" stroke-width="3" stroke-miterlimit="10"/><path d="M476.815 197.562c8.88 15.603 20.129 62.412-2.96 70.213-10.656 3.601-20.72-12.002-26.049-20.403" stroke="#fff" stroke-width="3" stroke-miterlimit="10"/><path d="M515.055 187.1c8.88 15.003 23.33 60.874.833 69.276-10.656 4.201-20.72-10.802-26.64-19.204" stroke="#fff" stroke-width="3" stroke-miterlimit="10"/><path d="M548.45 181.36c7.696 12.003 18.944 50.41.592 57.611-8.88 3.601-17.168-9.001-21.905-15.603" stroke="#fff" stroke-width="3" stroke-miterlimit="10"/></svg>