<?xml version="1.0" encoding="utf-8"?>
<!-- Generator: Adobe Illustrator 19.2.1, SVG Export Plug-In . SVG Version: 6.00 Build 0)  -->
<svg version="1.1" id="Слой_1" xmlns="http://www.w3.org/2000/svg" xmlns:xlink="http://www.w3.org/1999/xlink" x="0px" y="0px"
	 viewBox="0 0 32 32" style="enable-background:new 0 0 32 32;" xml:space="preserve">
<path d="M23.5,1.1l-3.9,0c-4.4,0-7.2,2.9-7.2,7.4v3.4H8.5c-0.3,0-0.6,0.3-0.6,0.6v4.9c0,0.3,0.3,0.6,0.6,0.6h3.9v12.4c0,0.3,0.3,0.6,0.6,0.6h5.1c0.3,0,0.6-0.3,0.6-0.6V17.9h4.6c0.3,0,0.6-0.3,0.6-0.6l0-4.9c0-0.2-0.1-0.3-0.2-0.4c-0.1-0.1-0.3-0.2-0.4-0.2h-4.6V8.9c0-1.4,0.3-2.1,2.1-2.1l2.6,0c0.3,0,0.6-0.3,0.6-0.6V1.7C24.1,1.3,23.8,1.1,23.5,1.1z"/>
</svg>
