<svg xmlns="http://www.w3.org/2000/svg" viewBox="0 0 32 32"><path d="M22.7 1.1H9.3c-4.5 0-8.2 3.7-8.2 8.2v13.4c0 4.5 3.7 8.2 8.2 8.2h13.4c4.5 0 8.2-3.7 8.2-8.2V9.3c0-4.5-3.7-8.2-8.2-8.2zm5.6 21.6c0 3.1-2.5 5.6-5.6 5.6H9.3c-3.1 0-5.6-2.5-5.6-5.6V9.3c0-3.1 2.5-5.6 5.6-5.6h13.4c3.1 0 5.6 2.5 5.6 5.6v13.4z"/><path d="M16 8.3c-4.2 0-7.7 3.5-7.7 7.7s3.5 7.7 7.7 7.7 7.7-3.5 7.7-7.7-3.5-7.7-7.7-7.7zM16 21c-2.8 0-5-2.3-5-5 0-2.8 2.3-5 5-5 2.8 0 5 2.3 5 5 0 2.8-2.2 5-5 5zm8-14.9c-.5 0-1 .2-1.4.6-.3.3-.5.8-.5 1.3s.2 1 .6 1.4c.3.3.8.5 1.3.5s1-.2 1.4-.6c.4-.3.6-.8.6-1.3s-.2-1-.6-1.4c-.4-.3-.9-.5-1.4-.5z"/></svg>