<svg xmlns="http://www.w3.org/2000/svg" viewBox="0 0 32 32"><path d="M27.2 18.3c1 1 2.1 1.9 3 2.9.4.5.8 1 1.1 1.5.4.8 0 1.6-.7 1.7h-4.5c-1.2.1-2.1-.4-2.9-1.1-.6-.6-1.2-1.3-1.8-1.9-.2-.3-.5-.5-.8-.7-.6-.4-1.1-.3-1.5.4-.4.6-.4 1.3-.5 2 0 1-.4 1.3-1.4 1.3-2.3.1-4.4-.2-6.4-1.3-1.8-1-3.1-2.4-4.3-3.9-2.3-3-4.1-6.4-5.7-9.8-.5-.8-.2-1.2.7-1.3h4.4c.6 0 1 .3 1.2.9.8 1.9 1.8 3.7 3 5.4.3.4.7.9 1.1 1.2.5.3.9.2 1.2-.3.2-.4.2-.7.3-1.1.1-1.3.1-2.6-.1-3.9-.1-.8-.6-1.3-1.4-1.5-.4-.1-.4-.2-.2-.5.4-.4.7-.7 1.4-.7h5.1c.8.2 1 .5 1.1 1.3v5.5c0 .3.2 1.2.7 1.4.5.1.7-.2 1-.5 1.2-1.2 2.1-2.7 2.9-4.3l.9-2.1c.2-.5.5-.8 1.2-.8h5.3c.8.1 1.1.5.8 1.3-.4 1.2-1.2 2.2-1.9 3.3-.8 1.1-1.7 2.1-2.5 3.2-.8 1-.8 1.5.2 2.4z"/></svg>