<svg width="32" height="32" xmlns="http://www.w3.org/2000/svg"><path d="M32 15.588c0 8.609-7.033 15.588-15.71 15.588-2.754 0-5.34-.705-7.593-1.938L0 32l2.835-8.366a15.43 15.43 0 01-2.253-8.047C.583 6.98 7.614 0 16.292 0 24.968.002 32 6.98 32 15.588zM16.288 2.486c-7.282 0-13.206 5.878-13.206 13.105 0 2.868.935 5.522 2.516 7.682L3.95 28.14l5.073-1.612a13.204 13.204 0 007.265 2.166c7.283 0 13.209-5.878 13.209-13.105.002-7.224-5.925-13.102-13.209-13.102zm7.935 16.693c-.098-.158-.355-.254-.739-.446-.383-.192-2.279-1.115-2.63-1.24-.355-.129-.612-.193-.869.19-.253.383-.992 1.242-1.218 1.5-.225.255-.449.287-.834.098-.385-.194-1.627-.595-3.098-1.896-1.145-1.014-1.918-2.263-2.141-2.646-.227-.382-.023-.589.168-.779.172-.172.385-.446.578-.67.193-.223.257-.38.385-.636.126-.255.063-.478-.032-.67-.096-.193-.865-2.071-1.188-2.836-.32-.764-.64-.637-.866-.637-.224 0-.481-.032-.738-.032a1.41 1.41 0 00-1.025.476c-.352.383-1.348 1.306-1.348 3.187 0 1.882 1.379 3.697 1.572 3.951.194.254 2.665 4.239 6.579 5.769 3.916 1.528 3.916 1.018 4.622.953.707-.064 2.278-.923 2.598-1.814.321-.896.321-1.662.224-1.822z"/></svg>