<svg width="34" height="34" fill="none" xmlns="http://www.w3.org/2000/svg"><path clip-rule="evenodd" d="M30.295 17.177l1.175 6.186a1.147 1.147 0 01-.51 1.181c-3.912 2.497-8.96 3.86-14.215 3.86-5.254 0-10.303-1.363-14.215-3.86a1.148 1.148 0 01-.51-1.18l1.175-6.187-1.18-7.164a1.147 1.147 0 01.515-1.154C6.442 6.363 11.491 5 16.745 5S27.048 6.363 30.96 8.86a1.147 1.147 0 01.515 1.153l-1.18 7.164zm-3.056-1.217v-1.219a1.347 1.347 0 00-1.86-1.245 1.347 1.347 0 00-.83 1.231v1.233h2.69zm-11.805 4.365v-2.071h-4.481v2.07a2.24 2.24 0 104.481 0zM8.66 15.96v-1.219a1.345 1.345 0 10-2.69 0v1.219h2.69zm-4.237 7.052c3.43 1.995 7.772 3.098 12.323 3.098 4.552 0 8.893-1.102 12.323-3.098l-.258-1.36a3.629 3.629 0 01-1.735 1.263 3.636 3.636 0 01-3.147-.382 4.531 4.531 0 01-7.347.801 4.53 4.53 0 01-6.134.597 4.532 4.532 0 01-1.2-1.377 3.636 3.636 0 01-4.62-.626l-.205 1.084zm13.352-9.119v2.067h4.481v-2.067a2.24 2.24 0 00-4.481 0zm-9.51 6.528c.252-.252.394-.593.395-.95v-1.217H5.97v1.218a1.345 1.345 0 002.295.949zm18.975-2.167v1.217a1.347 1.347 0 01-1.345 1.343 1.345 1.345 0 01-1.345-1.342v-1.218h2.69zM15.48 15.96v-2.067a2.243 2.243 0 00-3.075-2.076 2.24 2.24 0 00-1.406 2.076v2.067h4.482zm13.265-3.482a3.637 3.637 0 00-4.783-.818 4.532 4.532 0 00-7.334-.78 4.53 4.53 0 00-7.347.802 3.634 3.634 0 00-4.578.526l-.297-1.806c.379-.22.77-.431 1.17-.63 3.226-1.603 7.115-2.478 11.17-2.478 4.56 0 8.908 1.106 12.34 3.109l-.341 2.075zm-11.016 5.776h4.482v2.069a2.245 2.245 0 01-1.383 2.074 2.241 2.241 0 01-3.099-2.074v-2.069z"/></svg>