<svg width="34" height="34" fill="none" xmlns="http://www.w3.org/2000/svg"><path clip-rule="evenodd" d="M10.51 9.241l2.185 1.07a4.26 4.26 0 011.59 1.346c.724 1.014 1.646 1.518 2.58 1.518.933 0 1.855-.505 2.578-1.519a4.257 4.257 0 011.59-1.345l2.185-1.07a1.074 1.074 0 011.24.03 8.144 8.144 0 012.69 3.49 8.063 8.063 0 01.428 4.562l-2.314 11.874a3.279 3.279 0 01-6.354.327l-1.425-4.684a.647.647 0 00-1.238 0l-1.425 4.684a3.278 3.278 0 01-6.354-.327L6.152 17.323a8.061 8.061 0 01.428-4.562 8.143 8.143 0 012.69-3.49 1.074 1.074 0 011.24-.03zM20.964 28.9a1.13 1.13 0 002.19-.113L25.47 16.91a5.904 5.904 0 00-1.793-5.5l-1.698.832a2.107 2.107 0 00-.787.664c-1.078 1.511-2.649 2.419-4.327 2.419s-3.248-.907-4.327-2.42a2.106 2.106 0 00-.786-.663l-1.698-.832a5.904 5.904 0 00-1.794 5.5l2.315 11.875a1.13 1.13 0 002.19.113l1.425-4.684a2.795 2.795 0 015.348 0l1.425 4.684z"/><path clip-rule="evenodd" d="M8.982 5.586a1.075 1.075 0 01.28-1.41c.126-.094.236-.173.345-.246 1.47-.983 3.305-1.195 5.025-.598l.003.002.122.043h.001l.004.002.01.003c.231.087.458.189.678.303a3.118 3.118 0 002.829 0l.026-.014c.262-.135.534-.25.813-.346l.002-.001.048-.015c1.699-.567 3.504-.348 4.953.621.11.073.22.152.345.246.213.235.568.847.28 1.41l-.016.027a1.079 1.079 0 01-.45.415l-2.302 1.127a2.107 2.107 0 00-.787.664c-1.078 1.512-2.649 2.42-4.327 2.42s-3.248-.908-4.327-2.42a2.106 2.106 0 00-.786-.664L9.45 6.028A1.075 1.075 0 019 5.613l-.017-.027zm5.303.985c.724 1.014 1.646 1.519 2.58 1.519.933 0 1.854-.504 2.578-1.519a4.262 4.262 0 011.59-1.345l.15-.073a3.556 3.556 0 00-1.362.202l-.006.003a3.93 3.93 0 00-.543.233l-.004.001-.006.003a5.266 5.266 0 01-4.78.008l-.022-.01-.003-.003a3.907 3.907 0 00-.432-.193l-.108-.039a3.55 3.55 0 00-1.373-.206l.152.074a4.254 4.254 0 011.589 1.345z"/></svg>