<svg width="34" height="34" fill="none" xmlns="http://www.w3.org/2000/svg"><path clip-rule="evenodd" d="M18.46 10.932a1.093 1.093 0 01-.509.128 1.108 1.108 0 01-.735-.285L11.382 5.45a1.094 1.094 0 01-.08-1.51l.389-.423a4.985 4.985 0 013.496-1.637 5.107 5.107 0 013.054.886l2.5-1.59A1.1 1.1 0 0121.332 1h3.382a1.094 1.094 0 011.095 1.094V17.41l.376.13c.994.344 2.027.702 3.165 1.175a3.148 3.148 0 011.817 2.135 3.113 3.113 0 01-.926 2.995c-.551.512-1.276.8-2.029.804a3.124 3.124 0 01-.995-.167l-5.424-1.85a7.061 7.061 0 00-1.378-.277l1.545 4.668c3.28 1.12 3.536 3.487 3.536 4.39 0 .901-.708 1.093-.973 1.088H6.48c-.816 0-1.07-.724-1.094-1.087a4.477 4.477 0 011.161-3.028c.753-.828 1.834-1.345 2.948-1.449l-1.692-4.968A3.814 3.814 0 016.036 20.2l-2.004-4.1-1.66-3.376A3.643 3.643 0 013.97 7.886a3.474 3.474 0 012.714-.2A3.552 3.552 0 018.76 9.504l2.573 5.224a1.645 1.645 0 001.47.93h6.769a8.193 8.193 0 013.102.609c.217.092.433.173.643.251.047.018.105.044.162.07l.14.06V3.188h-1.971l-2.601 1.658-.164-.003a1.095 1.095 0 01-1.484.003l-.006-.005a2.886 2.886 0 00-1.782-.786 3 3 0 00-1.912.55l4.143 3.776c.185-.3.33-.671.387-1.019a1.094 1.094 0 011.967-.45c.168.235.235.527.188.812a5.16 5.16 0 01-1.247 2.572l-.38.402a1.096 1.096 0 01-.299.233zm-6.39-7.09a5.326 5.326 0 00-.04.044l.03-.032.003-.004.007-.007zM21.351 1.5zm8.553 21.974l-.002.003-.003.002.005-.005zm-7.95-1.316l-.011-.004a7.061 7.061 0 00.01.004zM4.964 9.834a1.454 1.454 0 00-.623 1.927v.002l1.65 3.376 2.017 4.102a1.623 1.623 0 001.46.93h10.386a8.134 8.134 0 012.603.403l.008.002 5.434 1.849a.833.833 0 00.813-.139l.005-.004a.905.905 0 00.267-.418.89.89 0 00.006-.484l-.003-.01-.003-.011a.878.878 0 00-.522-.62l-.005-.002a33.248 33.248 0 00-1.633-.638c-.461-.168-.908-.322-1.328-.468l-.421-.146-.626-.215-.003-.001c-.831-.285-1.723-.59-2.622-.976l-.007-.003a6.213 6.213 0 00-2.266-.442h-6.767c-2.07 0-3.15-1.437-3.431-2.155L6.79 10.465a1.342 1.342 0 00-1.821-.633l-.004.002zm14.654 17.102h-7.84l-1.521-4.577h7.84l1.521 4.577zm2.665 2.496c.347.2.665.54.865.887H7.855c.2-.347.518-.686.865-.887.348-.2.742-.307 1.143-.307h11.276c.402 0 .796.106 1.144.307z"/></svg>