<svg width="34" height="34" fill="none" xmlns="http://www.w3.org/2000/svg"><path clip-rule="evenodd" d="M26.762 7.013c.062-.108.114-.221.154-.34l.987-2.922a1.106 1.106 0 012.094 0l.987 2.922c.15.448.465.822.88 1.048l1.464.801a1.105 1.105 0 010 1.94l-1.464.8a1.88 1.88 0 00-.88 1.048l-.976 2.891-2.495 12.727a3.43 3.43 0 01-5.337 2.15 3.43 3.43 0 01-1.31-1.808l-1.503-4.938a.71.71 0 00-1.357 0l-1.502 4.938a3.43 3.43 0 01-6.647-.342l-.79-4.056a1.106 1.106 0 01-.174.117l-1.19.652a1.32 1.32 0 00-.62.736l-.802 2.377a1.105 1.105 0 01-2.094 0l-.803-2.377a1.32 1.32 0 00-.618-.736l-1.191-.652a1.105 1.105 0 010-1.939l1.191-.652a1.32 1.32 0 00.618-.736l.803-2.376a1.105 1.105 0 012.094 0l.803 2.375c.106.315.326.578.618.737l.988.541-1.273-6.53a8.504 8.504 0 013.619-8.705c1.813-1.217 4.162-1.315 6.129-.274a3.312 3.312 0 003.04 0c1.967-1.042 4.316-.943 6.13.275.146.098.288.201.427.308zM9.587 14.985l2.44 12.52a1.219 1.219 0 002.362.122l1.503-4.938a2.92 2.92 0 015.586 0l1.502 4.938a1.22 1.22 0 002.363-.122l2.45-12.595-.877-2.6a1.876 1.876 0 00-.88-1.047l-1.464-.801a1.105 1.105 0 010-1.94l.264-.144c-1.086-.6-2.435-.61-3.597.006l-.004.002a5.522 5.522 0 01-5.1 0l-.004-.002c-1.259-.667-2.738-.6-3.863.156a6.299 6.299 0 00-2.681 6.445zM28.95 7.547a4.082 4.082 0 01-1.571 1.945 4.082 4.082 0 011.571 1.945c.55-1.034 1.549-1.945 1.549-1.945s-1.135-.564-1.549-1.945zM5.234 21.929c.23.423.544.794.923 1.09a3.537 3.537 0 00-.923 1.091 3.526 3.526 0 00-.924-1.09c.38-.297.694-.668.924-1.091z"/></svg>