<svg width="34" height="34" fill="none" xmlns="http://www.w3.org/2000/svg"><path clip-rule="evenodd" d="M13.3 30.332v.01l.002.006a3.843 3.843 0 007.61 0v-.008l.001-.008.972-7.56h1.276a1.144 1.144 0 001.113-.881l.597-2.526h1.852a1.144 1.144 0 001.127-.949l1.237-7.151a9.017 9.017 0 00-3.839-9.217c-1.92-1.288-4.407-1.393-6.489-.29a3.557 3.557 0 01-3.265 0c-2.082-1.103-4.57-.999-6.489.29a9.017 9.017 0 00-3.84 9.217l1.238 7.151a1.144 1.144 0 001.127.95h1.812l.597 2.525a1.144 1.144 0 001.113.88h1.276l.971 7.557v.004zM26.449 6.96a6.81 6.81 0 01.386 3.902l-1.075 6.215h-3.143l.38-2.96a1.145 1.145 0 00-1.134-1.29H12.35a1.144 1.144 0 00-1.135 1.29l.38 2.96H8.494l-1.075-6.214v-.002l-.004-.02v-.002a6.731 6.731 0 012.866-6.891c1.208-.81 2.795-.883 4.144-.167l.004.002a5.844 5.844 0 005.398 0l.003-.002c1.35-.716 2.937-.643 4.145.167A6.731 6.731 0 0126.45 6.96zM20.31 17.077l.253-1.962H13.65l.252 1.962h6.407zm2.21 2.288l-.264 1.118H11.957l-.264-1.118H22.52zm-3.875 10.667l.933-7.26h-4.943l.933 7.26a1.555 1.555 0 003.077 0z"/></svg>