<svg width="34" height="34" fill="none" xmlns="http://www.w3.org/2000/svg"><path clip-rule="evenodd" d="M5.042 15.746l.001.002c.28.676.622 1.326 1.022 1.938l.025.038-.009.046a15.31 15.31 0 00-.13 5.546c.149.927.425 1.877.66 2.59a22.788 22.788 0 00.404 1.12l.026.064.007.018.006.015.005.011a14.336 14.336 0 002.212 3.399l.004.005c.305.36.696.637 1.137.806h.002a2.748 2.748 0 002.61-.364l.008-.006a3.127 3.127 0 001.323-2.633v-.017l-.002-.016a6.707 6.707 0 011.209-4.492v-.002l.002-.002a2.15 2.15 0 011.326-.8l.01-.003h.01c.302 0 .58.147.81.32.23.172.423.381.553.523l.005.006.004.006a6.707 6.707 0 011.148 4.492l-.001.017-.001.017a3.127 3.127 0 001.284 2.636l.004.003a2.73 2.73 0 001.61.545h.024l.024-.002c.327-.028.645-.112.943-.248l.002-.002h.003c.442-.178.834-.46 1.143-.824l.003-.004a14.373 14.373 0 003.176-5.975l.001-.004a15.18 15.18 0 00.117-6.769l-.01-.045.026-.038a12.76 12.76 0 001.916-5.1c.108-.554.114-1.332.083-2.055-.03-.732-.1-1.444-.155-1.881l-.004-.028-.006-.027a7.399 7.399 0 00-4.042-4.96h-.001a6.286 6.286 0 00-5.4-.004l-.007.003-.526.268-.011.007c-.491.267-.966.563-1.422.885l-.011.008a2.152 2.152 0 01-2.579-.001l-.007-.005c-.454-.329-.93-.626-1.425-.888l-.535-.274-.008-.003a6.295 6.295 0 00-6.226.493H7.41a7.849 7.849 0 00-3.39 7.019v.147a13.125 13.125 0 001.023 4.48zm3.919-6.435c.201-.201.475-.315.76-.315h4.745a1.075 1.075 0 011.075 1.076v1.297h2.595v-1.297a1.075 1.075 0 011.075-1.076h4.745a1.075 1.075 0 011.075 1.076v1.297h2.637c.04-.545.07-1.489-.126-2.24-.233-.892-.53-1.483-1.018-2.093a5.307 5.307 0 00-1.806-1.453h-.001a4.113 4.113 0 00-3.58-.003l-.442.227-.006.003c-.413.222-.812.469-1.194.74l-.006.004a4.29 4.29 0 01-5.095.003l-.006-.004a11.435 11.435 0 00-1.194-.741l-.44-.226-.007-.004a4.176 4.176 0 00-4.178.315l-.003.003a5.734 5.734 0 00-2.423 5.078l.002.03-.001.03c-.004.076-.003.152.002.228l.007.103h2.493v-1.297c0-.286.113-.559.315-.76zm16.768 7.555a1.075 1.075 0 00-.171.875l.001.005a12.935 12.935 0 010 6.256 12.13 12.13 0 01-2.706 5.124.823.823 0 01-.316.22l-.004.001a.633.633 0 01-.613-.1l-.004-.003a1 1 0 01-.384-.85v-.007a8.276 8.276 0 00-1.727-6.034l-.008-.01a4.134 4.134 0 00-2.85-1.48l-.038-.004-.038.003a4.111 4.111 0 00-2.898 1.52l-.003.003a8.336 8.336 0 00-1.766 5.992v.004a1.002 1.002 0 01-.387.854.658.658 0 01-.614.1l-.01-.003a.74.74 0 01-.306-.225l-.007-.008-.007-.01a11.429 11.429 0 01-1.856-2.858l-.005-.01-.001-.004-.021-.049-.078-.193a15.24 15.24 0 01-.26-.714 14.43 14.43 0 01-.571-2.277c-.273-1.732-.2-3.5.215-5.204l.001-.004a1.075 1.075 0 00-.158-.874l-.006-.008a10.592 10.592 0 01-1.148-2.034v-.002c-.165-.39-.304-.79-.42-1.197l-.04-.142h2.12v2.484a1.075 1.075 0 001.076 1.075h4.745a1.075 1.075 0 001.075-1.075v-2.484h2.595v2.484a1.075 1.075 0 001.075 1.075h4.745a1.075 1.075 0 001.075-1.075v-2.484h2.263l-.04.142a10.597 10.597 0 01-1.523 3.2l-.002.005zm-5.443-1.938h2.595v-3.781h-2.595v3.78zm-6.895 0h-2.595v-3.781h2.595v3.78z"/></svg>