<svg width="70" height="70" fill="none" xmlns="http://www.w3.org/2000/svg"><path d="M34.971 5.833C18.871 5.833 5.834 18.9 5.834 35s13.038 29.167 29.137 29.167c16.13 0 29.196-13.067 29.196-29.167S51.101 5.834 34.971 5.834zm.03 52.5c-12.892 0-23.334-10.441-23.334-23.333 0-12.892 10.442-23.333 23.334-23.333 12.891 0 23.333 10.441 23.333 23.333 0 12.892-10.442 23.334-23.333 23.334zm-.642-37.916h-.175a2.09 2.09 0 00-2.1 2.1v13.766c0 1.021.525 1.984 1.43 2.509l12.103 7.262c.992.584 2.275.292 2.859-.7a2.072 2.072 0 00-.73-2.887L36.46 35.758V22.517a2.09 2.09 0 00-2.1-2.1z" fill="#12A4B6"/></svg>