<svg width="132" height="70" fill="none" xmlns="http://www.w3.org/2000/svg"><path fill-rule="evenodd" clip-rule="evenodd" d="M107.028 42.397l.014-7.41c-2.635 1.227-9.189 2.4-9.12-2.389.081-5.948 8.191-2.663 8.969-2.539l.014-7.26c-1.038-.827-4.56-1.283-6.185-1.283-6.622-.014-11.783 3.257-11.85 11.096-.137 13.622 15.973 11.552 18.158 9.785zm-19.374-.124v-7.287c-2.58 1.187-9.189 2.443-9.12-2.388.04-2.208 1.228-3.27 3.29-3.505 2.635-.29 3.66.524 5.693.98V22.8c-1.024-.856-4.655-1.312-6.321-1.284-6.58.07-11.77 3.354-11.728 11.22.04 7.867 5.42 10.89 11.974 10.959a15.373 15.373 0 003.427-.332c.6-.138 2.485-.496 2.785-1.09zm-19.702.883h-8.615l.177-7.01c-.505.538-.969 1.172-1.474 1.807-1.27 1.601-2.867 3.74-4.123 5.203h-6.581V22.04l8.629.014-.178 6.984c.751-.732 5.762-6.998 5.79-6.998h6.375v21.116zm-42.994 0h8.615v-6.79c.574.07.45.221 1.12 1.505.464.897 2.976 5.272 2.976 5.272h9.203c-.37-.953-5.64-10.213-5.762-10.641 0 0 4.574-8.805 5.16-10.462h-9.147l-2.28 5.314c-.3.718-.491 1.532-1.283 1.573v-6.9h-8.616v21.13h.014z" fill="#333"/><path d="M35.853 8.074C2.28 16.56-5.885 46.648 21.053 59.87c11.06 5.424 28.153 9.468 44.688 9.62 23.756.22 48.66-3.52 59.391-15.624 18.2-20.536-5.338-36.214-35.498-41.928-18.528-3.492-39.895-7.37-53.78-3.864z" stroke="#43CEE0" stroke-miterlimit="22.926"/><path d="M21.982 52.39C-6.622 35.828 15.852-1.035 63.324.538c77.1 2.554 82.548 59.332-2.758 59.332-13.967 0-25.108.317-38.584-7.48z" stroke="#60EAFC" stroke-miterlimit="22.926"/><path d="M109.622 56.806c14.391-7.577 20.535-18.77 16.944-32.364-9.271-35.193-63.83-10.337-99.492-10.337-35.648.014-28.74 24.056-17.653 34.352 20.917 19.418 72.076 23.158 100.201 8.35z" stroke="#14A9BD" stroke-miterlimit="22.926"/><path d="M93.99 48.525a.953.953 0 01-.083.4.86.86 0 01-.245.304 1.18 1.18 0 01-.396.193 1.999 1.999 0 01-.847.042 1.177 1.177 0 01-.26-.07 1.58 1.58 0 01-.204-.082.513.513 0 01-.11-.07c-.027-.013-.04-.04-.054-.054-.013-.014-.013-.028-.027-.056 0-.013-.014-.041-.014-.069v-.179c0-.028.014-.041.014-.055 0-.014.014-.028.027-.028.014-.014.027-.014.041-.014.027 0 .055.014.096.042.04.027.095.055.164.096.068.042.163.07.259.097a1.686 1.686 0 00.669.014.804.804 0 00.218-.097.404.404 0 00.137-.166.656.656 0 00.054-.234.362.362 0 00-.054-.207.397.397 0 00-.15-.152.934.934 0 00-.26-.097 1.545 1.545 0 00-.382-.04h-.314c-.027 0-.04 0-.055-.015-.013-.014-.027-.014-.027-.041-.014-.014-.014-.042-.014-.07v-.192c0-.028.014-.042.014-.056.014-.013.014-.027.027-.027.014-.014.028-.014.041-.014h.314c.137 0 .246-.014.342-.028a1.02 1.02 0 00.246-.096c.068-.042.109-.097.15-.152a.509.509 0 000-.4.39.39 0 00-.123-.138c-.055-.042-.11-.055-.178-.083a1.19 1.19 0 00-.573.014c-.096.027-.191.069-.26.096-.068.042-.136.07-.177.097a.236.236 0 01-.096.041c-.013 0-.027 0-.027-.013-.014 0-.014-.014-.027-.028-.014-.014-.014-.028-.014-.055V46.8c0-.069 0-.11.014-.152.013-.041.027-.069.054-.097s.069-.055.137-.096c.068-.028.136-.07.232-.097a1.53 1.53 0 01.287-.069c.095-.014.205-.027.314-.027.15 0 .3.013.437.055a.863.863 0 01.341.152.714.714 0 01.3.593.708.708 0 01-.04.235.884.884 0 01-.11.193c-.054.055-.109.11-.177.166-.069.041-.15.082-.232.11a.822.822 0 01.245.07c.082.04.15.096.219.15a.79.79 0 01.15.222c-.027.11-.014.207-.014.317zm2.061.883l-.382 1.077c-.014.028-.041.055-.096.083a.97.97 0 01-.232.027c-.055 0-.096 0-.137-.013-.027 0-.054-.014-.081-.028-.014-.014-.028-.028-.028-.055s0-.042.014-.083l.396-1.021c-.014-.014-.041-.028-.055-.042-.013-.014-.027-.041-.04-.055l-1.025-2.788c-.013-.041-.027-.083-.027-.11s.014-.042.027-.07c.014-.013.041-.027.082-.027s.096-.014.15-.014h.15c.042 0 .069.014.083.014.027.014.04.028.04.041.014.014.014.042.028.07l.819 2.346h.014l.792-2.36a.224.224 0 01.04-.083c.014-.014.041-.028.082-.028s.096-.013.164-.013c.055 0 .11 0 .15.013.041 0 .069.014.082.028a.106.106 0 01.028.069c0 .028 0 .055-.014.097l-1.024 2.925zm4.342-1.587c0 .249-.028.47-.096.663a1.607 1.607 0 01-.287.524 1.28 1.28 0 01-.464.345 1.438 1.438 0 01-.614.124 1.69 1.69 0 01-.615-.11 1.046 1.046 0 01-.423-.345 1.607 1.607 0 01-.246-.58 3.645 3.645 0 01-.082-.814c0-.262.014-.51.041-.731a3.71 3.71 0 01.11-.608c.04-.18.095-.33.163-.455a1.28 1.28 0 01.192-.304c.068-.069.122-.138.19-.18.07-.04.137-.082.206-.123a1.07 1.07 0 01.259-.097c.096-.028.205-.055.328-.069l1.024-.166c.041 0 .068-.013.095-.013.028 0 .041.013.055.027.014.014.027.042.027.083v.262a.104.104 0 01-.027.07c-.014.013-.027.027-.055.04-.027.014-.054.014-.082.028l-.955.166a1.436 1.436 0 00-.26.055.783.783 0 00-.19.07c-.056.027-.11.054-.151.082-.041.027-.082.069-.123.11a.93.93 0 00-.219.4c-.027.083-.04.18-.054.276-.014.097-.027.208-.041.318.068-.069.15-.138.218-.207.082-.055.164-.11.246-.152a.92.92 0 01.273-.096c.096-.028.205-.028.314-.028.205 0 .383.041.546.11.15.07.287.166.383.304.095.124.177.29.232.47.054.137.082.344.082.551zm-.546.056a2.13 2.13 0 00-.041-.415 1.28 1.28 0 00-.123-.345.634.634 0 00-.232-.234.73.73 0 00-.369-.083 1.2 1.2 0 00-.246.028 1.66 1.66 0 00-.232.096c-.068.042-.15.11-.218.166-.069.069-.15.152-.246.234v.263c0 .234.014.441.04.62s.083.332.137.442a.6.6 0 00.26.263.89.89 0 00.396.096.755.755 0 00.642-.317c.068-.097.122-.221.163-.36.041-.123.069-.289.069-.454zm4.041-.042c0 .235-.027.455-.096.662a1.328 1.328 0 01-.737.856 1.568 1.568 0 01-.642.124 1.63 1.63 0 01-.614-.11 1.033 1.033 0 01-.437-.317 1.223 1.223 0 01-.259-.497 2.424 2.424 0 01-.082-.663c0-.234.027-.455.095-.662.055-.207.151-.373.273-.525.123-.138.273-.262.465-.33a1.52 1.52 0 01.641-.125c.232 0 .451.041.615.11.177.07.327.18.437.318.123.138.204.303.259.497.055.207.082.414.082.662zm-.546.041c0-.151-.014-.303-.041-.441a1.121 1.121 0 00-.15-.373.603.603 0 00-.273-.248.966.966 0 00-.424-.097.987.987 0 00-.409.083.754.754 0 00-.273.235 1.22 1.22 0 00-.164.358 1.6 1.6 0 00-.055.456c0 .166.014.317.041.455.028.138.082.263.15.373.069.11.164.193.273.248.11.056.26.097.424.097.15 0 .286-.028.396-.083a.938.938 0 00.286-.234 1.22 1.22 0 00.164-.36c.028-.151.055-.303.055-.468zm3.7.622c0 .151-.027.29-.082.414a.696.696 0 01-.259.303 1.21 1.21 0 01-.424.18 2.449 2.449 0 01-.587.069h-.396c-.068 0-.123-.014-.191-.014-.055 0-.123-.014-.177-.014a.355.355 0 01-.192-.083c-.04-.041-.054-.11-.054-.207v-2.512c0-.082.014-.151.054-.207a.309.309 0 01.178-.082c.055 0 .109-.014.177-.014.069 0 .123-.014.192-.014.068 0 .136 0 .204-.014h.219c.205 0 .382.014.532.055.151.028.273.083.383.152a.652.652 0 01.286.58.67.67 0 01-.136.428.78.78 0 01-.382.248.854.854 0 01.477.262c.123.11.178.262.178.47zm-.642-1.353a.435.435 0 00-.041-.193.384.384 0 00-.123-.138.508.508 0 00-.232-.083 2.272 2.272 0 00-.341-.028c-.096 0-.191 0-.273.014-.082 0-.15.014-.219.014v.897h.547c.218 0 .395-.041.505-.124a.421.421 0 00.177-.359zm.096 1.353a.657.657 0 00-.041-.235.408.408 0 00-.137-.166 1.01 1.01 0 00-.246-.096c-.095-.028-.218-.028-.354-.028h-.519v1.035c.041 0 .082.014.123.014.041 0 .081 0 .136.014.041 0 .096 0 .137.014h.123c.136 0 .259-.014.354-.042a.667.667 0 00.246-.11.354.354 0 00.137-.18.535.535 0 00.041-.22z" fill="#333"/><path fill-rule="evenodd" clip-rule="evenodd" d="M27.935 50.403v-1.311c0-.056-.014-.083-.028-.111-.013-.014-.054-.028-.109-.028h-.396v-2.539c0-.014 0-.028-.014-.041-.013-.014-.027-.028-.04-.028-.014-.014-.041-.014-.082-.014h-.26c-.027 0-.054.014-.082.014-.013.014-.027.028-.04.028-.014.013-.014.027-.014.041v2.54h-1.38v-2.54c0-.014 0-.028-.013-.041-.014-.014-.027-.028-.04-.028-.015-.014-.042-.014-.083-.014h-.26c-.04 0-.068.014-.081.014a.179.179 0 00-.041.028c-.014.013-.014.027-.014.041v2.816c0 .069.014.11.041.138.027.027.068.04.123.04h2.362v.995c0 .027.014.041.055.055.04.014.095.014.177.014.068 0 .123 0 .164-.014.027-.014.055-.028.055-.055zm9.844-3.989v4.071c0 .014 0 .028.013.042.014.014.028.027.041.027.014.014.041.014.082.014h.26c.04 0 .054-.014.081-.014.014-.013.028-.013.041-.027s.014-.028.014-.042v-1.463c.082.07.15.139.219.194s.136.096.204.138a.6.6 0 00.219.082c.068.014.15.028.232.028.205 0 .382-.041.532-.11.15-.083.287-.18.396-.332.11-.138.191-.317.246-.51a2.65 2.65 0 00.082-.69 2.95 2.95 0 00-.068-.608 1.358 1.358 0 00-.205-.496 1.164 1.164 0 00-.355-.332 1.086 1.086 0 00-.533-.124c-.095 0-.19.014-.273.028-.081.027-.177.055-.259.096a1.278 1.278 0 00-.246.166c-.082.069-.164.152-.26.235V46.4c0-.014 0-.041-.013-.041-.013-.014-.027-.028-.04-.028-.014-.014-.042-.014-.069-.014h-.218c-.028 0-.055.014-.069.014-.013.014-.027.014-.04.028-.014.014-.014.027-.014.055zm.532 2.043v-1.16c.082-.11.164-.193.232-.262.069-.069.15-.138.219-.18.068-.04.136-.082.205-.096.068-.028.136-.028.204-.028.137 0 .246.028.342.097a.68.68 0 01.218.262c.055.11.096.235.11.373.027.138.027.29.027.428s-.014.276-.041.4a.934.934 0 01-.137.359.714.714 0 01-.232.262.554.554 0 01-.341.097.667.667 0 01-.41-.138 2.298 2.298 0 01-.396-.414zm-2.567-1.643v2.512c0 .014 0 .028.014.042.014.013.027.027.041.027.014.014.04.014.082.014h.26c.04 0 .054-.014.081-.014.014-.014.027-.014.041-.027.014-.014.014-.028.014-.042v-2.512h.86c.014 0 .04 0 .055-.013.013-.014.027-.028.027-.042.013-.014.013-.041.027-.069v-.11c0-.042 0-.07-.014-.11a.197.197 0 00-.027-.084c-.013-.027-.013-.041-.027-.041-.014-.014-.027-.014-.041-.014h-2.253c-.014 0-.027 0-.04.014-.014.014-.028.028-.028.041-.014.014-.014.042-.027.083 0 .028-.014.07-.014.097 0 .041 0 .083.014.11 0 .028.013.055.027.07.014.013.014.027.027.04.014.015.027.015.041.015h.86v.013zm-4.027-.4v2.912c0 .014 0 .028.013.042.014.013.028.027.041.027.014.014.041.014.082.014h.26c.04 0 .054-.014.082-.014.013-.014.027-.014.04-.027.014-.014.014-.028.014-.042v-1.283h1.461v1.283c0 .014 0 .028.014.042.013.013.027.027.04.027.014.014.042.014.082.014h.26c.04 0 .055-.014.082-.014.013-.014.027-.014.04-.027.014-.014.014-.028.014-.042v-2.912c0-.014 0-.028-.013-.041-.014-.014-.027-.028-.041-.028-.014-.014-.041-.014-.082-.014h-.26c-.04 0-.054.014-.081.014-.014.014-.028.028-.041.028-.014.013-.014.027-.014.041v1.187h-1.46v-1.187c0-.014 0-.028-.015-.041-.013-.014-.027-.028-.04-.028-.014-.014-.042-.014-.082-.014h-.26c-.04 0-.068.014-.082.014-.027.014-.04.028-.04.028-.014.013-.014.027-.014.041zm-3.1 2.664c.123.138.273.234.45.303.178.07.383.097.629.097.137 0 .26-.014.382-.028.123-.013.232-.041.314-.069.096-.027.164-.055.219-.082.054-.028.095-.042.109-.056.014-.013.027-.027.027-.041.014-.014.014-.028.014-.041l.014-.056v-.165c0-.028-.014-.042-.014-.056s-.014-.027-.027-.027c-.014-.014-.028-.014-.041-.014-.028 0-.069.014-.11.028-.054.027-.109.041-.19.069-.083.027-.165.055-.274.069-.109.027-.232.027-.368.027-.178 0-.314-.027-.437-.069a.775.775 0 01-.287-.207.938.938 0 01-.164-.331 2.05 2.05 0 01-.054-.442h1.897a.174.174 0 00.137-.055.24.24 0 00.068-.18v-.096c0-.193-.027-.373-.068-.538a1.241 1.241 0 00-.232-.442 1.059 1.059 0 00-.396-.29 1.467 1.467 0 00-.574-.11 1.57 1.57 0 00-.573.11c-.178.07-.314.18-.437.318a1.222 1.222 0 00-.273.51 2.129 2.129 0 00-.096.677c0 .262.028.497.096.69.055.193.15.359.26.497zm1.762-1.49h-1.57c0-.125.027-.236.054-.346a.965.965 0 01.15-.29.67.67 0 01.246-.193.69.69 0 01.341-.069c.26 0 .45.083.574.235.15.165.205.386.205.662zm29.791.068c-.014.014-.014.041-.014.055v.193c0 .028.014.055.014.07.014.013.027.027.027.04.014.014.028.014.055.014h.314c.15 0 .287.014.382.042.11.027.191.055.26.096a.397.397 0 01.15.152.461.461 0 01.054.207.457.457 0 01-.054.235.405.405 0 01-.137.166.53.53 0 01-.218.096c-.082.028-.178.028-.287.028a1.47 1.47 0 01-.382-.042c-.11-.027-.191-.069-.26-.096-.068-.042-.122-.07-.163-.097-.041-.027-.069-.041-.096-.041-.014 0-.027 0-.04.013l-.028.028c0 .014-.014.028-.014.055v.18l.014.069c0 .014.014.041.027.055l.055.055c.027.014.054.042.109.07.055.027.123.054.205.082.082.028.164.041.26.069.095.014.204.028.313.028.205 0 .369-.028.533-.07.15-.04.286-.11.396-.193a.755.755 0 00.245-.303.91.91 0 00.082-.4.646.646 0 00-.054-.29.889.889 0 00-.15-.221.78.78 0 00-.219-.152.552.552 0 00-.246-.069c.082-.028.164-.055.232-.11a.513.513 0 00.178-.166c.054-.055.082-.124.11-.193a.65.65 0 00.04-.235.678.678 0 00-.082-.345.753.753 0 00-.218-.248.862.862 0 00-.342-.152 2.07 2.07 0 00-.437-.055c-.109 0-.204.013-.314.027a2.164 2.164 0 00-.286.07 1.152 1.152 0 00-.232.096.39.39 0 00-.137.097.224.224 0 00-.055.096c-.013.042-.013.083-.013.152v.083c0 .027.013.041.013.055.014.014.014.028.028.028.013 0 .013.013.027.013a.236.236 0 00.096-.041c.04-.028.109-.055.177-.097.068-.041.164-.069.26-.096a1.19 1.19 0 01.573-.014.355.355 0 01.177.083.39.39 0 01.123.138c.028.055.041.11.041.193a.465.465 0 01-.04.207.396.396 0 01-.15.152 1.02 1.02 0 01-.247.096c-.095.028-.218.028-.34.028h-.315c-.014 0-.04 0-.04.014.054-.028.04-.014.04 0zm-13.79 1.67v-2.802c0-.069-.013-.11-.04-.138-.028-.028-.069-.041-.124-.041H44.1c-.054 0-.095.013-.123.041-.027.028-.04.083-.04.138v2.802c0 .013 0 .027.013.041.014.014.027.028.041.028.014.013.04.013.082.013h.246c.04 0 .068-.013.082-.013.027-.014.04-.014.04-.028.014-.014.014-.027.014-.041v-2.54h1.38v2.553c0 .014 0 .028.013.042.013.014.027.027.04.027a.174.174 0 00.083.014h.26c.026 0 .054-.013.081-.013.014-.014.027-.014.041-.028.027-.014.027-.028.027-.055zm40.045-2.112c0 .207.055.387.178.51a.93.93 0 00.491.25.774.774 0 00-.3.22 1.32 1.32 0 00-.218.359l-.233.552-.068.18c-.014.027-.014.054-.014.068 0 .014 0 .028.014.042.014.013.027.027.041.027.027 0 .055.014.082.014h.246c.04 0 .068-.014.095-.014a.186.186 0 00.055-.041c.014-.014.027-.042.041-.07l.232-.565a1.42 1.42 0 01.137-.29.561.561 0 01.163-.193.491.491 0 01.205-.11c.068-.028.178-.028.314-.028h.3v1.228c0 .014 0 .028.014.042.014.013.028.027.041.027.014.014.041.014.082.014h.26c.04 0 .054-.014.081-.014.014-.014.028-.014.041-.027.014-.014.014-.028.014-.042V46.58a.209.209 0 00-.055-.152c-.027-.04-.081-.069-.15-.069l-.177-.013-.205-.014-.205-.014h-.177a2.22 2.22 0 00-.56.07c-.164.04-.3.096-.41.178a1.04 1.04 0 00-.26.29c-.067.083-.095.207-.095.36zm.574.207a.51.51 0 01-.041-.207c0-.083.014-.152.04-.207a.376.376 0 01.124-.166.732.732 0 01.232-.11c.095-.028.218-.041.355-.041h.218c.082 0 .164.013.232.027v.994h-.437a2.58 2.58 0 01-.382-.028.65.65 0 01-.218-.096.376.376 0 01-.123-.166zm-3.973-1.007v2.925c0 .014 0 .028.013.042.014.014.028.027.041.027.014.014.041.014.069.014h.218c.027 0 .055-.013.068-.013.014-.014.028-.014.041-.028l.041-.042 1.229-1.697.177-.248c.055-.083.11-.166.164-.263l-.013.263v1.946c0 .013 0 .027.013.04.014.015.028.029.041.029.028.013.055.013.082.013h.246c.027 0 .055-.013.082-.013.014-.014.027-.014.04-.028.014-.014.014-.028.014-.041v-2.913c0-.013 0-.027-.013-.04-.014-.015-.027-.029-.041-.029-.014-.013-.041-.013-.068-.013h-.219c-.027 0-.054.013-.068.013-.027 0-.041.014-.055.028l-.04.041-1.243 1.712c-.055.069-.11.152-.164.234-.055.083-.095.166-.15.249l.013-.249v-1.932c0-.027-.013-.055-.054-.069a.694.694 0 00-.218-.027h-.123c-.041 0-.069.014-.082.014-.028.013-.041.013-.041.027v.028zm-3.51 0v2.912c0 .013 0 .027.014.041.014.014.028.028.041.028.014.013.041.013.082.013h.26c.04 0 .054-.013.082-.013.013-.014.027-.014.04-.028.014-.014.014-.028.014-.041v-1.284h1.461v1.284c0 .013 0 .027.014.041.013.014.027.028.04.028.014.013.042.013.083.013h.26c.04 0 .054-.013.081-.013.014-.014.027-.014.041-.028.014-.014.014-.027.014-.041v-2.912c0-.014 0-.028-.014-.042-.014-.014-.027-.027-.041-.027-.014-.014-.04-.014-.082-.014h-.26c-.04 0-.054.014-.081.014-.014.013-.028.027-.041.027-.014.014-.014.028-.014.042V47.6h-1.46v-1.187c0-.014 0-.028-.014-.042-.014-.014-.028-.027-.041-.027-.014-.014-.041-.014-.082-.014h-.26c-.04 0-.068.014-.082.014a.142.142 0 00-.04.027c-.014.014-.014.028-.014.042zm-2.962 1.435a.867.867 0 00-.287.304.86.86 0 00-.095.428c0 .137.027.262.068.372.055.11.11.207.205.276a.991.991 0 00.314.18c.123.04.26.055.41.055.177 0 .34-.042.491-.11.15-.07.3-.18.423-.318v.29c0 .027.014.041.027.055a.104.104 0 00.069.028c.027 0 .082.013.136.013.055 0 .096 0 .137-.013a.104.104 0 00.068-.028c.014-.014.027-.028.027-.055v-1.974c0-.18-.027-.345-.054-.483a.938.938 0 00-.191-.345.762.762 0 00-.355-.207 1.995 1.995 0 00-.86-.041c-.11.027-.205.041-.3.083a1.019 1.019 0 00-.247.11c-.068.041-.123.069-.15.097a.288.288 0 00-.054.082c-.014.028-.014.07-.014.125v.082c0 .028.014.056.027.07.014.013.027.027.027.04.014.015.028.015.041.015a.216.216 0 00.11-.042c.054-.027.123-.069.19-.11.083-.042.165-.07.274-.11a1.395 1.395 0 01.669 0 .5.5 0 01.205.124.377.377 0 01.109.22c.027.083.04.194.04.304v.235h-.395a2.7 2.7 0 00-.6.055 2.497 2.497 0 00-.465.193zm1.01.152h.45v.62a1.806 1.806 0 01-.368.332.766.766 0 01-.382.11c-.177 0-.3-.04-.396-.138-.095-.082-.136-.206-.136-.358 0-.083.013-.166.054-.235a.461.461 0 01.15-.18c.069-.055.164-.082.26-.11.095-.027.232-.041.368-.041zm-4.341-1.394v2.512c0 .096.027.165.054.207.041.041.11.069.191.082l.178.014.191.014h.396c.218 0 .423-.027.587-.069a1.51 1.51 0 00.423-.18.79.79 0 00.26-.303c.054-.124.082-.262.082-.414a.776.776 0 00-.164-.497.854.854 0 00-.478-.262.776.776 0 00.382-.248.725.725 0 00.137-.428.84.84 0 00-.069-.331.754.754 0 00-.218-.249c-.095-.069-.232-.11-.382-.152a2.87 2.87 0 00-.533-.055h-.218l-.205.014-.191.014-.178.013a.308.308 0 00-.177.083.512.512 0 00-.068.235zm.519 1.007v-.897l.218-.014c.082 0 .177-.013.273-.013.137 0 .246.013.341.027.096.014.164.055.232.083a.39.39 0 01.123.138.445.445 0 01.041.193.406.406 0 01-.177.36c-.123.082-.287.123-.505.123h-.546zm0 .36h.518c.137 0 .26.013.355.027a.83.83 0 01.246.096c.068.042.11.097.137.166a.6.6 0 01.04.235.65.65 0 01-.04.234c-.028.07-.082.124-.137.18a1.04 1.04 0 01-.246.11 1.322 1.322 0 01-.355.041h-.123l-.136-.013-.137-.014c-.04 0-.082-.014-.123-.014v-1.049zm-2.035-.925c.068.11.11.234.15.372.028.138.041.29.041.442 0 .165-.013.317-.054.469a.788.788 0 01-.164.359.698.698 0 01-.287.234.883.883 0 01-.396.083.803.803 0 01-.423-.096.792.792 0 01-.273-.249 1.126 1.126 0 01-.15-.372 2.351 2.351 0 01-.041-.456c0-.165.013-.317.054-.455s.082-.263.164-.36a.755.755 0 01.273-.234.904.904 0 01.41-.083.8.8 0 01.423.097c.11.07.205.152.273.249zm-2.061.193a2.417 2.417 0 00-.096.662c0 .249.027.47.082.663.054.193.15.358.26.496.122.138.259.235.436.318.178.069.382.11.614.11.246 0 .465-.041.642-.124.178-.083.342-.193.464-.345.123-.138.219-.317.273-.51.069-.208.096-.415.096-.663 0-.248-.027-.47-.082-.662a1.428 1.428 0 00-.26-.497 1.28 1.28 0 00-.436-.318 1.685 1.685 0 00-.615-.11 1.429 1.429 0 00-1.106.456 1.589 1.589 0 00-.272.524zm-3.332-.828v4.071c0 .014 0 .028.014.041.013.014.027.028.04.028.014.014.042.014.083.014h.259c.041 0 .055-.014.082-.014.014-.014.027-.014.04-.028s.015-.027.015-.041v-1.463c.082.07.15.138.218.193s.137.097.205.138a.6.6 0 00.218.083c.069.014.15.028.232.028.205 0 .383-.042.533-.11.15-.084.287-.18.396-.332.109-.138.19-.317.246-.51.054-.208.082-.428.082-.69 0-.208-.028-.415-.069-.608-.04-.193-.109-.359-.205-.497s-.218-.248-.355-.33a1.086 1.086 0 00-.532-.125c-.096 0-.191.014-.273.027-.082.028-.178.056-.26.097a1.278 1.278 0 00-.245.166c-.082.069-.164.151-.26.234V46.4c0-.014 0-.042-.013-.042-.014-.013-.028-.027-.041-.027-.014-.014-.041-.014-.069-.014h-.218c-.027 0-.055.014-.068.014-.014.014-.028.014-.041.027-.014.014-.014.028-.014.056zm.533 2.042v-1.16c.082-.11.163-.192.232-.261.068-.07.15-.138.218-.18.068-.041.137-.083.205-.096.068-.028.136-.028.205-.028.136 0 .246.028.341.097a.68.68 0 01.219.262c.054.11.095.234.109.373.027.138.027.29.027.427s-.014.276-.04.4a.935.935 0 01-.137.36.714.714 0 01-.233.262.554.554 0 01-.34.096.667.667 0 01-.41-.138 2.295 2.295 0 01-.396-.414zm-4.083-2.042v2.925c0 .014 0 .028.014.042.013.014.027.027.04.027.014.014.042.014.07.014h.218c.027 0 .054-.013.068-.013.013-.014.027-.014.04-.028l.042-.042 1.228-1.697.178-.248c.055-.083.11-.166.164-.263l-.014.263v1.946c0 .013 0 .027.014.04.013.015.027.029.04.029.028.013.055.013.083.013h.245c.028 0 .055-.013.082-.013.014-.014.028-.014.041-.028.014-.014.014-.028.014-.041v-2.913c0-.013 0-.027-.014-.04-.013-.015-.027-.029-.04-.029-.014-.013-.042-.013-.069-.013h-.218c-.028 0-.055.013-.069.013-.027 0-.04.014-.054.028l-.041.041-1.243 1.712a3.647 3.647 0 00-.163.234c-.055.083-.096.166-.15.249l.013-.249v-1.932c0-.027-.014-.055-.055-.069a.694.694 0 00-.218-.027h-.123c-.04 0-.068.014-.082.014-.027.013-.04.013-.04.027v.028zm-4.314.51c.136.166.19.387.19.663h-1.57c0-.124.028-.235.055-.345a.968.968 0 01.15-.29.668.668 0 01.246-.193.69.69 0 01.342-.07c.273 0 .464.07.587.235zm-1.83.276a2.133 2.133 0 00-.095.677c0 .262.027.496.095.69.055.193.15.358.273.496.123.138.273.235.45.304.178.07.383.097.629.097.136 0 .26-.014.382-.028a1.54 1.54 0 00.314-.069c.096-.028.164-.055.219-.083.054-.027.095-.041.109-.055.014-.014.027-.028.027-.041.014-.014.014-.028.014-.042l.013-.055v-.166c0-.027-.013-.04-.013-.055s-.014-.027-.027-.027c-.014-.014-.028-.014-.041-.014a.418.418 0 00-.11.027c-.054.028-.109.042-.19.07a1.584 1.584 0 01-.274.068c-.11.028-.232.028-.369.028a1.32 1.32 0 01-.436-.069.775.775 0 01-.287-.207.938.938 0 01-.164-.331 2.05 2.05 0 01-.055-.442h1.898a.174.174 0 00.137-.055.24.24 0 00.068-.18v-.096a2.23 2.23 0 00-.068-.538 1.24 1.24 0 00-.232-.442 1.059 1.059 0 00-.396-.29 1.466 1.466 0 00-.574-.11c-.205 0-.41.041-.573.11-.178.07-.314.18-.437.318a1.264 1.264 0 00-.287.51zm-1.87-.386v2.512c0 .013 0 .027.013.041s.028.028.041.028c.014.013.041.013.082.013h.26c.04 0 .054-.013.082-.013.013-.014.027-.014.04-.028.014-.014.014-.028.014-.041v-2.512h.86c.014 0 .041 0 .055-.014.014-.014.027-.028.027-.041.014-.014.014-.042.028-.07v-.11c0-.041 0-.069-.014-.11 0-.028-.014-.055-.027-.083-.014-.028-.014-.041-.028-.041-.013-.014-.027-.014-.04-.014H53.89c-.014 0-.028 0-.041.014-.014.013-.028.027-.028.041-.013.014-.013.041-.027.083 0 .027-.014.069-.014.096 0 .042 0 .083.014.11 0 .028.014.056.027.07.014.014.014.027.028.041.013.014.027.014.04.014h.86v.014zm-4.042.428a2.417 2.417 0 00-.095.662c0 .249.027.47.082.663.054.193.15.358.26.496.122.138.258.235.436.318.177.069.382.11.614.11.246 0 .465-.041.642-.124.178-.083.342-.193.464-.345.123-.138.219-.317.273-.51.069-.208.096-.415.096-.663 0-.248-.027-.47-.082-.663a1.428 1.428 0 00-.26-.496 1.282 1.282 0 00-.436-.318 1.685 1.685 0 00-.615-.11 1.43 1.43 0 00-1.106.456 1.37 1.37 0 00-.273.524zm.45.62c0-.165.015-.317.055-.455.041-.138.082-.262.164-.359a.754.754 0 01.273-.234.904.904 0 01.41-.083.8.8 0 01.423.097.67.67 0 01.273.248c.069.11.11.235.15.373a2.3 2.3 0 01.041.441c0 .166-.013.318-.054.47a.787.787 0 01-.164.358.699.699 0 01-.287.235.883.883 0 01-.396.083.803.803 0 01-.423-.097.791.791 0 01-.273-.248 1.512 1.512 0 01-.15-.373 2.568 2.568 0 01-.041-.455zm-3.795-1.448v4.071c0 .014 0 .028.014.041.014.014.027.028.04.028.015.014.042.014.083.014h.26c.04 0 .054-.014.081-.014.014-.014.027-.014.041-.028.014-.013.014-.027.014-.041v-1.463c.082.07.15.138.218.193.068.055.137.097.205.138a.6.6 0 00.218.083c.069.014.15.028.233.028.204 0 .382-.042.532-.11.15-.084.287-.18.396-.332.11-.138.191-.317.246-.51.054-.208.082-.428.082-.69 0-.208-.028-.415-.069-.608a1.355 1.355 0 00-.204-.497 1.162 1.162 0 00-.355-.33 1.086 1.086 0 00-.533-.125c-.095 0-.191.014-.273.027-.082.028-.177.056-.26.097a1.285 1.285 0 00-.245.166c-.082.069-.164.151-.26.234V46.4c0-.014 0-.042-.013-.042-.014-.013-.027-.027-.041-.027-.014-.014-.041-.014-.068-.014h-.219c-.027 0-.054.014-.068.014-.014.014-.027.014-.041.027-.014.014-.014.028-.014.056zm.533 2.042v-1.16c.082-.11.164-.192.232-.261a1.25 1.25 0 01.218-.18.687.687 0 01.205-.096c.068-.028.137-.028.205-.028.136 0 .246.028.341.097a.68.68 0 01.219.262c.054.11.095.234.109.373.027.138.027.29.027.427s-.013.276-.04.4a.936.936 0 01-.137.36.715.715 0 01-.232.262.555.555 0 01-.342.096.667.667 0 01-.41-.138 3.909 3.909 0 01-.395-.414z" fill="#333"/></svg>